Atma-SemiBold.ufo
<glyph name="dollar" format="1">
  <advance width="443"/>
  <unicode hex="0024"/>
  <outline>
    <contour>
      <point x="277" y="179" type="curve" smooth="yes"/>
      <point x="277" y="140"/>
      <point x="256" y="116"/>
      <point x="215" y="116" type="curve" smooth="yes"/>
      <point x="161" y="116"/>
      <point x="124" y="173"/>
      <point x="126" y="255" type="curve"/>
      <point x="95" y="255"/>
      <point x="50" y="250"/>
      <point x="7" y="231" type="curve"/>
      <point x="7" y="126"/>
      <point x="84" y="35"/>
      <point x="218" y="35" type="curve" smooth="yes"/>
      <point x="331" y="35"/>
      <point x="427" y="102"/>
      <point x="427" y="208" type="curve" smooth="yes"/>
      <point x="427" y="296"/>
      <point x="381" y="346"/>
      <point x="287" y="412" type="curve" smooth="yes"/>
      <point x="223" y="457"/>
      <point x="188" y="495"/>
      <point x="188" y="545" type="curve" smooth="yes"/>
      <point x="188" y="581"/>
      <point x="208" y="603"/>
      <point x="237" y="603" type="curve"/>
      <point x="274" y="603"/>
      <point x="292" y="574"/>
      <point x="304" y="497" type="curve"/>
      <point x="354" y="499"/>
      <point x="394" y="507"/>
      <point x="427" y="526" type="curve"/>
      <point x="406" y="630"/>
      <point x="348" y="688"/>
      <point x="235" y="688" type="curve" smooth="yes"/>
      <point x="111" y="688"/>
      <point x="35" y="611"/>
      <point x="35" y="512" type="curve" smooth="yes"/>
      <point x="35" y="417"/>
      <point x="91" y="370"/>
      <point x="161" y="316" type="curve" smooth="yes"/>
      <point x="220" y="270"/>
      <point x="277" y="237"/>
    </contour>
    <contour>
      <point x="279" y="647" type="line"/>
      <point x="274" y="694"/>
      <point x="275" y="734"/>
      <point x="281" y="781" type="curve"/>
      <point x="250" y="787"/>
      <point x="210" y="785"/>
      <point x="182" y="775" type="curve"/>
      <point x="178" y="735"/>
      <point x="185" y="685"/>
      <point x="191" y="650" type="curve"/>
    </contour>
    <contour>
      <point x="165" y="-66" type="curve"/>
      <point x="195" y="-73"/>
      <point x="235" y="-71"/>
      <point x="264" y="-61" type="curve"/>
      <point x="268" y="-20"/>
      <point x="263" y="28"/>
      <point x="258" y="63" type="curve"/>
      <point x="170" y="67" type="line"/>
      <point x="174" y="18"/>
      <point x="172" y="-18"/>
    </contour>
  </outline>
</glyph>
<glyph name="plus" format="1">
  <advance width="445"/>
  <unicode hex="002B"/>
  <outline>
    <contour>
      <point x="41" y="391" type="curve"/>
      <point x="36" y="358"/>
      <point x="34" y="331"/>
      <point x="34" y="298" type="curve"/>
      <point x="142" y="282"/>
      <point x="291" y="280"/>
      <point x="408" y="298" type="curve"/>
      <point x="416" y="327"/>
      <point x="420" y="358"/>
      <point x="420" y="390" type="curve"/>
      <point x="281" y="376"/>
      <point x="160" y="376"/>
    </contour>
    <contour>
      <point x="172" y="145" type="curve"/>
      <point x="204" y="142"/>
      <point x="235" y="143"/>
      <point x="265" y="147" type="curve"/>
      <point x="282" y="265"/>
      <point x="280" y="413"/>
      <point x="265" y="520" type="curve"/>
      <point x="232" y="521"/>
      <point x="205" y="520"/>
      <point x="172" y="515" type="curve"/>
      <point x="187" y="384"/>
      <point x="185" y="267"/>
    </contour>
  </outline>
</glyph>
<glyph name="comma" format="1">
  <advance width="224"/>
  <unicode hex="002C"/>
  <outline>
    <contour>
      <point x="203" y="107" type="curve"/>
      <point x="163" y="118"/>
      <point x="112" y="122"/>
      <point x="63" y="118" type="curve"/>
      <point x="63" y="4"/>
      <point x="49" y="-100"/>
      <point x="21" y="-214" type="curve"/>
      <point x="51" y="-223"/>
      <point x="85" y="-228"/>
      <point x="123" y="-231" type="curve"/>
      <point x="172" y="-115"/>
      <point x="197" y="-6"/>
    </contour>
  </outline>
</glyph>
<glyph name="one" format="1">
  <advance width="428"/>
  <unicode hex="0031"/>
  <outline>
    <contour>
      <point x="291" y="-32" type="curve"/>
      <point x="313" y="234"/>
      <point x="369" y="521"/>
      <point x="415" y="640" type="curve"/>
      <point x="253" y="631" type="line"/>
      <point x="220" y="502"/>
      <point x="179" y="273"/>
      <point x="172" y="104" type="curve" smooth="yes"/>
      <point x="168" y="47"/>
      <point x="166" y="6"/>
      <point x="166" y="-42" type="curve"/>
      <point x="181" y="-45"/>
      <point x="193" y="-46"/>
      <point x="214" y="-46" type="curve" smooth="yes"/>
      <point x="248" y="-45"/>
      <point x="273" y="-40"/>
    </contour>
    <contour>
      <point x="326" y="698" type="curve"/>
      <point x="232" y="619"/>
      <point x="124" y="554"/>
      <point x="14" y="501" type="curve"/>
      <point x="34" y="454"/>
      <point x="60" y="419"/>
      <point x="95" y="391" type="curve"/>
      <point x="222" y="470"/>
      <point x="323" y="550"/>
      <point x="415" y="640" type="curve"/>
      <point x="391" y="665"/>
      <point x="363" y="684"/>
    </contour>
  </outline>
</glyph>
<glyph name="nine" format="1">
  <advance width="564"/>
  <unicode hex="0039"/>
  <outline>
    <contour>
      <point x="226" y="81" type="curve"/>
      <point x="317" y="81"/>
      <point x="381" y="195"/>
      <point x="381" y="392" type="curve" smooth="yes"/>
      <point x="381" y="551"/>
      <point x="340" y="611"/>
      <point x="284" y="611" type="curve" smooth="yes"/>
      <point x="228" y="611"/>
      <point x="192" y="551"/>
      <point x="192" y="476" type="curve" smooth="yes"/>
      <point x="192" y="394"/>
      <point x="232" y="350"/>
      <point x="286" y="350" type="curve" smooth="yes"/>
      <point x="332" y="350"/>
      <point x="369" y="386"/>
      <point x="384" y="471" type="curve"/>
      <point x="419" y="372" type="line"/>
      <point x="376" y="284"/>
      <point x="315" y="250"/>
      <point x="242" y="250" type="curve" smooth="yes"/>
      <point x="120" y="250"/>
      <point x="37" y="333"/>
      <point x="37" y="456" type="curve" smooth="yes"/>
      <point x="37" y="589"/>
      <point x="126" y="711"/>
      <point x="286" y="711" type="curve" smooth="yes"/>
      <point x="445" y="711"/>
      <point x="534" y="583"/>
      <point x="534" y="400" type="curve" smooth="yes"/>
      <point x="534" y="151"/>
      <point x="400" y="-30"/>
      <point x="209" y="-30" type="curve" smooth="yes"/>
      <point x="125" y="-30"/>
      <point x="69" y="1"/>
      <point x="29" y="40" type="curve"/>
      <point x="49" y="82"/>
      <point x="72" y="117"/>
      <point x="106" y="146" type="curve"/>
      <point x="128" y="108"/>
      <point x="175" y="81"/>
    </contour>
  </outline>
</glyph>
<glyph name="semicolon" format="1">
  <advance width="234"/>
  <unicode hex="003B"/>
  <outline>
    <contour>
      <point x="211" y="407" type="curve"/>
      <point x="212" y="438"/>
      <point x="210" y="488"/>
      <point x="208" y="536" type="curve"/>
      <point x="190" y="544"/>
      <point x="162" y="550"/>
      <point x="132" y="550" type="curve" smooth="yes"/>
      <point x="105" y="550"/>
      <point x="81" y="548"/>
      <point x="54" y="542" type="curve"/>
      <point x="58" y="496"/>
      <point x="61" y="460"/>
      <point x="63" y="411" type="curve"/>
      <point x="111" y="408"/>
      <point x="156" y="406"/>
    </contour>
    <contour>
      <point x="203" y="110" type="curve"/>
      <point x="163" y="118"/>
      <point x="113" y="121"/>
      <point x="65" y="120" type="curve"/>
      <point x="66" y="10"/>
      <point x="53" y="-91"/>
      <point x="22" y="-211" type="curve"/>
      <point x="53" y="-220"/>
      <point x="86" y="-225"/>
      <point x="124" y="-227" type="curve"/>
      <point x="175" y="-113"/>
      <point x="201" y="-3"/>
    </contour>
  </outline>
</glyph>
<glyph name="F" format="1">
  <advance width="539"/>
  <unicode hex="0046"/>
  <outline>
    <contour>
      <point x="456" y="314" type="curve"/>
      <point x="456" y="362"/>
      <point x="453" y="398"/>
      <point x="444" y="435" type="curve"/>
      <point x="355" y="433"/>
      <point x="272" y="419"/>
      <point x="190" y="396" type="curve"/>
      <point x="198" y="293" type="line"/>
      <point x="281" y="305"/>
      <point x="370" y="313"/>
    </contour>
    <contour>
      <point x="248" y="-68" type="curve"/>
      <point x="254" y="52"/>
      <point x="256" y="173"/>
      <point x="255" y="330" type="curve" smooth="yes"/>
      <point x="253" y="473"/>
      <point x="246" y="605"/>
      <point x="231" y="713" type="curve"/>
      <point x="165" y="713"/>
      <point x="104" y="714"/>
      <point x="56" y="717" type="curve"/>
      <point x="94" y="487"/>
      <point x="111" y="152"/>
      <point x="109" y="-82" type="curve"/>
      <point x="167" y="-83"/>
      <point x="209" y="-77"/>
    </contour>
    <contour>
      <point x="504" y="645" type="curve"/>
      <point x="508" y="662"/>
      <point x="512" y="685"/>
      <point x="511" y="710" type="curve" smooth="yes"/>
      <point x="511" y="734"/>
      <point x="508" y="755"/>
      <point x="502" y="774" type="curve"/>
      <point x="342" y="748"/>
      <point x="227" y="728"/>
      <point x="56" y="717" type="curve"/>
      <point x="68" y="694"/>
      <point x="87" y="645"/>
      <point x="87" y="608" type="curve"/>
      <point x="242" y="611"/>
      <point x="363" y="627"/>
    </contour>
  </outline>
</glyph>
<glyph name="H" format="1">
  <advance width="652"/>
  <unicode hex="0048"/>
  <outline>
    <contour>
      <point x="218" y="19" type="curve"/>
      <point x="214" y="197"/>
      <point x="214" y="551"/>
      <point x="228" y="704" type="curve"/>
      <point x="203" y="711"/>
      <point x="180" y="714"/>
      <point x="154" y="714" type="curve" smooth="yes"/>
      <point x="112" y="714"/>
      <point x="76" y="703"/>
      <point x="55" y="690" type="curve"/>
      <point x="55" y="479"/>
      <point x="71" y="213"/>
      <point x="86" y="5" type="curve"/>
      <point x="130" y="4"/>
      <point x="191" y="11"/>
    </contour>
    <contour>
      <point x="593" y="-58" type="curve"/>
      <point x="593" y="145"/>
      <point x="586" y="480"/>
      <point x="574" y="719" type="curve"/>
      <point x="555" y="731"/>
      <point x="526" y="742"/>
      <point x="492" y="742" type="curve" smooth="yes"/>
      <point x="467" y="742"/>
      <point x="448" y="738"/>
      <point x="423" y="732" type="curve"/>
      <point x="439" y="558"/>
      <point x="444" y="145"/>
      <point x="444" y="-43" type="curve"/>
      <point x="473" y="-51"/>
      <point x="543" y="-58"/>
    </contour>
    <contour>
      <point x="482" y="309" type="curve"/>
      <point x="470" y="429" type="line"/>
      <point x="364" y="429"/>
      <point x="269" y="418"/>
      <point x="170" y="399" type="curve"/>
      <point x="178" y="290" type="line"/>
      <point x="278" y="305"/>
      <point x="382" y="309"/>
    </contour>
  </outline>
</glyph>
<glyph name="V" format="1">
  <advance width="596"/>
  <unicode hex="0056"/>
  <outline>
    <contour>
      <point x="338" y="-80" type="curve"/>
      <point x="461" y="175"/>
      <point x="545" y="437"/>
      <point x="583" y="737" type="curve"/>
      <point x="540" y="754"/>
      <point x="493" y="763"/>
      <point x="446" y="765" type="curve"/>
      <point x="418" y="513"/>
      <point x="373" y="281"/>
      <point x="293" y="69" type="curve"/>
      <point x="232" y="239"/>
      <point x="192" y="450"/>
      <point x="169" y="637" type="curve"/>
      <point x="109" y="635"/>
      <point x="55" y="624"/>
      <point x="9" y="603" type="curve"/>
      <point x="52" y="353"/>
      <point x="123" y="119"/>
      <point x="212" y="-96" type="curve"/>
      <point x="259" y="-96"/>
      <point x="306" y="-92"/>
    </contour>
  </outline>
</glyph>
<glyph name="W" format="1">
  <advance width="852"/>
  <unicode hex="0057"/>
  <outline>
    <contour>
      <point x="618" y="-24" type="curve"/>
      <point x="738" y="195"/>
      <point x="817" y="429"/>
      <point x="858" y="661" type="curve"/>
      <point x="824" y="687"/>
      <point x="779" y="706"/>
      <point x="721" y="710" type="curve"/>
      <point x="700" y="511"/>
      <point x="655" y="326"/>
      <point x="574" y="113" type="curve"/>
      <point x="601" y="111" type="line"/>
      <point x="562" y="281"/>
      <point x="543" y="418"/>
      <point x="526" y="574" type="curve"/>
      <point x="479" y="574"/>
      <point x="416" y="566"/>
      <point x="367" y="555" type="curve"/>
      <point x="344" y="402"/>
      <point x="314" y="263"/>
      <point x="250" y="73" type="curve"/>
      <point x="280" y="73" type="line"/>
      <point x="221" y="298"/>
      <point x="184" y="485"/>
      <point x="169" y="672" type="curve"/>
      <point x="109" y="670"/>
      <point x="56" y="660"/>
      <point x="3" y="644" type="curve"/>
      <point x="41" y="390"/>
      <point x="94" y="186"/>
      <point x="184" y="-74" type="curve"/>
      <point x="225" y="-73"/>
      <point x="270" y="-66"/>
      <point x="305" y="-55" type="curve"/>
      <point x="360" y="82"/>
      <point x="397" y="212"/>
      <point x="428" y="354" type="curve"/>
      <point x="441" y="229"/>
      <point x="474" y="106"/>
      <point x="509" y="-37" type="curve"/>
      <point x="550" y="-34"/>
      <point x="586" y="-30"/>
    </contour>
  </outline>
</glyph>
<glyph name="asciicircum" format="1">
  <advance width="456"/>
  <unicode hex="005E"/>
  <outline>
    <contour>
      <point x="177" y="488" type="line"/>
      <point x="249" y="390"/>
      <point x="310" y="282"/>
      <point x="364" y="154" type="curve"/>
      <point x="397" y="161"/>
      <point x="419" y="168"/>
      <point x="449" y="183" type="curve"/>
      <point x="404" y="300"/>
      <point x="323" y="450"/>
      <point x="255" y="539" type="curve"/>
      <point x="201" y="540" type="line"/>
      <point x="134" y="454"/>
      <point x="52" y="301"/>
      <point x="7" y="184" type="curve"/>
      <point x="36" y="169"/>
      <point x="59" y="161"/>
      <point x="92" y="155" type="curve"/>
      <point x="146" y="283"/>
      <point x="207" y="395"/>
      <point x="279" y="489" type="curve"/>
    </contour>
  </outline>
</glyph>
<glyph name="j" format="1">
  <advance width="282"/>
  <unicode hex="006A"/>
  <outline>
    <contour>
      <point x="170" y="613" type="curve"/>
      <point x="177" y="654"/>
      <point x="188" y="712"/>
      <point x="199" y="743" type="curve"/>
      <point x="180" y="752"/>
      <point x="152" y="758"/>
      <point x="115" y="758" type="curve" smooth="yes"/>
      <point x="81" y="758"/>
      <point x="53" y="752"/>
      <point x="29" y="739" type="curve"/>
      <point x="23" y="721"/>
      <point x="21" y="700"/>
      <point x="22" y="679" type="curve" smooth="yes"/>
      <point x="22" y="650"/>
      <point x="29" y="622"/>
      <point x="36" y="599" type="curve"/>
      <point x="97" y="598"/>
      <point x="139" y="601"/>
    </contour>
    <contour>
      <point x="-41" y="-195"/>
      <point x="-93" y="-164"/>
      <point x="-130" y="-106" type="curve"/>
      <point x="-110" y="-66"/>
      <point x="-85" y="-37"/>
      <point x="-56" y="-24" type="curve"/>
      <point x="-34" y="-63"/>
      <point x="-13" y="-80"/>
      <point x="13" y="-80" type="curve" smooth="yes"/>
      <point x="61" y="-80"/>
      <point x="85" y="-19"/>
      <point x="85" y="100" type="curve" smooth="yes"/>
      <point x="85" y="235"/>
      <point x="56" y="402"/>
      <point x="21" y="521" type="curve"/>
      <point x="68" y="535"/>
      <point x="138" y="543"/>
      <point x="196" y="538" type="curve"/>
      <point x="215" y="448"/>
      <point x="231" y="336"/>
      <point x="231" y="222" type="curve" smooth="yes"/>
      <point x="231" y="-41"/>
      <point x="162" y="-195"/>
      <point x="26" y="-195" type="curve" smooth="yes"/>
    </contour>
  </outline>
</glyph>
<glyph name="k" format="1">
  <advance width="525"/>
  <unicode hex="006B"/>
  <outline>
    <contour>
      <point x="239" y="717" type="curve"/>
      <point x="203" y="733"/>
      <point x="117" y="743"/>
      <point x="77" y="742" type="curve"/>
      <point x="59" y="630"/>
      <point x="50" y="422"/>
      <point x="50" y="299" type="curve" smooth="yes"/>
      <point x="50" y="140"/>
      <point x="61" y="35"/>
      <point x="74" y="-53" type="curve"/>
      <point x="124" y="-53"/>
      <point x="165" y="-49"/>
      <point x="203" y="-36" type="curve"/>
      <point x="190" y="53"/>
      <point x="187" y="132"/>
      <point x="187" y="209" type="curve" smooth="yes"/>
      <point x="187" y="369"/>
      <point x="212" y="596"/>
    </contour>
    <contour>
      <point x="389" y="577" type="curve"/>
      <point x="295" y="444"/>
      <point x="223" y="350"/>
      <point x="100" y="257" type="curve"/>
      <point x="150" y="189" type="line"/>
      <point x="296" y="290"/>
      <point x="397" y="367"/>
      <point x="489" y="488" type="curve"/>
      <point x="469" y="520"/>
      <point x="428" y="558"/>
    </contour>
    <contour>
      <point x="229" y="340" type="curve"/>
      <point x="158" y="263" type="line"/>
      <point x="236" y="144"/>
      <point x="302" y="66"/>
      <point x="390" y="-7" type="curve"/>
      <point x="441" y="10"/>
      <point x="475" y="50"/>
      <point x="505" y="88" type="curve"/>
      <point x="388" y="165"/>
      <point x="303" y="233"/>
    </contour>
  </outline>
</glyph>
<glyph name="braceright" format="1">
  <advance width="324"/>
  <unicode hex="007D"/>
  <outline>
    <contour>
      <point x="193" y="313" type="curve"/>
      <point x="194" y="334" type="line"/>
      <point x="119" y="333"/>
      <point x="64" y="281"/>
      <point x="63" y="215" type="curve" smooth="yes"/>
      <point x="62" y="114"/>
      <point x="146" y="75"/>
      <point x="145" y="-18" type="curve" smooth="yes"/>
      <point x="145" y="-58"/>
      <point x="126" y="-82"/>
      <point x="86" y="-82" type="curve" smooth="yes"/>
      <point x="72" y="-82"/>
      <point x="60" y="-80"/>
      <point x="46" y="-76" type="curve"/>
      <point x="39" y="-103"/>
      <point x="37" y="-134"/>
      <point x="44" y="-160" type="curve"/>
      <point x="63" y="-165"/>
      <point x="80" y="-167"/>
      <point x="101" y="-167" type="curve" smooth="yes"/>
      <point x="190" y="-168"/>
      <point x="264" y="-109"/>
      <point x="264" y="-23" type="curve" smooth="yes"/>
      <point x="265" y="33"/>
      <point x="252" y="70"/>
      <point x="216" y="122" type="curve" smooth="yes"/>
      <point x="186" y="166"/>
      <point x="174" y="190"/>
      <point x="174" y="218" type="curve" smooth="yes"/>
      <point x="175" y="250"/>
      <point x="197" y="272"/>
      <point x="233" y="272" type="curve" smooth="yes"/>
      <point x="252" y="272"/>
      <point x="266" y="269"/>
      <point x="283" y="265" type="curve"/>
      <point x="292" y="295"/>
      <point x="292" y="344"/>
      <point x="284" y="381" type="curve"/>
      <point x="265" y="376"/>
      <point x="251" y="375"/>
      <point x="235" y="375" type="curve" smooth="yes"/>
      <point x="198" y="375"/>
      <point x="177" y="396"/>
      <point x="177" y="430" type="curve" smooth="yes"/>
      <point x="177" y="459"/>
      <point x="197" y="493"/>
      <point x="226" y="535" type="curve" smooth="yes"/>
      <point x="267" y="594"/>
      <point x="284" y="627"/>
      <point x="285" y="685" type="curve" smooth="yes"/>
      <point x="285" y="767"/>
      <point x="225" y="822"/>
      <point x="130" y="823" type="curve" smooth="yes"/>
      <point x="100" y="823"/>
      <point x="81" y="821"/>
      <point x="63" y="814" type="curve"/>
      <point x="57" y="786"/>
      <point x="59" y="757"/>
      <point x="66" y="731" type="curve"/>
      <point x="78" y="736"/>
      <point x="86" y="737"/>
      <point x="102" y="737" type="curve" smooth="yes"/>
      <point x="136" y="737"/>
      <point x="162" y="710"/>
      <point x="162" y="666" type="curve" smooth="yes"/>
      <point x="161" y="564"/>
      <point x="68" y="536"/>
      <point x="68" y="433" type="curve" smooth="yes"/>
      <point x="67" y="362"/>
      <point x="121" y="316"/>
    </contour>
  </outline>
</glyph>
<glyph name="brokenbar" format="1">
  <advance width="273"/>
  <unicode hex="00A6"/>
  <outline>
    <contour>
      <point x="182" y="377" type="curve"/>
      <point x="185" y="515"/>
      <point x="191" y="642"/>
      <point x="197" y="725" type="curve"/>
      <point x="164" y="734"/>
      <point x="114" y="730"/>
      <point x="74" y="713" type="curve"/>
      <point x="70" y="612"/>
      <point x="71" y="493"/>
      <point x="76" y="371" type="curve"/>
      <point x="111" y="370"/>
      <point x="149" y="371"/>
    </contour>
    <contour>
      <point x="94" y="-168" type="curve"/>
      <point x="120" y="-171"/>
      <point x="158" y="-167"/>
      <point x="182" y="-159" type="curve"/>
      <point x="180" y="-73"/>
      <point x="179" y="69"/>
      <point x="181" y="219" type="curve"/>
      <point x="144" y="224"/>
      <point x="108" y="224"/>
      <point x="79" y="220" type="curve"/>
      <point x="82" y="82"/>
      <point x="86" y="-53"/>
    </contour>
  </outline>
</glyph>
<glyph name="section" format="1">
  <advance width="439"/>
  <unicode hex="00A7"/>
  <outline>
    <contour>
      <point x="288" y="233" type="curve" smooth="yes"/>
      <point x="288" y="186"/>
      <point x="256" y="159"/>
      <point x="203" y="156" type="curve"/>
      <point x="219" y="98" type="line"/>
      <point x="323" y="106"/>
      <point x="407" y="167"/>
      <point x="407" y="260" type="curve" smooth="yes"/>
      <point x="407" y="345"/>
      <point x="351" y="388"/>
      <point x="286" y="427" type="curve" smooth="yes"/>
      <point x="217" y="469"/>
      <point x="188" y="504"/>
      <point x="188" y="546" type="curve" smooth="yes"/>
      <point x="188" y="586"/>
      <point x="210" y="609"/>
      <point x="245" y="609" type="curve" smooth="yes"/>
      <point x="287" y="609"/>
      <point x="309" y="578"/>
      <point x="319" y="513" type="curve"/>
      <point x="362" y="516"/>
      <point x="393" y="522"/>
      <point x="421" y="538" type="curve"/>
      <point x="402" y="626"/>
      <point x="350" y="682"/>
      <point x="242" y="682" type="curve" smooth="yes"/>
      <point x="132" y="682"/>
      <point x="60" y="613"/>
      <point x="60" y="525" type="curve" smooth="yes"/>
      <point x="60" y="439"/>
      <point x="115" y="390"/>
      <point x="183" y="348" type="curve" smooth="yes"/>
      <point x="248" y="308"/>
      <point x="288" y="280"/>
    </contour>
    <contour>
      <point x="154" y="261" type="curve" smooth="yes"/>
      <point x="154" y="308"/>
      <point x="186" y="335"/>
      <point x="240" y="338" type="curve"/>
      <point x="223" y="396" type="line"/>
      <point x="120" y="388"/>
      <point x="36" y="327"/>
      <point x="36" y="234" type="curve" smooth="yes"/>
      <point x="36" y="149"/>
      <point x="101" y="101"/>
      <point x="165" y="62" type="curve" smooth="yes"/>
      <point x="236" y="19"/>
      <point x="267" y="-15"/>
      <point x="267" y="-58" type="curve" smooth="yes"/>
      <point x="267" y="-96"/>
      <point x="245" y="-120"/>
      <point x="212" y="-120" type="curve" smooth="yes"/>
      <point x="171" y="-120"/>
      <point x="137" y="-84"/>
      <point x="122" y="-7" type="curve"/>
      <point x="86" y="-9"/>
      <point x="46" y="-25"/>
      <point x="25" y="-39" type="curve"/>
      <point x="53" y="-145"/>
      <point x="115" y="-192"/>
      <point x="211" y="-192" type="curve" smooth="yes"/>
      <point x="324" y="-192"/>
      <point x="395" y="-122"/>
      <point x="395" y="-37" type="curve" smooth="yes"/>
      <point x="395" y="49"/>
      <point x="338" y="98"/>
      <point x="269" y="141" type="curve" smooth="yes"/>
      <point x="203" y="182"/>
      <point x="154" y="214"/>
    </contour>
  </outline>
</glyph>
<glyph name="ordfeminine" format="1">
  <advance width="315"/>
  <unicode hex="00AA"/>
  <outline>
    <contour>
      <point x="258" y="393" type="curve"/>
      <point x="230" y="393"/>
      <point x="198" y="397"/>
      <point x="171" y="402" type="curve"/>
      <point x="181" y="474"/>
      <point x="186" y="521"/>
      <point x="186" y="571" type="curve" smooth="yes"/>
      <point x="186" y="631"/>
      <point x="183" y="671"/>
      <point x="157" y="671" type="curve" smooth="yes"/>
      <point x="140" y="671"/>
      <point x="123" y="648"/>
      <point x="122" y="606" type="curve"/>
      <point x="79" y="611"/>
      <point x="50" y="624"/>
      <point x="32" y="646" type="curve"/>
      <point x="56" y="697"/>
      <point x="97" y="728"/>
      <point x="166" y="728" type="curve" smooth="yes"/>
      <point x="269" y="728"/>
      <point x="294" y="670"/>
      <point x="294" y="614" type="curve" smooth="yes"/>
      <point x="294" y="556"/>
      <point x="273" y="455"/>
    </contour>
    <contour>
      <point x="198" y="534" type="line"/>
      <point x="144" y="534"/>
      <point x="124" y="520"/>
      <point x="124" y="494" type="curve" smooth="yes"/>
      <point x="124" y="475"/>
      <point x="134" y="466"/>
      <point x="152" y="466" type="curve" smooth="yes"/>
      <point x="170" y="466"/>
      <point x="182" y="472"/>
      <point x="196" y="484" type="curve"/>
      <point x="191" y="436" type="line"/>
      <point x="173" y="424"/>
      <point x="148" y="416"/>
      <point x="116" y="416" type="curve" smooth="yes"/>
      <point x="53" y="416"/>
      <point x="11" y="448"/>
      <point x="11" y="501" type="curve" smooth="yes"/>
      <point x="11" y="550"/>
      <point x="50" y="580"/>
      <point x="144" y="580" type="curve" smooth="yes"/>
      <point x="178" y="580"/>
      <point x="188" y="580"/>
      <point x="198" y="578" type="curve"/>
    </contour>
  </outline>
</glyph>
<glyph name="registered" format="1">
  <advance width="823"/>
  <unicode hex="00AE"/>
  <outline>
    <contour>
      <point x="686" y="135"/>
      <point x="584" y="17"/>
      <point x="413" y="17" type="curve" smooth="yes"/>
      <point x="242" y="17"/>
      <point x="136" y="129"/>
      <point x="136" y="312" type="curve" smooth="yes"/>
      <point x="136" y="490"/>
      <point x="260" y="620"/>
      <point x="423" y="620" type="curve" smooth="yes"/>
      <point x="591" y="620"/>
      <point x="686" y="506"/>
      <point x="686" y="330" type="curve" smooth="yes"/>
    </contour>
    <contour>
      <point x="658" y="-66"/>
      <point x="791" y="95"/>
      <point x="791" y="328" type="curve" smooth="yes"/>
      <point x="791" y="524"/>
      <point x="674" y="704"/>
      <point x="435" y="704" type="curve" smooth="yes"/>
      <point x="201" y="704"/>
      <point x="32" y="531"/>
      <point x="32" y="305" type="curve" smooth="yes"/>
      <point x="32" y="75"/>
      <point x="181" y="-66"/>
      <point x="405" y="-66" type="curve" smooth="yes"/>
    </contour>
    <contour>
      <point x="373" y="116" type="curve"/>
      <point x="381" y="191"/>
      <point x="384" y="267"/>
      <point x="384" y="340" type="curve" smooth="yes"/>
      <point x="384" y="394"/>
      <point x="382" y="447"/>
      <point x="380" y="498" type="curve"/>
      <point x="347" y="506"/>
      <point x="299" y="509"/>
      <point x="257" y="502" type="curve"/>
      <point x="269" y="397"/>
      <point x="277" y="295"/>
      <point x="277" y="188" type="curve" smooth="yes"/>
      <point x="277" y="167"/>
      <point x="276" y="145"/>
      <point x="276" y="123" type="curve"/>
      <point x="305" y="118"/>
      <point x="343" y="115"/>
    </contour>
    <contour>
      <point x="364" y="265" type="line"/>
      <point x="481" y="294"/>
      <point x="568" y="353"/>
      <point x="568" y="431" type="curve" smooth="yes"/>
      <point x="568" y="498"/>
      <point x="511" y="550"/>
      <point x="409" y="550" type="curve" smooth="yes"/>
      <point x="350" y="550"/>
      <point x="294" y="529"/>
      <point x="257" y="502" type="curve"/>
      <point x="263" y="477"/>
      <point x="274" y="457"/>
      <point x="283" y="429" type="curve"/>
      <point x="317" y="460"/>
      <point x="359" y="488"/>
      <point x="399" y="488" type="curve" smooth="yes"/>
      <point x="435" y="488"/>
      <point x="455" y="461"/>
      <point x="455" y="421" type="curve" smooth="yes"/>
      <point x="455" y="368"/>
      <point x="424" y="333"/>
      <point x="361" y="325" type="curve"/>
    </contour>
    <contour>
      <point x="595" y="143" type="curve"/>
      <point x="559" y="215"/>
      <point x="517" y="283"/>
      <point x="458" y="339" type="curve"/>
      <point x="381" y="296" type="line"/>
      <point x="430" y="233"/>
      <point x="457" y="170"/>
      <point x="492" y="89" type="curve"/>
      <point x="537" y="102"/>
      <point x="571" y="120"/>
    </contour>
  </outline>
</glyph>
<glyph name="twosuperior" format="1">
  <advance width="348"/>
  <unicode hex="00B2"/>
  <outline>
    <contour>
      <point x="337" y="581" type="curve" smooth="yes"/>
      <point x="337" y="656"/>
      <point x="276" y="707"/>
      <point x="186" y="707" type="curve" smooth="yes"/>
      <point x="99" y="707"/>
      <point x="40" y="667"/>
      <point x="15" y="576" type="curve"/>
      <point x="47" y="561"/>
      <point x="83" y="556"/>
      <point x="127" y="556" type="curve"/>
      <point x="140" y="620"/>
      <point x="155" y="643"/>
      <point x="180" y="643" type="curve" smooth="yes"/>
      <point x="201" y="643"/>
      <point x="213" y="624"/>
      <point x="213" y="595" type="curve" smooth="yes"/>
      <point x="213" y="529"/>
      <point x="155" y="463"/>
      <point x="13" y="373" type="curve"/>
      <point x="6" y="353"/>
      <point x="4" y="339"/>
      <point x="5" y="315" type="curve"/>
      <point x="77" y="293"/>
      <point x="205" y="278"/>
      <point x="303" y="277" type="curve"/>
      <point x="315" y="304"/>
      <point x="321" y="337"/>
      <point x="322" y="373" type="curve"/>
      <point x="263" y="369"/>
      <point x="209" y="371"/>
      <point x="122" y="372" type="curve"/>
      <point x="128" y="351" type="line"/>
      <point x="271" y="425"/>
      <point x="337" y="508"/>
    </contour>
  </outline>
</glyph>
<glyph name="divide" format="1">
  <advance width="445"/>
  <unicode hex="00F7"/>
  <outline>
    <contour>
      <point x="36" y="375" type="curve"/>
      <point x="31" y="342"/>
      <point x="29" y="316"/>
      <point x="29" y="282" type="curve"/>
      <point x="137" y="266"/>
      <point x="285" y="264"/>
      <point x="402" y="282" type="curve"/>
      <point x="411" y="311"/>
      <point x="415" y="342"/>
      <point x="415" y="374" type="curve"/>
      <point x="275" y="360"/>
      <point x="155" y="360"/>
    </contour>
    <contour>
      <point x="307" y="418" type="curve"/>
      <point x="314" y="463"/>
      <point x="317" y="503"/>
      <point x="319" y="549" type="curve"/>
      <point x="255" y="559"/>
      <point x="204" y="552"/>
      <point x="167" y="544" type="curve"/>
      <point x="167" y="498"/>
      <point x="169" y="468"/>
      <point x="173" y="418" type="curve"/>
      <point x="216" y="413"/>
      <point x="255" y="412"/>
    </contour>
    <contour>
      <point x="300" y="86" type="curve"/>
      <point x="308" y="131"/>
      <point x="311" y="171"/>
      <point x="312" y="217" type="curve"/>
      <point x="249" y="227"/>
      <point x="197" y="220"/>
      <point x="160" y="212" type="curve"/>
      <point x="160" y="166"/>
      <point x="162" y="136"/>
      <point x="166" y="86" type="curve"/>
      <point x="209" y="81"/>
      <point x="248" y="80"/>
    </contour>
  </outline>
</glyph>
<glyph name="Eogonek" format="1">
  <advance width="572"/>
  <unicode hex="0118"/>
  <outline>
    <contour>
      <point x="538" y="-11" type="curve"/>
      <point x="539" y="24"/>
      <point x="533" y="81"/>
      <point x="525" y="106" type="curve"/>
      <point x="449" y="91"/>
      <point x="318" y="76"/>
      <point x="254" y="74" type="curve"/>
      <point x="242" y="169"/>
      <point x="236" y="267"/>
      <point x="233" y="352" type="curve" smooth="yes"/>
      <point x="228" y="484"/>
      <point x="232" y="598"/>
      <point x="240" y="678" type="curve"/>
      <point x="61" y="685" type="line"/>
      <point x="64" y="482"/>
      <point x="97" y="168"/>
      <point x="129" y="-42" type="curve"/>
      <point x="264" y="-41"/>
      <point x="466" y="-25"/>
    </contour>
    <contour>
      <point x="470" y="320" type="curve"/>
      <point x="470" y="367"/>
      <point x="467" y="403"/>
      <point x="458" y="439" type="curve"/>
      <point x="362" y="436"/>
      <point x="282" y="421"/>
      <point x="195" y="398" type="curve"/>
      <point x="202" y="296" type="line"/>
      <point x="291" y="310"/>
      <point x="371" y="317"/>
    </contour>
    <contour>
      <point x="500" y="611" type="curve"/>
      <point x="507" y="644"/>
      <point x="514" y="688"/>
      <point x="514" y="735" type="curve"/>
      <point x="345" y="733"/>
      <point x="211" y="713"/>
      <point x="61" y="685" type="curve"/>
      <point x="88" y="579" type="line"/>
      <point x="220" y="600"/>
      <point x="357" y="610"/>
    </contour>
    <contour>
      <point x="538" y="-11" type="curve"/>
      <point x="501" y="4" type="line"/>
      <point x="425" y="-39"/>
      <point x="383" y="-83"/>
      <point x="383" y="-140" type="curve" smooth="yes"/>
      <point x="383" y="-190"/>
      <point x="419" y="-220"/>
      <point x="477" y="-220" type="curve" smooth="yes"/>
      <point x="528" y="-220"/>
      <point x="567" y="-197"/>
      <point x="593" y="-161" type="curve"/>
      <point x="586" y="-142"/>
      <point x="575" y="-122"/>
      <point x="561" y="-111" type="curve"/>
      <point x="543" y="-140"/>
      <point x="525" y="-152"/>
      <point x="504" y="-152" type="curve" smooth="yes"/>
      <point x="484" y="-152"/>
      <point x="474" y="-138"/>
      <point x="474" y="-117" type="curve" smooth="yes"/>
      <point x="474" y="-82"/>
      <point x="495" y="-44"/>
    </contour>
  </outline>
</glyph>
<glyph name="iogonek" format="1">
  <advance width="263"/>
  <unicode hex="012F"/>
  <outline>
    <contour>
      <point x="180" y="5" type="curve"/>
      <point x="180" y="219"/>
      <point x="201" y="420"/>
      <point x="227" y="520" type="curve"/>
      <point x="208" y="524"/>
      <point x="189" y="526"/>
      <point x="170" y="526" type="curve" smooth="yes"/>
      <point x="131" y="526"/>
      <point x="95" y="518"/>
      <point x="66" y="501" type="curve"/>
      <point x="39" y="359"/>
      <point x="36" y="173"/>
      <point x="57" y="-8" type="curve"/>
      <point x="66" y="-10"/>
      <point x="78" y="-11"/>
      <point x="92" y="-11" type="curve" smooth="yes"/>
      <point x="121" y="-11"/>
      <point x="157" y="-6"/>
    </contour>
    <contour>
      <point x="220" y="609" type="curve"/>
      <point x="228" y="649"/>
      <point x="244" y="705"/>
      <point x="257" y="734" type="curve"/>
      <point x="240" y="743"/>
      <point x="214" y="749"/>
      <point x="180" y="750" type="curve" smooth="yes"/>
      <point x="145" y="750"/>
      <point x="119" y="744"/>
      <point x="95" y="732" type="curve"/>
      <point x="87" y="712"/>
      <point x="84" y="687"/>
      <point x="84" y="667" type="curve" smooth="yes"/>
      <point x="84" y="644"/>
      <point x="88" y="622"/>
      <point x="94" y="603" type="curve"/>
      <point x="150" y="602"/>
      <point x="190" y="605"/>
    </contour>
    <contour>
      <point x="156" y="-2" type="curve"/>
      <point x="119" y="13" type="line"/>
      <point x="43" y="-31"/>
      <point x="1" y="-74"/>
      <point x="1" y="-134" type="curve" smooth="yes"/>
      <point x="1" y="-181"/>
      <point x="40" y="-211"/>
      <point x="97" y="-211" type="curve" smooth="yes"/>
      <point x="148" y="-211"/>
      <point x="185" y="-188"/>
      <point x="211" y="-152" type="curve"/>
      <point x="203" y="-133"/>
      <point x="193" y="-114"/>
      <point x="178" y="-102" type="curve"/>
      <point x="161" y="-131"/>
      <point x="143" y="-143"/>
      <point x="121" y="-143" type="curve" smooth="yes"/>
      <point x="102" y="-143"/>
      <point x="91" y="-130"/>
      <point x="91" y="-108" type="curve" smooth="yes"/>
      <point x="91" y="-73"/>
      <point x="113" y="-35"/>
    </contour>
  </outline>
</glyph>
<glyph name="dotlessi" format="1">
  <advance width="263"/>
  <unicode hex="0131"/>
  <outline>
    <contour>
      <point x="208" y="524"/>
      <point x="189" y="526"/>
      <point x="170" y="526" type="curve" smooth="yes"/>
      <point x="131" y="526"/>
      <point x="95" y="518"/>
      <point x="66" y="501" type="curve"/>
      <point x="41" y="368"/>
      <point x="37" y="134"/>
      <point x="57" y="-8" type="curve"/>
      <point x="66" y="-10"/>
      <point x="78" y="-11"/>
      <point x="92" y="-11" type="curve" smooth="yes"/>
      <point x="121" y="-11"/>
      <point x="157" y="-6"/>
      <point x="180" y="5" type="curve"/>
      <point x="180" y="219"/>
      <point x="201" y="420"/>
      <point x="227" y="520" type="curve"/>
    </contour>
  </outline>
</glyph>
<glyph name="Uogonek" format="1">
  <advance width="580"/>
  <unicode hex="0172"/>
  <outline>
    <contour>
      <point x="361" y="-63" type="curve" smooth="yes"/>
      <point x="302" y="-93"/>
      <point x="268" y="-141"/>
      <point x="268" y="-179" type="curve" smooth="yes"/>
      <point x="268" y="-203"/>
      <point x="280" y="-218"/>
      <point x="299" y="-218" type="curve" smooth="yes"/>
      <point x="320" y="-218"/>
      <point x="338" y="-205"/>
      <point x="356" y="-176" type="curve"/>
      <point x="370" y="-188"/>
      <point x="380" y="-207"/>
      <point x="388" y="-226" type="curve"/>
      <point x="362" y="-263"/>
      <point x="324" y="-284"/>
      <point x="275" y="-284" type="curve" smooth="yes"/>
      <point x="218" y="-284"/>
      <point x="178" y="-255"/>
      <point x="178" y="-200" type="curve" smooth="yes"/>
      <point x="178" y="-150"/>
      <point x="216" y="-98"/>
      <point x="290" y="-53" type="curve"/>
      <point x="299" y="-76" type="line" smooth="yes"/>
      <point x="297" y="-80"/>
      <point x="272" y="-80"/>
      <point x="258" y="-80" type="curve" smooth="yes"/>
      <point x="102" y="-80"/>
      <point x="43" y="61"/>
      <point x="43" y="268" type="curve" smooth="yes"/>
      <point x="43" y="419"/>
      <point x="75" y="575"/>
      <point x="96" y="624" type="curve"/>
      <point x="114" y="629"/>
      <point x="145" y="634"/>
      <point x="173" y="634" type="curve" smooth="yes"/>
      <point x="205" y="634"/>
      <point x="226" y="629"/>
      <point x="238" y="623" type="curve"/>
      <point x="217" y="519"/>
      <point x="204" y="405"/>
      <point x="204" y="300" type="curve" smooth="yes"/>
      <point x="204" y="121"/>
      <point x="228" y="21"/>
      <point x="282" y="21" type="curve" smooth="yes"/>
      <point x="353" y="21"/>
      <point x="382" y="169"/>
      <point x="382" y="338" type="curve" smooth="yes"/>
      <point x="382" y="483"/>
      <point x="356" y="608"/>
      <point x="338" y="681" type="curve"/>
      <point x="383" y="699"/>
      <point x="451" y="708"/>
      <point x="497" y="709" type="curve"/>
      <point x="517" y="622"/>
      <point x="539" y="512"/>
      <point x="539" y="394" type="curve" smooth="yes"/>
      <point x="539" y="154"/>
      <point x="488" y="0"/>
    </contour>
  </outline>
</glyph>
<glyph name="uogonek" format="1">
  <advance width="491"/>
  <unicode hex="0173"/>
  <outline>
    <contour>
      <point x="324" y="14" type="curve" smooth="yes"/>
      <point x="426" y="71"/>
      <point x="458" y="215"/>
      <point x="458" y="372" type="curve" smooth="yes"/>
      <point x="458" y="421"/>
      <point x="454" y="470"/>
      <point x="448" y="502" type="curve"/>
      <point x="405" y="502"/>
      <point x="340" y="494"/>
      <point x="296" y="475" type="curve"/>
      <point x="300" y="458"/>
      <point x="308" y="391"/>
      <point x="308" y="321" type="curve" smooth="yes"/>
      <point x="308" y="207"/>
      <point x="293" y="83"/>
      <point x="244" y="83" type="curve" smooth="yes"/>
      <point x="202" y="83"/>
      <point x="185" y="183"/>
      <point x="185" y="289" type="curve" smooth="yes"/>
      <point x="185" y="373"/>
      <point x="194" y="452"/>
      <point x="209" y="518" type="curve"/>
      <point x="197" y="525"/>
      <point x="176" y="529"/>
      <point x="145" y="529" type="curve" smooth="yes"/>
      <point x="118" y="529"/>
      <point x="92" y="524"/>
      <point x="77" y="520" type="curve"/>
      <point x="59" y="487"/>
      <point x="33" y="374"/>
      <point x="33" y="267" type="curve" smooth="yes"/>
      <point x="33" y="129"/>
      <point x="73" y="-10"/>
      <point x="221" y="-10" type="curve" smooth="yes"/>
      <point x="245" y="-10"/>
      <point x="263" y="-6"/>
      <point x="274" y="-1" type="curve"/>
      <point x="254" y="18" type="line"/>
      <point x="178" y="-27"/>
      <point x="140" y="-82"/>
      <point x="140" y="-129" type="curve" smooth="yes"/>
      <point x="140" y="-184"/>
      <point x="180" y="-212"/>
      <point x="237" y="-212" type="curve" smooth="yes"/>
      <point x="286" y="-212"/>
      <point x="324" y="-190"/>
      <point x="350" y="-153" type="curve"/>
      <point x="342" y="-134"/>
      <point x="332" y="-115"/>
      <point x="317" y="-104" type="curve"/>
      <point x="300" y="-133"/>
      <point x="282" y="-145"/>
      <point x="260" y="-145" type="curve" smooth="yes"/>
      <point x="242" y="-145"/>
      <point x="230" y="-130"/>
      <point x="230" y="-109" type="curve" smooth="yes"/>
      <point x="230" y="-72"/>
      <point x="259" y="-23"/>
    </contour>
  </outline>
</glyph>
<glyph name="tilde" format="1">
  <advance width="260"/>
  <unicode hex="02DC"/>
  <outline>
    <contour>
      <point x="172" y="700" type="curve" smooth="yes"/>
      <point x="137" y="700"/>
      <point x="112" y="732"/>
      <point x="71" y="732" type="curve" smooth="yes"/>
      <point x="20" y="732"/>
      <point x="-5" y="690"/>
      <point x="0" y="624" type="curve"/>
      <point x="17" y="618"/>
      <point x="42" y="615"/>
      <point x="58" y="616" type="curve"/>
      <point x="57" y="642"/>
      <point x="67" y="653"/>
      <point x="86" y="653" type="curve" smooth="yes"/>
      <point x="117" y="653"/>
      <point x="141" y="621"/>
      <point x="187" y="621" type="curve" smooth="yes"/>
      <point x="236" y="621"/>
      <point x="265" y="661"/>
      <point x="259" y="729" type="curve"/>
      <point x="244" y="736"/>
      <point x="224" y="740"/>
      <point x="200" y="738" type="curve"/>
      <point x="202" y="710"/>
      <point x="191" y="700"/>
    </contour>
    <contour>
      <point x="130" y="560" type="move" name="_top"/>
    </contour>
  </outline>
</glyph>
<glyph name="bn_chandrabindu" format="1">
  <advance width="0"/>
  <unicode hex="0981"/>
  <outline>
    <contour>
      <point x="77" y="678"/>
      <point x="145" y="743"/>
      <point x="160" y="832" type="curve"/>
      <point x="100" y="852" type="line"/>
      <point x="87" y="806"/>
      <point x="55" y="772"/>
      <point x="8" y="772" type="curve" smooth="yes"/>
      <point x="-31" y="772"/>
      <point x="-66" y="800"/>
      <point x="-75" y="834" type="curve"/>
      <point x="-161" y="810" type="line"/>
      <point x="-153" y="737"/>
      <point x="-91" y="678"/>
      <point x="-7" y="678" type="curve" smooth="yes"/>
    </contour>
    <contour>
      <point x="38" y="820"/>
      <point x="62" y="845"/>
      <point x="62" y="875" type="curve" smooth="yes"/>
      <point x="62" y="907"/>
      <point x="39" y="934"/>
      <point x="6" y="934" type="curve" smooth="yes"/>
      <point x="-24" y="934"/>
      <point x="-48" y="909"/>
      <point x="-48" y="877" type="curve" smooth="yes"/>
      <point x="-48" y="847"/>
      <point x="-25" y="820"/>
      <point x="7" y="820" type="curve" smooth="yes"/>
    </contour>
    <contour>
      <point x="0" y="665" type="move" name="_chandrabindu"/>
    </contour>
  </outline>
</glyph>
<glyph name="bn_jha" format="1">
  <advance width="678"/>
  <unicode hex="099D"/>
  <outline>
    <contour>
      <point x="342" y="-29"/>
      <point x="389" y="-25"/>
      <point x="421" y="-9" type="curve"/>
      <point x="411" y="38"/>
      <point x="406" y="102"/>
      <point x="406" y="172" type="curve" smooth="yes"/>
      <point x="406" y="395"/>
      <point x="438" y="562"/>
      <point x="438" y="583" type="curve" smooth="yes"/>
      <point x="438" y="614"/>
      <point x="421" y="634"/>
      <point x="391" y="640" type="curve" smooth="yes"/>
      <point x="359" y="646"/>
      <point x="311" y="651"/>
      <point x="268" y="651" type="curve" smooth="yes"/>
      <point x="170" y="651"/>
      <point x="57" y="636"/>
      <point x="0" y="618" type="curve"/>
      <point x="-4" y="607"/>
      <point x="-6" y="591"/>
      <point x="-6" y="575" type="curve" smooth="yes"/>
      <point x="-6" y="552"/>
      <point x="-3" y="528"/>
      <point x="0" y="514" type="curve"/>
      <point x="62" y="529"/>
      <point x="168" y="543"/>
      <point x="268" y="543" type="curve" smooth="yes"/>
      <point x="308" y="543"/>
      <point x="351" y="539"/>
      <point x="389" y="534" type="curve"/>
      <point x="356" y="566" type="line"/>
      <point x="312" y="399"/>
      <point x="289" y="215"/>
      <point x="289" y="80" type="curve" smooth="yes"/>
      <point x="289" y="15"/>
      <point x="291" y="-9"/>
      <point x="294" y="-29" type="curve"/>
    </contour>
    <contour>
      <point x="318" y="23" type="line"/>
      <point x="286" y="139"/>
      <point x="203" y="222"/>
      <point x="119" y="271" type="curve"/>
      <point x="109" y="225" type="line"/>
      <point x="178" y="293"/>
      <point x="287" y="358"/>
      <point x="365" y="382" type="curve"/>
      <point x="351" y="515" type="line"/>
      <point x="212" y="469"/>
      <point x="97" y="397"/>
      <point x="23" y="322" type="curve"/>
      <point x="24" y="272"/>
      <point x="37" y="230"/>
      <point x="67" y="182" type="curve"/>
      <point x="160" y="156"/>
      <point x="238" y="90"/>
      <point x="294" y="-29" type="curve"/>
    </contour>
    <contour>
      <point x="550" y="64" type="line"/>
      <point x="518" y="153"/>
      <point x="454" y="224"/>
      <point x="386" y="269" type="curve"/>
      <point x="363" y="180" type="line"/>
      <point x="427" y="150"/>
      <point x="483" y="98"/>
      <point x="531" y="14" type="curve"/>
    </contour>
    <contour>
      <point x="571" y="12"/>
      <point x="624" y="21"/>
      <point x="652" y="36" type="curve"/>
      <point x="618" y="131"/>
      <point x="597" y="256"/>
      <point x="597" y="379" type="curve" smooth="yes"/>
      <point x="597" y="399"/>
      <point x="597" y="428"/>
      <point x="597" y="455" type="curve" smooth="yes"/>
      <point x="597" y="474"/>
      <point x="604" y="488"/>
      <point x="623" y="496" type="curve" smooth="yes"/>
      <point x="640" y="503"/>
      <point x="658" y="509"/>
      <point x="678" y="514" type="curve"/>
      <point x="683" y="528"/>
      <point x="687" y="550"/>
      <point x="687" y="570" type="curve" smooth="yes"/>
      <point x="687" y="590"/>
      <point x="684" y="608"/>
      <point x="678" y="618" type="curve"/>
      <point x="634" y="610"/>
      <point x="599" y="599"/>
      <point x="566" y="586" type="curve" smooth="yes"/>
      <point x="535" y="575"/>
      <point x="512" y="545"/>
      <point x="510" y="509" type="curve" smooth="yes"/>
      <point x="505" y="450"/>
      <point x="501" y="374"/>
      <point x="501" y="308" type="curve" smooth="yes"/>
      <point x="501" y="209"/>
      <point x="511" y="87"/>
      <point x="531" y="14" type="curve"/>
    </contour>
    <contour>
      <point x="343" y="-2" type="move" name="blwm"/>
    </contour>
    <contour>
      <point x="90" y="0" type="move" name="nukt"/>
    </contour>
    <contour>
      <point x="419" y="690" type="move" name="reph"/>
    </contour>
    <contour>
      <point x="419" y="690" type="move" name="chandrabindu"/>
    </contour>
    <contour>
      <point x="234" y="0" type="move" name="haln"/>
    </contour>
  </outline>
</glyph>
<glyph name="bn_da" format="1">
  <advance width="515"/>
  <unicode hex="09A6"/>
  <outline>
    <contour>
      <point x="386" y="-28"/>
      <point x="436" y="-17"/>
      <point x="459" y="-3" type="curve"/>
      <point x="447" y="57"/>
      <point x="441" y="114"/>
      <point x="441" y="168" type="curve" smooth="yes"/>
      <point x="441" y="249"/>
      <point x="454" y="323"/>
      <point x="475" y="393" type="curve"/>
      <point x="442" y="437"/>
      <point x="409" y="466"/>
      <point x="363" y="485" type="curve"/>
      <point x="261" y="423"/>
      <point x="160" y="322"/>
      <point x="64" y="170" type="curve"/>
      <point x="169" y="217" type="line"/>
      <point x="186" y="309"/>
      <point x="195" y="416"/>
      <point x="195" y="506" type="curve" smooth="yes"/>
      <point x="195" y="525"/>
      <point x="195" y="545"/>
      <point x="194" y="563" type="curve"/>
      <point x="106" y="552" type="line"/>
      <point x="103" y="428"/>
      <point x="78" y="281"/>
      <point x="38" y="153" type="curve"/>
      <point x="65" y="132"/>
      <point x="121" y="114"/>
      <point x="163" y="109" type="curve"/>
      <point x="220" y="206"/>
      <point x="323" y="315"/>
      <point x="423" y="376" type="curve"/>
      <point x="382" y="381" type="line"/>
      <point x="357" y="309"/>
      <point x="342" y="218"/>
      <point x="342" y="127" type="curve" smooth="yes"/>
      <point x="342" y="74"/>
      <point x="347" y="20"/>
      <point x="358" y="-29" type="curve"/>
    </contour>
    <contour>
      <point x="64" y="528"/>
      <point x="161" y="541"/>
      <point x="272" y="541" type="curve" smooth="yes"/>
      <point x="359" y="541"/>
      <point x="464" y="528"/>
      <point x="515" y="514" type="curve"/>
      <point x="519" y="528"/>
      <point x="522" y="552"/>
      <point x="522" y="575" type="curve" smooth="yes"/>
      <point x="522" y="591"/>
      <point x="519" y="607"/>
      <point x="515" y="618" type="curve"/>
      <point x="468" y="635"/>
      <point x="362" y="649"/>
      <point x="276" y="649" type="curve" smooth="yes"/>
      <point x="164" y="649"/>
      <point x="63" y="635"/>
      <point x="0" y="618" type="curve"/>
      <point x="-6" y="608"/>
      <point x="-8" y="592"/>
      <point x="-8" y="574" type="curve" smooth="yes"/>
      <point x="-8" y="553"/>
      <point x="-4" y="529"/>
      <point x="0" y="514" type="curve"/>
    </contour>
    <contour>
      <point x="397" y="0" type="move" name="blwm"/>
    </contour>
    <contour>
      <point x="178" y="0" type="move" name="nukt"/>
    </contour>
    <contour>
      <point x="276" y="690" type="move" name="reph"/>
    </contour>
    <contour>
      <point x="270" y="690" type="move" name="chandrabindu"/>
    </contour>
    <contour>
      <point x="243" y="0" type="move" name="haln"/>
    </contour>
  </outline>
</glyph>
<glyph name="bn_sa" format="1">
  <advance width="556"/>
  <unicode hex="09B8"/>
  <outline>
    <contour>
      <point x="227" y="75"/>
      <point x="248" y="287"/>
      <point x="317" y="287" type="curve" smooth="yes"/>
      <point x="347" y="287"/>
      <point x="360" y="261"/>
      <point x="360" y="233" type="curve"/>
      <point x="386" y="320" type="line"/>
      <point x="368" y="350"/>
      <point x="337" y="390"/>
      <point x="287" y="390" type="curve" smooth="yes"/>
      <point x="150" y="390"/>
      <point x="119" y="202"/>
      <point x="65" y="202" type="curve" smooth="yes"/>
      <point x="47" y="202"/>
      <point x="30" y="207"/>
      <point x="15" y="221" type="curve"/>
      <point x="15" y="171"/>
      <point x="23" y="127"/>
      <point x="42" y="90" type="curve"/>
      <point x="66" y="79"/>
      <point x="91" y="75"/>
      <point x="108" y="75" type="curve" smooth="yes"/>
    </contour>
    <contour>
      <point x="230" y="339" type="line"/>
      <point x="238" y="354"/>
      <point x="245" y="375"/>
      <point x="245" y="398" type="curve" smooth="yes"/>
      <point x="245" y="451"/>
      <point x="175" y="493"/>
      <point x="175" y="542" type="curve"/>
      <point x="26" y="538" type="line"/>
      <point x="26" y="471"/>
      <point x="164" y="456"/>
      <point x="164" y="366" type="curve" smooth="yes"/>
      <point x="164" y="326"/>
      <point x="138" y="286"/>
      <point x="113" y="245" type="curve"/>
    </contour>
    <contour>
      <point x="404" y="-26"/>
      <point x="457" y="-24"/>
      <point x="492" y="-15" type="curve"/>
      <point x="477" y="62"/>
      <point x="471" y="179"/>
      <point x="471" y="298" type="curve" smooth="yes"/>
      <point x="471" y="386"/>
      <point x="473" y="466"/>
      <point x="479" y="547" type="curve"/>
      <point x="383" y="564" type="line"/>
      <point x="365" y="413"/>
      <point x="359" y="306"/>
      <point x="359" y="143" type="curve" smooth="yes"/>
      <point x="359" y="65"/>
      <point x="360" y="14"/>
      <point x="362" y="-26" type="curve"/>
    </contour>
    <contour>
      <point x="65" y="529"/>
      <point x="167" y="542"/>
      <point x="279" y="542" type="curve" smooth="yes"/>
      <point x="371" y="542"/>
      <point x="501" y="529"/>
      <point x="557" y="514" type="curve"/>
      <point x="561" y="529"/>
      <point x="563" y="550"/>
      <point x="563" y="571" type="curve" smooth="yes"/>
      <point x="563" y="589"/>
      <point x="562" y="605"/>
      <point x="557" y="618" type="curve"/>
      <point x="506" y="636"/>
      <point x="375" y="650"/>
      <point x="282" y="650" type="curve" smooth="yes"/>
      <point x="169" y="650"/>
      <point x="64" y="636"/>
      <point x="0" y="618" type="curve"/>
      <point x="-5" y="608"/>
      <point x="-8" y="591"/>
      <point x="-8" y="574" type="curve" smooth="yes"/>
      <point x="-8" y="552"/>
      <point x="-4" y="530"/>
      <point x="0" y="514" type="curve"/>
    </contour>
    <contour>
      <point x="408" y="-6" type="move" name="blwm"/>
    </contour>
    <contour>
      <point x="227" y="0" type="move" name="nukt"/>
    </contour>
    <contour>
      <point x="445" y="690" type="move" name="reph"/>
    </contour>
    <contour>
      <point x="445" y="690" type="move" name="chandrabindu"/>
    </contour>
    <contour>
      <point x="312" y="0" type="move" name="haln"/>
    </contour>
  </outline>
</glyph>
<glyph name="bn_seven" format="1">
  <advance width="550"/>
  <unicode hex="09ED"/>
  <outline>
    <contour>
      <point x="464" y="-19"/>
      <point x="498" y="4"/>
      <point x="529" y="31" type="curve"/>
      <point x="458" y="60"/>
      <point x="449" y="82"/>
      <point x="449" y="129" type="curve" smooth="yes"/>
      <point x="449" y="219"/>
      <point x="471" y="370"/>
      <point x="471" y="420" type="curve" smooth="yes"/>
      <point x="471" y="509"/>
      <point x="407" y="592"/>
      <point x="294" y="592" type="curve" smooth="yes"/>
      <point x="152" y="592"/>
      <point x="34" y="463"/>
      <point x="34" y="358" type="curve" smooth="yes"/>
      <point x="34" y="271"/>
      <point x="115" y="200"/>
      <point x="216" y="200" type="curve" smooth="yes"/>
      <point x="276" y="200"/>
      <point x="363" y="207"/>
      <point x="407" y="214" type="curve"/>
      <point x="392" y="321" type="line"/>
      <point x="346" y="299"/>
      <point x="269" y="282"/>
      <point x="215" y="282" type="curve" smooth="yes"/>
      <point x="174" y="282"/>
      <point x="144" y="292"/>
      <point x="144" y="333" type="curve" smooth="yes"/>
      <point x="144" y="398"/>
      <point x="221" y="480"/>
      <point x="311" y="480" type="curve" smooth="yes"/>
      <point x="362" y="480"/>
      <point x="381" y="454"/>
      <point x="381" y="418" type="curve" smooth="yes"/>
      <point x="381" y="360"/>
      <point x="325" y="192"/>
      <point x="325" y="77" type="curve" smooth="yes"/>
      <point x="325" y="11"/>
      <point x="348" y="-13"/>
      <point x="425" y="-39" type="curve"/>
    </contour>
  </outline>
</glyph>
<glyph name="bn_nine" format="1">
  <advance width="550"/>
  <unicode hex="09EF"/>
  <outline>
    <contour>
      <point x="127" y="576"/>
      <point x="90" y="550"/>
      <point x="55" y="518" type="curve"/>
      <point x="88" y="451"/>
      <point x="153" y="439"/>
      <point x="251" y="422" type="curve" smooth="yes"/>
      <point x="359" y="400"/>
      <point x="424" y="389"/>
      <point x="424" y="310" type="curve" smooth="yes"/>
      <point x="424" y="243"/>
      <point x="382" y="141"/>
      <point x="329" y="67" type="curve"/>
      <point x="316" y="-12" type="line"/>
      <point x="346" y="-24"/>
      <point x="382" y="-30"/>
      <point x="416" y="-30" type="curve"/>
      <point x="467" y="73"/>
      <point x="503" y="200"/>
      <point x="503" y="304" type="curve" smooth="yes"/>
      <point x="503" y="431"/>
      <point x="450" y="498"/>
      <point x="315" y="519" type="curve" smooth="yes"/>
      <point x="206" y="538"/>
      <point x="180" y="543"/>
      <point x="166" y="596" type="curve"/>
    </contour>
    <contour>
      <point x="214" y="-29"/>
      <point x="246" y="-9"/>
      <point x="265" y="18" type="curve"/>
      <point x="261" y="56"/>
      <point x="243" y="111"/>
      <point x="224" y="148" type="curve"/>
      <point x="208" y="116"/>
      <point x="189" y="96"/>
      <point x="161" y="96" type="curve" smooth="yes"/>
      <point x="139" y="96"/>
      <point x="115" y="111"/>
      <point x="115" y="151" type="curve" smooth="yes"/>
      <point x="115" y="195"/>
      <point x="141" y="224"/>
      <point x="184" y="224" type="curve" smooth="yes"/>
      <point x="251" y="224"/>
      <point x="318" y="161"/>
      <point x="316" y="-12" type="curve"/>
      <point x="378" y="73" type="line"/>
      <point x="380" y="244"/>
      <point x="308" y="356"/>
      <point x="193" y="356" type="curve" smooth="yes"/>
      <point x="99" y="356"/>
      <point x="40" y="275"/>
      <point x="40" y="166" type="curve" smooth="yes"/>
      <point x="40" y="56"/>
      <point x="101" y="-29"/>
      <point x="177" y="-29" type="curve" smooth="yes"/>
    </contour>
  </outline>
</glyph>
<glyph name="endash" format="1">
  <advance width="484"/>
  <unicode hex="2013"/>
  <outline>
    <contour>
      <point x="32" y="302"/>
      <point x="29" y="272"/>
      <point x="26" y="238" type="curve"/>
      <point x="121" y="213"/>
      <point x="310" y="208"/>
      <point x="444" y="230" type="curve"/>
      <point x="453" y="261"/>
      <point x="457" y="295"/>
      <point x="457" y="327" type="curve"/>
      <point x="411" y="322"/>
      <point x="351" y="319"/>
      <point x="283" y="319" type="curve" smooth="yes"/>
      <point x="235" y="319"/>
      <point x="105" y="325"/>
      <point x="36" y="335" type="curve"/>
    </contour>
  </outline>
</glyph>
<glyph name="daggerdbl" format="1">
  <advance width="493"/>
  <unicode hex="2021"/>
  <outline>
    <contour>
      <point x="297" y="721" type="curve"/>
      <point x="283" y="724"/>
      <point x="264" y="726"/>
      <point x="249" y="726" type="curve" smooth="yes"/>
      <point x="226" y="726"/>
      <point x="200" y="720"/>
      <point x="188" y="713" type="curve"/>
      <point x="193" y="642"/>
      <point x="200" y="582"/>
      <point x="210" y="501" type="curve"/>
      <point x="230" y="501"/>
      <point x="270" y="505"/>
      <point x="282" y="508" type="curve"/>
      <point x="292" y="599"/>
      <point x="296" y="663"/>
    </contour>
    <contour>
      <point x="36" y="559" type="curve"/>
      <point x="32" y="545"/>
      <point x="30" y="531"/>
      <point x="30" y="515" type="curve" smooth="yes"/>
      <point x="29" y="493"/>
      <point x="35" y="464"/>
      <point x="41" y="452" type="curve"/>
      <point x="111" y="464"/>
      <point x="164" y="470"/>
      <point x="252" y="468" type="curve"/>
      <point x="254" y="488"/>
      <point x="251" y="525"/>
      <point x="247" y="538" type="curve"/>
      <point x="162" y="550"/>
      <point x="89" y="560"/>
    </contour>
    <contour>
      <point x="452" y="447" type="curve"/>
      <point x="456" y="462"/>
      <point x="458" y="479"/>
      <point x="458" y="494" type="curve" smooth="yes"/>
      <point x="459" y="516"/>
      <point x="454" y="542"/>
      <point x="448" y="554" type="curve"/>
      <point x="379" y="548"/>
      <point x="318" y="544"/>
      <point x="239" y="538" type="curve"/>
      <point x="237" y="518"/>
      <point x="241" y="482"/>
      <point x="243" y="469" type="curve"/>
      <point x="333" y="457"/>
      <point x="396" y="449"/>
    </contour>
    <contour>
      <point x="214" y="5" type="curve"/>
      <point x="229" y="2"/>
      <point x="267" y="0"/>
      <point x="286" y="2" type="curve"/>
      <point x="302" y="213"/>
      <point x="304" y="300"/>
      <point x="279" y="515" type="curve"/>
      <point x="260" y="515"/>
      <point x="219" y="511"/>
      <point x="207" y="508" type="curve"/>
      <point x="191" y="307"/>
      <point x="193" y="198"/>
    </contour>
    <contour>
      <point x="191" y="-196" type="curve"/>
      <point x="203" y="-202"/>
      <point x="228" y="-209"/>
      <point x="249" y="-209" type="curve" smooth="yes"/>
      <point x="266" y="-209"/>
      <point x="287" y="-207"/>
      <point x="302" y="-203" type="curve"/>
      <point x="303" y="-144"/>
      <point x="295" y="-69"/>
      <point x="287" y="9" type="curve"/>
      <point x="274" y="12"/>
      <point x="234" y="16"/>
      <point x="215" y="15" type="curve"/>
      <point x="211" y="-80"/>
      <point x="203" y="-132"/>
    </contour>
    <contour>
      <point x="456" y="-48" type="curve"/>
      <point x="462" y="-37"/>
      <point x="467" y="-13"/>
      <point x="467" y="7" type="curve" smooth="yes"/>
      <point x="467" y="23"/>
      <point x="464" y="42"/>
      <point x="461" y="58" type="curve"/>
      <point x="402" y="56"/>
      <point x="327" y="46"/>
      <point x="249" y="38" type="curve"/>
      <point x="247" y="24"/>
      <point x="243" y="-12"/>
      <point x="246" y="-31" type="curve"/>
      <point x="341" y="-33"/>
      <point x="391" y="-39"/>
    </contour>
    <contour>
      <point x="38" y="2" type="curve" smooth="yes"/>
      <point x="38" y="-13"/>
      <point x="41" y="-36"/>
      <point x="44" y="-51" type="curve"/>
      <point x="106" y="-46"/>
      <point x="171" y="-40"/>
      <point x="254" y="-31" type="curve"/>
      <point x="256" y="-18"/>
      <point x="260" y="17"/>
      <point x="258" y="37" type="curve"/>
      <point x="171" y="46"/>
      <point x="112" y="51"/>
      <point x="48" y="55" type="curve"/>
      <point x="42" y="44"/>
      <point x="37" y="23"/>
    </contour>
  </outline>
</glyph>
<glyph name="fraction" format="1">
  <advance width="344"/>
  <unicode hex="2044"/>
  <outline>
    <contour>
      <point x="183" y="245"/>
      <point x="298" y="470"/>
      <point x="410" y="738" type="curve"/>
      <point x="377" y="770"/>
      <point x="336" y="789"/>
      <point x="302" y="796" type="curve"/>
      <point x="208" y="534"/>
      <point x="74" y="261"/>
      <point x="-66" y="11" type="curve"/>
      <point x="-41" y="-9"/>
      <point x="-16" y="-25"/>
      <point x="21" y="-34" type="curve"/>
    </contour>
  </outline>
</glyph>
<glyph name="trademark" format="1">
  <advance width="843"/>
  <unicode hex="2122"/>
  <outline>
    <contour>
      <point x="505" y="358" type="curve"/>
      <point x="488" y="419"/>
      <point x="477" y="514"/>
      <point x="477" y="605" type="curve" smooth="yes"/>
      <point x="477" y="632"/>
      <point x="478" y="680"/>
      <point x="487" y="732" type="curve"/>
      <point x="375" y="735" type="line"/>
      <point x="375" y="620"/>
      <point x="387" y="447"/>
      <point x="401" y="348" type="curve"/>
      <point x="436" y="348"/>
      <point x="486" y="352"/>
    </contour>
    <contour>
      <point x="788" y="336" type="curve"/>
      <point x="787" y="445"/>
      <point x="786" y="621"/>
      <point x="780" y="747" type="curve"/>
      <point x="685" y="747" type="line"/>
      <point x="685" y="639"/>
      <point x="675" y="427"/>
      <point x="669" y="315" type="curve"/>
      <point x="725" y="315"/>
      <point x="755" y="323"/>
    </contour>
    <contour>
      <point x="607" y="468" type="curve"/>
      <point x="658" y="532"/>
      <point x="720" y="636"/>
      <point x="780" y="747" type="curve"/>
      <point x="750" y="760"/>
      <point x="731" y="766"/>
      <point x="693" y="772" type="curve"/>
      <point x="662" y="687"/>
      <point x="631" y="629"/>
      <point x="587" y="563" type="curve"/>
      <point x="609" y="562" type="line"/>
      <point x="576" y="646"/>
      <point x="529" y="720"/>
      <point x="484" y="778" type="curve"/>
      <point x="448" y="773"/>
      <point x="406" y="756"/>
      <point x="375" y="735" type="curve"/>
      <point x="451" y="656"/>
      <point x="500" y="562"/>
      <point x="547" y="460" type="curve"/>
      <point x="568" y="460"/>
      <point x="586" y="462"/>
    </contour>
    <contour>
      <point x="324" y="685" type="curve"/>
      <point x="327" y="697"/>
      <point x="330" y="714"/>
      <point x="330" y="732" type="curve" smooth="yes"/>
      <point x="331" y="750"/>
      <point x="329" y="765"/>
      <point x="325" y="779" type="curve"/>
      <point x="201" y="778"/>
      <point x="114" y="769"/>
      <point x="11" y="747" type="curve"/>
      <point x="11" y="721"/>
      <point x="16" y="694"/>
      <point x="26" y="667" type="curve"/>
      <point x="134" y="678"/>
      <point x="216" y="686"/>
    </contour>
    <contour>
      <point x="235" y="359" type="curve"/>
      <point x="240" y="411"/>
      <point x="244" y="471"/>
      <point x="244" y="529" type="curve" smooth="yes"/>
      <point x="244" y="615"/>
      <point x="241" y="689"/>
      <point x="234" y="745" type="curve"/>
      <point x="181" y="745"/>
      <point x="146" y="741"/>
      <point x="105" y="733" type="curve"/>
      <point x="124" y="628"/>
      <point x="131" y="445"/>
      <point x="131" y="348" type="curve"/>
      <point x="177" y="348"/>
      <point x="206" y="352"/>
    </contour>
  </outline>
</glyph>
<glyph name="integral" format="1">
  <advance width="424"/>
  <unicode hex="222B"/>
  <outline>
    <contour>
      <point x="95" y="-155" type="curve" smooth="yes"/>
      <point x="1" y="-155"/>
      <point x="-40" y="-90"/>
      <point x="-40" y="-19" type="curve" smooth="yes"/>
      <point x="-40" y="-1"/>
      <point x="-36" y="20"/>
      <point x="-30" y="34" type="curve"/>
      <point x="8" y="34"/>
      <point x="46" y="27"/>
      <point x="78" y="17" type="curve"/>
      <point x="74" y="6"/>
      <point x="72" y="-7"/>
      <point x="72" y="-23" type="curve" smooth="yes"/>
      <point x="72" y="-52"/>
      <point x="84" y="-67"/>
      <point x="107" y="-67" type="curve" smooth="yes"/>
      <point x="141" y="-67"/>
      <point x="155" y="-30"/>
      <point x="155" y="36" type="curve" smooth="yes"/>
      <point x="155" y="217"/>
      <point x="87" y="312"/>
      <point x="83" y="465" type="curve" smooth="yes"/>
      <point x="78" y="634"/>
      <point x="164" y="723"/>
      <point x="274" y="725" type="curve" smooth="yes"/>
      <point x="373" y="727"/>
      <point x="418" y="663"/>
      <point x="419" y="592" type="curve" smooth="yes"/>
      <point x="419" y="574"/>
      <point x="416" y="553"/>
      <point x="410" y="538" type="curve"/>
      <point x="371" y="537"/>
      <point x="332" y="544"/>
      <point x="301" y="552" type="curve"/>
      <point x="304" y="563"/>
      <point x="307" y="578"/>
      <point x="307" y="594" type="curve" smooth="yes"/>
      <point x="306" y="622"/>
      <point x="291" y="637"/>
      <point x="269" y="637" type="curve" smooth="yes"/>
      <point x="234" y="637"/>
      <point x="219" y="589"/>
      <point x="221" y="508" type="curve" smooth="yes"/>
      <point x="223" y="331"/>
      <point x="306" y="216"/>
      <point x="270" y="24" type="curve" smooth="yes"/>
      <point x="252" y="-99"/>
      <point x="187" y="-155"/>
    </contour>
  </outline>
</glyph>
<glyph name="bn_b_bha" format="1">
  <advance width="630"/>
  <outline>
    <contour>
      <point x="596" y="-67" type="curve" smooth="yes"/>
      <point x="596" y="-22"/>
      <point x="583" y="23"/>
      <point x="565" y="61" type="curve"/>
      <point x="543" y="80"/>
      <point x="512" y="100"/>
      <point x="489" y="112" type="curve"/>
      <point x="426" y="60"/>
      <point x="372" y="22"/>
      <point x="330" y="22" type="curve" smooth="yes"/>
      <point x="307" y="22"/>
      <point x="293" y="31"/>
      <point x="293" y="47" type="curve" smooth="yes"/>
      <point x="293" y="75"/>
      <point x="328" y="105"/>
      <point x="374" y="113" type="curve"/>
      <point x="360" y="139"/>
      <point x="327" y="163"/>
      <point x="297" y="167" type="curve"/>
      <point x="254" y="154"/>
      <point x="209" y="119"/>
      <point x="209" y="65" type="curve" smooth="yes"/>
      <point x="209" y="-6"/>
      <point x="283" y="-62"/>
      <point x="368" y="-62" type="curve" smooth="yes"/>
      <point x="433" y="-62"/>
      <point x="490" y="-26"/>
      <point x="541" y="29" type="curve"/>
      <point x="493" y="59" type="line"/>
      <point x="503" y="31"/>
      <point x="512" y="-4"/>
      <point x="512" y="-36" type="curve" smooth="yes"/>
      <point x="512" y="-112"/>
      <point x="469" y="-155"/>
      <point x="384" y="-155" type="curve" smooth="yes"/>
      <point x="259" y="-155"/>
      <point x="153" y="-31"/>
      <point x="106" y="166" type="curve"/>
      <point x="78" y="158"/>
      <point x="51" y="147"/>
      <point x="25" y="135" type="curve"/>
      <point x="54" y="-36"/>
      <point x="168" y="-260"/>
      <point x="380" y="-260" type="curve" smooth="yes"/>
      <point x="517" y="-260"/>
      <point x="596" y="-182"/>
    </contour>
    <contour>
      <point x="313" y="541" type="curve" smooth="yes"/>
      <point x="435" y="541"/>
      <point x="553" y="528"/>
      <point x="630" y="514" type="curve"/>
      <point x="636" y="528"/>
      <point x="639" y="550"/>
      <point x="639" y="572" type="curve" smooth="yes"/>
      <point x="639" y="590"/>
      <point x="637" y="608"/>
      <point x="630" y="618" type="curve"/>
      <point x="554" y="635"/>
      <point x="437" y="649"/>
      <point x="313" y="649" type="curve" smooth="yes"/>
      <point x="190" y="649"/>
      <point x="74" y="635"/>
      <point x="0" y="618" type="curve"/>
      <point x="-5" y="608"/>
      <point x="-8" y="591"/>
      <point x="-8" y="572" type="curve" smooth="yes"/>
      <point x="-8" y="550"/>
      <point x="-4" y="527"/>
      <point x="0" y="514" type="curve"/>
      <point x="76" y="528"/>
      <point x="191" y="541"/>
    </contour>
    <contour>
      <point x="465" y="148" type="line"/>
      <point x="400" y="239"/>
      <point x="316" y="298"/>
      <point x="223" y="336" type="curve"/>
      <point x="197" y="276" type="line"/>
      <point x="269" y="340"/>
      <point x="389" y="400"/>
      <point x="489" y="441" type="curve"/>
      <point x="495" y="558" type="line"/>
      <point x="352" y="504"/>
      <point x="208" y="430"/>
      <point x="126" y="359" type="curve"/>
      <point x="129" y="321"/>
      <point x="140" y="291"/>
      <point x="167" y="254" type="curve"/>
      <point x="281" y="244"/>
      <point x="380" y="180"/>
      <point x="438" y="76" type="curve"/>
    </contour>
    <contour>
      <point x="554" y="22" type="curve"/>
      <point x="528" y="99"/>
      <point x="532" y="224"/>
      <point x="532" y="340" type="curve" smooth="yes"/>
      <point x="532" y="423"/>
      <point x="537" y="483"/>
      <point x="547" y="553" type="curve"/>
      <point x="455" y="567" type="line"/>
      <point x="434" y="446"/>
      <point x="426" y="354"/>
      <point x="426" y="221" type="curve" smooth="yes"/>
      <point x="426" y="133"/>
      <point x="430" y="69"/>
      <point x="435" y="16" type="curve"/>
      <point x="473" y="16"/>
      <point x="524" y="12"/>
    </contour>
    <contour>
      <point x="437" y="-240" type="move" name="blwm"/>
    </contour>
    <contour>
      <point x="241" y="-241" type="move" name="haln"/>
    </contour>
    <contour>
      <point x="488" y="690" type="move" name="reph"/>
    </contour>
    <contour>
      <point x="488" y="690" type="move" name="chandrabindu"/>
    </contour>
  </outline>
</glyph>
<glyph name="bn_b_ra_ukaar" format="1">
  <advance width="673"/>
  <outline>
    <contour>
      <point x="609" y="109"/>
      <point x="655" y="185"/>
      <point x="655" y="292" type="curve" smooth="yes"/>
      <point x="655" y="407"/>
      <point x="600" y="471"/>
      <point x="533" y="471" type="curve" smooth="yes"/>
      <point x="497" y="471"/>
      <point x="473" y="453"/>
      <point x="461" y="432" type="curve"/>
      <point x="461" y="387"/>
      <point x="473" y="336"/>
      <point x="490" y="304" type="curve"/>
      <point x="502" y="332"/>
      <point x="524" y="362"/>
      <point x="546" y="362" type="curve" smooth="yes"/>
      <point x="566" y="362"/>
      <point x="579" y="345"/>
      <point x="579" y="312" type="curve" smooth="yes"/>
      <point x="579" y="269"/>
      <point x="553" y="234"/>
      <point x="516" y="234" type="curve" smooth="yes"/>
      <point x="474" y="234"/>
      <point x="417" y="276"/>
      <point x="410" y="363" type="curve"/>
      <point x="390" y="301" type="line"/>
      <point x="416" y="174"/>
      <point x="466" y="109"/>
      <point x="538" y="109" type="curve" smooth="yes"/>
    </contour>
    <contour>
      <point x="73" y="529"/>
      <point x="203" y="546"/>
      <point x="329" y="546" type="curve" smooth="yes"/>
      <point x="457" y="546"/>
      <point x="599" y="530"/>
      <point x="673" y="514" type="curve"/>
      <point x="678" y="527"/>
      <point x="681" y="551"/>
      <point x="681" y="570" type="curve" smooth="yes"/>
      <point x="681" y="588"/>
      <point x="678" y="607"/>
      <point x="673" y="618" type="curve"/>
      <point x="605" y="636"/>
      <point x="462" y="654"/>
      <point x="332" y="654" type="curve" smooth="yes"/>
      <point x="205" y="654"/>
      <point x="71" y="636"/>
      <point x="0" y="618" type="curve"/>
      <point x="-6" y="607"/>
      <point x="-8" y="587"/>
      <point x="-8" y="571" type="curve" smooth="yes"/>
      <point x="-8" y="551"/>
      <point x="-4" y="528"/>
      <point x="0" y="514" type="curve"/>
    </contour>
    <contour>
      <point x="351" y="9" type="line"/>
      <point x="322" y="142"/>
      <point x="223" y="223"/>
      <point x="129" y="271" type="curve"/>
      <point x="122" y="227" type="line"/>
      <point x="182" y="293"/>
      <point x="283" y="357"/>
      <point x="356" y="382" type="curve"/>
      <point x="339" y="514" type="line"/>
      <point x="206" y="464"/>
      <point x="97" y="392"/>
      <point x="29" y="319" type="curve"/>
      <point x="33" y="271"/>
      <point x="48" y="228"/>
      <point x="82" y="182" type="curve"/>
      <point x="174" y="159"/>
      <point x="270" y="95"/>
      <point x="316" y="-37" type="curve"/>
    </contour>
    <contour>
      <point x="360" y="-207"/>
      <point x="412" y="-203"/>
      <point x="446" y="-190" type="curve"/>
      <point x="419" y="-67"/>
      <point x="414" y="124"/>
      <point x="414" y="288" type="curve" smooth="yes"/>
      <point x="414" y="392"/>
      <point x="417" y="465"/>
      <point x="424" y="549" type="curve"/>
      <point x="332" y="567" type="line"/>
      <point x="314" y="410"/>
      <point x="307" y="301"/>
      <point x="307" y="140" type="curve" smooth="yes"/>
      <point x="307" y="-21"/>
      <point x="314" y="-122"/>
      <point x="319" y="-207" type="curve"/>
    </contour>
    <contour>
      <point x="350" y="-177" type="line"/>
      <point x="306" y="-96"/>
      <point x="268" y="-51"/>
      <point x="203" y="-51" type="curve" smooth="yes"/>
      <point x="174" y="-51"/>
      <point x="141" y="-56"/>
      <point x="117" y="-56" type="curve" smooth="yes"/>
      <point x="87" y="-56"/>
      <point x="63" y="-40"/>
      <point x="63" y="-10" type="curve" smooth="yes"/>
      <point x="63" y="10"/>
      <point x="70" y="33"/>
      <point x="78" y="51" type="curve"/>
      <point x="58" y="60"/>
      <point x="30" y="67"/>
      <point x="0" y="67" type="curve"/>
      <point x="-16" y="34"/>
      <point x="-29" y="-3"/>
      <point x="-29" y="-45" type="curve" smooth="yes"/>
      <point x="-29" y="-116"/>
      <point x="25" y="-165"/>
      <point x="115" y="-165" type="curve" smooth="yes"/>
      <point x="153" y="-165"/>
      <point x="187" y="-159"/>
      <point x="222" y="-159" type="curve" smooth="yes"/>
      <point x="278" y="-159"/>
      <point x="297" y="-185"/>
      <point x="319" y="-207" type="curve"/>
    </contour>
    <contour>
      <point x="384" y="690" type="move" name="chandrabindu"/>
    </contour>
    <contour>
      <point x="384" y="690" type="move" name="reph"/>
    </contour>
    <contour>
      <point x="363" y="-188" type="move" name="blwm"/>
    </contour>
    <contour>
      <point x="211" y="-187" type="move" name="haln"/>
    </contour>
  </outline>
</glyph>
<glyph name="bn_b_ra_uukaar" format="1">
  <advance width="673"/>
  <outline>
    <contour>
      <point x="329" y="546" type="curve" smooth="yes"/>
      <point x="457" y="546"/>
      <point x="599" y="530"/>
      <point x="673" y="514" type="curve"/>
      <point x="678" y="527"/>
      <point x="681" y="551"/>
      <point x="681" y="570" type="curve" smooth="yes"/>
      <point x="681" y="588"/>
      <point x="678" y="607"/>
      <point x="673" y="618" type="curve"/>
      <point x="605" y="636"/>
      <point x="462" y="654"/>
      <point x="332" y="654" type="curve" smooth="yes"/>
      <point x="205" y="654"/>
      <point x="71" y="636"/>
      <point x="0" y="618" type="curve"/>
      <point x="-6" y="607"/>
      <point x="-8" y="587"/>
      <point x="-8" y="571" type="curve" smooth="yes"/>
      <point x="-8" y="551"/>
      <point x="-4" y="528"/>
      <point x="0" y="514" type="curve"/>
      <point x="73" y="529"/>
      <point x="203" y="546"/>
    </contour>
    <contour>
      <point x="351" y="9" type="line"/>
      <point x="322" y="142"/>
      <point x="223" y="223"/>
      <point x="129" y="271" type="curve"/>
      <point x="122" y="227" type="line"/>
      <point x="182" y="293"/>
      <point x="283" y="357"/>
      <point x="356" y="382" type="curve"/>
      <point x="339" y="514" type="line"/>
      <point x="206" y="464"/>
      <point x="97" y="392"/>
      <point x="29" y="319" type="curve"/>
      <point x="33" y="271"/>
      <point x="48" y="228"/>
      <point x="82" y="182" type="curve"/>
      <point x="174" y="159"/>
      <point x="270" y="95"/>
      <point x="316" y="-37" type="curve"/>
    </contour>
    <contour>
      <point x="446" y="-190" type="curve"/>
      <point x="419" y="-67"/>
      <point x="414" y="124"/>
      <point x="414" y="288" type="curve" smooth="yes"/>
      <point x="414" y="392"/>
      <point x="417" y="465"/>
      <point x="424" y="549" type="curve"/>
      <point x="332" y="567" type="line"/>
      <point x="314" y="410"/>
      <point x="307" y="301"/>
      <point x="307" y="140" type="curve" smooth="yes"/>
      <point x="307" y="-21"/>
      <point x="314" y="-122"/>
      <point x="319" y="-207" type="curve"/>
      <point x="360" y="-207"/>
      <point x="412" y="-203"/>
    </contour>
    <contour>
      <point x="350" y="-177" type="line"/>
      <point x="306" y="-96"/>
      <point x="268" y="-51"/>
      <point x="203" y="-51" type="curve" smooth="yes"/>
      <point x="174" y="-51"/>
      <point x="141" y="-56"/>
      <point x="117" y="-56" type="curve" smooth="yes"/>
      <point x="87" y="-56"/>
      <point x="63" y="-40"/>
      <point x="63" y="-10" type="curve" smooth="yes"/>
      <point x="63" y="10"/>
      <point x="70" y="33"/>
      <point x="78" y="51" type="curve"/>
      <point x="58" y="60"/>
      <point x="30" y="67"/>
      <point x="0" y="67" type="curve"/>
      <point x="-16" y="34"/>
      <point x="-29" y="-3"/>
      <point x="-29" y="-45" type="curve" smooth="yes"/>
      <point x="-29" y="-116"/>
      <point x="25" y="-165"/>
      <point x="115" y="-165" type="curve" smooth="yes"/>
      <point x="153" y="-165"/>
      <point x="187" y="-159"/>
      <point x="222" y="-159" type="curve" smooth="yes"/>
      <point x="278" y="-159"/>
      <point x="297" y="-185"/>
      <point x="319" y="-207" type="curve"/>
    </contour>
    <contour>
      <point x="627" y="57" type="curve"/>
      <point x="601" y="118"/>
      <point x="592" y="176"/>
      <point x="592" y="245" type="curve" smooth="yes"/>
      <point x="592" y="275"/>
      <point x="597" y="306"/>
      <point x="602" y="338" type="curve"/>
      <point x="540" y="424" type="line"/>
      <point x="494" y="410"/>
      <point x="450" y="393"/>
      <point x="404" y="373" type="curve"/>
      <point x="402" y="258" type="line"/>
      <point x="453" y="279"/>
      <point x="504" y="298"/>
      <point x="551" y="312" type="curve"/>
      <point x="513" y="346" type="line"/>
      <point x="508" y="301"/>
      <point x="501" y="257"/>
      <point x="501" y="215" type="curve" smooth="yes"/>
      <point x="501" y="153"/>
      <point x="506" y="96"/>
      <point x="520" y="40" type="curve"/>
      <point x="560" y="40"/>
      <point x="601" y="46"/>
    </contour>
    <contour>
      <point x="385" y="690" type="move" name="chandrabindu"/>
    </contour>
    <contour>
      <point x="363" y="-188" type="move" name="blwm"/>
    </contour>
    <contour>
      <point x="208" y="-188" type="move" name="haln"/>
    </contour>
    <contour>
      <point x="385" y="690" type="move" name="reph"/>
    </contour>
  </outline>
</glyph>
<glyph name="bn_bh_ra_uukaar" format="1">
  <advance width="762"/>
  <outline>
    <contour>
      <point x="483" y="-77" type="curve"/>
      <point x="497" y="43"/>
      <point x="505" y="175"/>
      <point x="505" y="342" type="curve" smooth="yes"/>
      <point x="506" y="377"/>
      <point x="493" y="408"/>
      <point x="472" y="433" type="curve"/>
      <point x="447" y="456"/>
      <point x="412" y="482"/>
      <point x="385" y="497" type="curve"/>
      <point x="319" y="390"/>
      <point x="263" y="330"/>
      <point x="219" y="330" type="curve" smooth="yes"/>
      <point x="196" y="330"/>
      <point x="181" y="343"/>
      <point x="181" y="362" type="curve" smooth="yes"/>
      <point x="181" y="394"/>
      <point x="227" y="428"/>
      <point x="282" y="439" type="curve"/>
      <point x="268" y="473"/>
      <point x="226" y="501"/>
      <point x="191" y="508" type="curve"/>
      <point x="148" y="491"/>
      <point x="101" y="448"/>
      <point x="101" y="381" type="curve" smooth="yes"/>
      <point x="101" y="298"/>
      <point x="170" y="236"/>
      <point x="250" y="236" type="curve" smooth="yes"/>
      <point x="320" y="236"/>
      <point x="379" y="300"/>
      <point x="433" y="403" type="curve"/>
      <point x="375" y="394" type="line"/>
      <point x="400" y="375"/>
      <point x="403" y="354"/>
      <point x="403" y="322" type="curve" smooth="yes"/>
      <point x="403" y="247"/>
      <point x="393" y="81"/>
      <point x="370" y="-22" type="curve"/>
      <point x="399" y="-55" type="line"/>
      <point x="374" y="49"/>
      <point x="348" y="96"/>
      <point x="293" y="96" type="curve" smooth="yes"/>
      <point x="252" y="96"/>
      <point x="197" y="71"/>
      <point x="163" y="71" type="curve" smooth="yes"/>
      <point x="139" y="71"/>
      <point x="121" y="84"/>
      <point x="121" y="117" type="curve" smooth="yes"/>
      <point x="121" y="142"/>
      <point x="131" y="175"/>
      <point x="147" y="204" type="curve"/>
      <point x="126" y="213"/>
      <point x="98" y="218"/>
      <point x="63" y="219" type="curve"/>
      <point x="43" y="176"/>
      <point x="26" y="124"/>
      <point x="26" y="76" type="curve" smooth="yes"/>
      <point x="26" y="-2"/>
      <point x="70" y="-54"/>
      <point x="141" y="-54" type="curve" smooth="yes"/>
      <point x="198" y="-54"/>
      <point x="260" y="-21"/>
      <point x="308" y="-21" type="curve" smooth="yes"/>
      <point x="359" y="-21"/>
      <point x="370" y="-59"/>
      <point x="388" y="-93" type="curve"/>
      <point x="418" y="-93"/>
      <point x="454" y="-87"/>
    </contour>
    <contour>
      <point x="366" y="546" type="curve" smooth="yes"/>
      <point x="512" y="546"/>
      <point x="675" y="532"/>
      <point x="759" y="514" type="curve"/>
      <point x="763" y="527"/>
      <point x="767" y="551"/>
      <point x="767" y="570" type="curve" smooth="yes"/>
      <point x="767" y="588"/>
      <point x="764" y="607"/>
      <point x="759" y="618" type="curve"/>
      <point x="681" y="639"/>
      <point x="517" y="654"/>
      <point x="369" y="654" type="curve" smooth="yes"/>
      <point x="228" y="654"/>
      <point x="78" y="637"/>
      <point x="0" y="618" type="curve"/>
      <point x="-6" y="607"/>
      <point x="-8" y="587"/>
      <point x="-8" y="571" type="curve" smooth="yes"/>
      <point x="-8" y="551"/>
      <point x="-4" y="528"/>
      <point x="0" y="514" type="curve"/>
      <point x="81" y="531"/>
      <point x="226" y="546"/>
    </contour>
    <contour>
      <point x="713" y="95" type="curve"/>
      <point x="687" y="156"/>
      <point x="678" y="214"/>
      <point x="678" y="283" type="curve" smooth="yes"/>
      <point x="678" y="313"/>
      <point x="684" y="344"/>
      <point x="689" y="376" type="curve"/>
      <point x="626" y="462" type="line"/>
      <point x="577" y="447"/>
      <point x="530" y="423"/>
      <point x="481" y="402" type="curve"/>
      <point x="479" y="286" type="line"/>
      <point x="534" y="310"/>
      <point x="587" y="334"/>
      <point x="638" y="350" type="curve"/>
      <point x="600" y="384" type="line"/>
      <point x="594" y="339"/>
      <point x="587" y="295"/>
      <point x="587" y="253" type="curve" smooth="yes"/>
      <point x="587" y="191"/>
      <point x="592" y="134"/>
      <point x="607" y="78" type="curve"/>
      <point x="647" y="78"/>
      <point x="687" y="84"/>
    </contour>
    <contour>
      <point x="426" y="-70" type="move" name="blwm"/>
    </contour>
    <contour>
      <point x="262" y="-70" type="move" name="haln"/>
    </contour>
    <contour>
      <point x="540" y="750" type="move" name="reph"/>
    </contour>
    <contour>
      <point x="540" y="750" type="move" name="chandrabindu"/>
    </contour>
  </outline>
</glyph>
<glyph name="bn_d_gha" format="1">
  <advance width="987"/>
  <outline>
    <contour>
      <point x="386" y="-28"/>
      <point x="436" y="-17"/>
      <point x="459" y="-3" type="curve"/>
      <point x="447" y="57"/>
      <point x="441" y="114"/>
      <point x="441" y="168" type="curve" smooth="yes"/>
      <point x="441" y="249"/>
      <point x="454" y="323"/>
      <point x="475" y="393" type="curve"/>
      <point x="442" y="437"/>
      <point x="409" y="466"/>
      <point x="363" y="485" type="curve"/>
      <point x="261" y="423"/>
      <point x="160" y="322"/>
      <point x="64" y="170" type="curve"/>
      <point x="169" y="217" type="line"/>
      <point x="186" y="309"/>
      <point x="195" y="416"/>
      <point x="195" y="506" type="curve" smooth="yes"/>
      <point x="195" y="525"/>
      <point x="195" y="545"/>
      <point x="194" y="563" type="curve"/>
      <point x="106" y="552" type="line"/>
      <point x="103" y="428"/>
      <point x="78" y="281"/>
      <point x="38" y="153" type="curve"/>
      <point x="65" y="132"/>
      <point x="121" y="114"/>
      <point x="163" y="109" type="curve"/>
      <point x="220" y="206"/>
      <point x="323" y="315"/>
      <point x="423" y="376" type="curve"/>
      <point x="382" y="381" type="line"/>
      <point x="357" y="309"/>
      <point x="342" y="218"/>
      <point x="342" y="127" type="curve" smooth="yes"/>
      <point x="342" y="74"/>
      <point x="347" y="20"/>
      <point x="358" y="-29" type="curve"/>
    </contour>
    <contour>
      <point x="819" y="24" type="line"/>
      <point x="775" y="134"/>
      <point x="682" y="207"/>
      <point x="586" y="249" type="curve"/>
      <point x="589" y="187" type="line"/>
      <point x="747" y="312" type="line"/>
      <point x="742" y="353"/>
      <point x="727" y="404"/>
      <point x="709" y="432" type="curve"/>
      <point x="677" y="400"/>
      <point x="650" y="390"/>
      <point x="630" y="390" type="curve" smooth="yes"/>
      <point x="603" y="390"/>
      <point x="580" y="409"/>
      <point x="580" y="442" type="curve" smooth="yes"/>
      <point x="580" y="476"/>
      <point x="607" y="515"/>
      <point x="690" y="543" type="curve"/>
      <point x="537" y="566" type="line"/>
      <point x="496" y="536"/>
      <point x="477" y="497"/>
      <point x="477" y="454" type="curve" smooth="yes"/>
      <point x="477" y="372"/>
      <point x="546" y="335"/>
      <point x="619" y="333" type="curve" smooth="yes"/>
      <point x="674" y="332"/>
      <point x="696" y="352"/>
      <point x="708" y="364" type="curve"/>
      <point x="620" y="373" type="line"/>
      <point x="501" y="276" type="line"/>
      <point x="500" y="234"/>
      <point x="517" y="188"/>
      <point x="555" y="152" type="curve"/>
      <point x="649" y="133"/>
      <point x="728" y="77"/>
      <point x="791" y="-27" type="curve"/>
    </contour>
    <contour>
      <point x="830" y="-27"/>
      <point x="882" y="-23"/>
      <point x="914" y="-8" type="curve"/>
      <point x="898" y="67"/>
      <point x="894" y="184"/>
      <point x="894" y="292" type="curve" smooth="yes"/>
      <point x="894" y="388"/>
      <point x="897" y="459"/>
      <point x="907" y="541" type="curve"/>
      <point x="809" y="564" type="line"/>
      <point x="790" y="413"/>
      <point x="782" y="302"/>
      <point x="782" y="145" type="curve" smooth="yes"/>
      <point x="782" y="66"/>
      <point x="784" y="15"/>
      <point x="791" y="-27" type="curve"/>
    </contour>
    <contour>
      <point x="107" y="533"/>
      <point x="305" y="546"/>
      <point x="495" y="546" type="curve" smooth="yes"/>
      <point x="678" y="546"/>
      <point x="882" y="533"/>
      <point x="987" y="514" type="curve"/>
      <point x="991" y="527"/>
      <point x="995" y="551"/>
      <point x="995" y="570" type="curve" smooth="yes"/>
      <point x="995" y="588"/>
      <point x="992" y="607"/>
      <point x="987" y="618" type="curve"/>
      <point x="891" y="640"/>
      <point x="683" y="654"/>
      <point x="497" y="654" type="curve" smooth="yes"/>
      <point x="307" y="654"/>
      <point x="105" y="641"/>
      <point x="0" y="618" type="curve"/>
      <point x="-6" y="607"/>
      <point x="-8" y="587"/>
      <point x="-8" y="571" type="curve" smooth="yes"/>
      <point x="-8" y="551"/>
      <point x="-4" y="528"/>
      <point x="0" y="514" type="curve"/>
    </contour>
    <contour>
      <point x="833" y="-8" type="move" name="blwm"/>
    </contour>
    <contour>
      <point x="692" y="0" type="move" name="haln"/>
    </contour>
    <contour>
      <point x="852" y="690" type="move" name="reph"/>
    </contour>
    <contour>
      <point x="852" y="690" type="move" name="chandrabindu"/>
    </contour>
  </outline>
</glyph>
<glyph name="bn_da.half" format="1">
  <advance width="515"/>
  <outline>
    <contour>
      <point x="384" y="141"/>
      <point x="436" y="148"/>
      <point x="459" y="158" type="curve"/>
      <point x="447" y="202"/>
      <point x="441" y="243"/>
      <point x="441" y="282" type="curve" smooth="yes"/>
      <point x="441" y="339"/>
      <point x="454" y="392"/>
      <point x="475" y="441" type="curve"/>
      <point x="442" y="472"/>
      <point x="409" y="492"/>
      <point x="363" y="505" type="curve"/>
      <point x="261" y="461"/>
      <point x="160" y="389"/>
      <point x="64" y="282" type="curve"/>
      <point x="169" y="315" type="line"/>
      <point x="186" y="381"/>
      <point x="195" y="457"/>
      <point x="195" y="522" type="curve" smooth="yes"/>
      <point x="195" y="535"/>
      <point x="195" y="549"/>
      <point x="194" y="562" type="curve"/>
      <point x="106" y="554" type="line"/>
      <point x="103" y="466"/>
      <point x="78" y="361"/>
      <point x="38" y="269" type="curve"/>
      <point x="65" y="255"/>
      <point x="121" y="242"/>
      <point x="163" y="239" type="curve"/>
      <point x="218" y="306"/>
      <point x="321" y="378"/>
      <point x="419" y="421" type="curve"/>
      <point x="380" y="433" type="line"/>
      <point x="355" y="382"/>
      <point x="340" y="318"/>
      <point x="340" y="252" type="curve" smooth="yes"/>
      <point x="340" y="215"/>
      <point x="345" y="176"/>
      <point x="356" y="140" type="curve"/>
    </contour>
    <contour>
      <point x="64" y="528"/>
      <point x="161" y="541"/>
      <point x="272" y="541" type="curve" smooth="yes"/>
      <point x="359" y="541"/>
      <point x="464" y="528"/>
      <point x="515" y="514" type="curve"/>
      <point x="519" y="528"/>
      <point x="522" y="552"/>
      <point x="522" y="575" type="curve" smooth="yes"/>
      <point x="522" y="591"/>
      <point x="519" y="607"/>
      <point x="515" y="618" type="curve"/>
      <point x="468" y="635"/>
      <point x="362" y="649"/>
      <point x="276" y="649" type="curve" smooth="yes"/>
      <point x="164" y="649"/>
      <point x="63" y="635"/>
      <point x="0" y="618" type="curve"/>
      <point x="-6" y="608"/>
      <point x="-8" y="592"/>
      <point x="-8" y="574" type="curve" smooth="yes"/>
      <point x="-8" y="553"/>
      <point x="-4" y="529"/>
      <point x="0" y="514" type="curve"/>
    </contour>
  </outline>
</glyph>
<glyph name="bn_da_ukaar" format="1">
  <advance width="515"/>
  <outline>
    <contour>
      <point x="477" y="-199" type="curve"/>
      <point x="297" y="-72" type="line"/>
      <point x="268" y="-151" type="line"/>
      <point x="425" y="-270" type="line"/>
      <point x="448" y="-249"/>
      <point x="466" y="-223"/>
    </contour>
    <contour>
      <point x="272" y="541" type="curve" smooth="yes"/>
      <point x="359" y="541"/>
      <point x="464" y="528"/>
      <point x="515" y="514" type="curve"/>
      <point x="519" y="528"/>
      <point x="522" y="552"/>
      <point x="522" y="575" type="curve" smooth="yes"/>
      <point x="522" y="591"/>
      <point x="519" y="607"/>
      <point x="515" y="618" type="curve"/>
      <point x="468" y="635"/>
      <point x="362" y="649"/>
      <point x="276" y="649" type="curve" smooth="yes"/>
      <point x="164" y="649"/>
      <point x="63" y="635"/>
      <point x="0" y="618" type="curve"/>
      <point x="-6" y="608"/>
      <point x="-8" y="592"/>
      <point x="-8" y="574" type="curve" smooth="yes"/>
      <point x="-8" y="553"/>
      <point x="-4" y="529"/>
      <point x="0" y="514" type="curve"/>
      <point x="64" y="528"/>
      <point x="161" y="541"/>
    </contour>
    <contour>
      <point x="475" y="393" type="curve"/>
      <point x="442" y="437"/>
      <point x="409" y="466"/>
      <point x="363" y="485" type="curve"/>
      <point x="261" y="423"/>
      <point x="160" y="322"/>
      <point x="64" y="170" type="curve"/>
      <point x="169" y="217" type="line"/>
      <point x="186" y="309"/>
      <point x="195" y="416"/>
      <point x="195" y="506" type="curve" smooth="yes"/>
      <point x="195" y="525"/>
      <point x="195" y="545"/>
      <point x="194" y="563" type="curve"/>
      <point x="106" y="552" type="line"/>
      <point x="103" y="428"/>
      <point x="78" y="281"/>
      <point x="38" y="153" type="curve"/>
      <point x="66" y="131"/>
      <point x="121" y="114"/>
      <point x="163" y="109" type="curve"/>
      <point x="220" y="206"/>
      <point x="323" y="315"/>
      <point x="423" y="376" type="curve"/>
      <point x="366" y="373" type="line"/>
      <point x="315" y="97"/>
      <point x="304" y="-172"/>
      <point x="153" y="-172" type="curve" smooth="yes"/>
      <point x="125" y="-172"/>
      <point x="105" y="-157"/>
      <point x="105" y="-133" type="curve" smooth="yes"/>
      <point x="105" y="-109"/>
      <point x="124" y="-94"/>
      <point x="153" y="-94" type="curve" smooth="yes"/>
      <point x="190" y="-94"/>
      <point x="225" y="-122"/>
      <point x="253" y="-158" type="curve"/>
      <point x="291" y="-85" type="line"/>
      <point x="255" y="-41"/>
      <point x="214" y="-5"/>
      <point x="158" y="-5" type="curve" smooth="yes"/>
      <point x="92" y="-5"/>
      <point x="39" y="-56"/>
      <point x="39" y="-130" type="curve" smooth="yes"/>
      <point x="39" y="-209"/>
      <point x="91" y="-258"/>
      <point x="171" y="-258" type="curve" smooth="yes"/>
      <point x="398" y="-258"/>
      <point x="422" y="68"/>
    </contour>
    <contour>
      <point x="269" y="690" type="move" name="reph"/>
    </contour>
    <contour>
      <point x="269" y="690" type="move" name="chandrabindu"/>
    </contour>
    <contour>
      <point x="154" y="-250" type="move" name="haln"/>
    </contour>
  </outline>
</glyph>
<glyph name="bn_ekaar.init" format="1">
  <advance width="334"/>
  <outline>
    <contour>
      <point x="288" y="-79"/>
      <point x="330" y="-54"/>
      <point x="365" y="-4" type="curve"/>
      <point x="365" y="28"/>
      <point x="326" y="85"/>
      <point x="290" y="105" type="curve"/>
      <point x="254" y="28"/>
      <point x="234" y="3"/>
      <point x="210" y="3" type="curve" smooth="yes"/>
      <point x="174" y="3"/>
      <point x="152" y="73"/>
      <point x="152" y="192" type="curve" smooth="yes"/>
      <point x="152" y="401"/>
      <point x="205" y="495"/>
      <point x="334" y="514" type="curve"/>
      <point x="339" y="528"/>
      <point x="343" y="551"/>
      <point x="343" y="570" type="curve" smooth="yes"/>
      <point x="343" y="593"/>
      <point x="340" y="607"/>
      <point x="334" y="618" type="curve"/>
      <point x="128" y="578"/>
      <point x="35" y="452"/>
      <point x="35" y="219" type="curve" smooth="yes"/>
      <point x="35" y="42"/>
      <point x="117" y="-79"/>
      <point x="235" y="-79" type="curve" smooth="yes"/>
    </contour>
  </outline>
</glyph>
<glyph name="bn_g_ra_ukaar" format="1">
  <advance width="787"/>
  <outline>
    <contour>
      <point x="564" y="-21" type="curve"/>
      <point x="548" y="39"/>
      <point x="539" y="158"/>
      <point x="539" y="284" type="curve" smooth="yes"/>
      <point x="539" y="350"/>
      <point x="540" y="394"/>
      <point x="548" y="455" type="curve" smooth="yes"/>
      <point x="550" y="473"/>
      <point x="561" y="487"/>
      <point x="591" y="489" type="curve" smooth="yes"/>
      <point x="618" y="492"/>
      <point x="644" y="492"/>
      <point x="666" y="494" type="curve" smooth="yes"/>
      <point x="708" y="498"/>
      <point x="745" y="507"/>
      <point x="787" y="514" type="curve"/>
      <point x="792" y="528"/>
      <point x="796" y="550"/>
      <point x="796" y="570" type="curve" smooth="yes"/>
      <point x="796" y="590"/>
      <point x="792" y="608"/>
      <point x="787" y="618" type="curve"/>
      <point x="742" y="610"/>
      <point x="685" y="592"/>
      <point x="650" y="588" type="curve" smooth="yes"/>
      <point x="618" y="586"/>
      <point x="590" y="584"/>
      <point x="552" y="581" type="curve" smooth="yes"/>
      <point x="501" y="576"/>
      <point x="462" y="557"/>
      <point x="453" y="508" type="curve" smooth="yes"/>
      <point x="435" y="416"/>
      <point x="427" y="285"/>
      <point x="427" y="145" type="curve" smooth="yes"/>
      <point x="427" y="67"/>
      <point x="432" y="4"/>
      <point x="441" y="-29" type="curve"/>
      <point x="470" y="-28" type="line"/>
      <point x="425" y="54"/>
      <point x="386" y="100"/>
      <point x="319" y="100" type="curve" smooth="yes"/>
      <point x="268" y="100"/>
      <point x="200" y="77"/>
      <point x="159" y="77" type="curve" smooth="yes"/>
      <point x="126" y="77"/>
      <point x="101" y="98"/>
      <point x="101" y="136" type="curve" smooth="yes"/>
      <point x="101" y="158"/>
      <point x="109" y="183"/>
      <point x="118" y="202" type="curve"/>
      <point x="98" y="212"/>
      <point x="70" y="218"/>
      <point x="40" y="219" type="curve"/>
      <point x="22" y="185"/>
      <point x="8" y="144"/>
      <point x="8" y="101" type="curve" smooth="yes"/>
      <point x="8" y="22"/>
      <point x="64" y="-31"/>
      <point x="157" y="-31" type="curve" smooth="yes"/>
      <point x="221" y="-31"/>
      <point x="279" y="-9"/>
      <point x="339" y="-9" type="curve" smooth="yes"/>
      <point x="397" y="-9"/>
      <point x="416" y="-35"/>
      <point x="439" y="-59" type="curve"/>
      <point x="484" y="-59"/>
      <point x="532" y="-45"/>
    </contour>
    <contour>
      <point x="432" y="329" type="curve"/>
      <point x="475" y="290" type="line"/>
      <point x="478" y="489"/>
      <point x="402" y="641"/>
      <point x="273" y="641" type="curve" smooth="yes"/>
      <point x="169" y="641"/>
      <point x="103" y="555"/>
      <point x="103" y="449" type="curve" smooth="yes"/>
      <point x="103" y="427"/>
      <point x="107" y="406"/>
      <point x="111" y="386" type="curve"/>
      <point x="151" y="324" type="line"/>
      <point x="199" y="358"/>
      <point x="249" y="378"/>
      <point x="286" y="378" type="curve" smooth="yes"/>
      <point x="302" y="378"/>
      <point x="312" y="370"/>
      <point x="312" y="354" type="curve" smooth="yes"/>
      <point x="312" y="327"/>
      <point x="270" y="282"/>
      <point x="168" y="227" type="curve"/>
      <point x="186" y="195"/>
      <point x="208" y="163"/>
      <point x="242" y="140" type="curve"/>
      <point x="315" y="186"/>
      <point x="383" y="271"/>
      <point x="383" y="331" type="curve" smooth="yes"/>
      <point x="383" y="407"/>
      <point x="331" y="466"/>
      <point x="269" y="466" type="curve" smooth="yes"/>
      <point x="221" y="466"/>
      <point x="176" y="441"/>
      <point x="139" y="411" type="curve"/>
      <point x="217" y="406" type="line"/>
      <point x="203" y="420"/>
      <point x="194" y="440"/>
      <point x="194" y="458" type="curve" smooth="yes"/>
      <point x="194" y="502"/>
      <point x="231" y="524"/>
      <point x="282" y="524" type="curve" smooth="yes"/>
      <point x="349" y="524"/>
      <point x="432" y="459"/>
    </contour>
    <contour>
      <point x="768" y="273" type="curve" smooth="yes"/>
      <point x="768" y="388"/>
      <point x="714" y="452"/>
      <point x="646" y="452" type="curve" smooth="yes"/>
      <point x="611" y="452"/>
      <point x="587" y="434"/>
      <point x="574" y="413" type="curve"/>
      <point x="575" y="367"/>
      <point x="587" y="317"/>
      <point x="604" y="285" type="curve"/>
      <point x="616" y="312"/>
      <point x="639" y="343"/>
      <point x="662" y="343" type="curve" smooth="yes"/>
      <point x="682" y="343"/>
      <point x="695" y="325"/>
      <point x="695" y="293" type="curve" smooth="yes"/>
      <point x="695" y="250"/>
      <point x="668" y="215"/>
      <point x="629" y="215" type="curve" smooth="yes"/>
      <point x="587" y="215"/>
      <point x="530" y="257"/>
      <point x="523" y="343" type="curve"/>
      <point x="504" y="281" type="line"/>
      <point x="529" y="154"/>
      <point x="580" y="90"/>
      <point x="651" y="90" type="curve" smooth="yes"/>
      <point x="722" y="90"/>
      <point x="768" y="166"/>
    </contour>
    <contour>
      <point x="482" y="-29" type="move" name="blwm"/>
    </contour>
    <contour>
      <point x="530" y="690" type="move" name="reph"/>
    </contour>
    <contour>
      <point x="530" y="690" type="move" name="chandrabindu"/>
    </contour>
    <contour>
      <point x="368" y="-31" type="move" name="haln"/>
    </contour>
  </outline>
</glyph>
<glyph name="bn_h_nna" format="1">
  <advance width="657"/>
  <outline>
    <contour>
      <point x="468" y="-117"/>
      <point x="490" y="-92"/>
      <point x="508" y="-67" type="curve"/>
      <point x="402" y="26"/>
      <point x="303" y="98"/>
      <point x="204" y="150" type="curve"/>
      <point x="161" y="106" type="line"/>
      <point x="187" y="103"/>
      <point x="213" y="101"/>
      <point x="236" y="101" type="curve" smooth="yes"/>
      <point x="352" y="101"/>
      <point x="434" y="150"/>
      <point x="434" y="253" type="curve" smooth="yes"/>
      <point x="434" y="374"/>
      <point x="319" y="499"/>
      <point x="199" y="499" type="curve" smooth="yes"/>
      <point x="133" y="499"/>
      <point x="80" y="461"/>
      <point x="80" y="387" type="curve" smooth="yes"/>
      <point x="80" y="359"/>
      <point x="89" y="327"/>
      <point x="112" y="298" type="curve"/>
      <point x="147" y="297"/>
      <point x="194" y="310"/>
      <point x="222" y="327" type="curve"/>
      <point x="207" y="341"/>
      <point x="193" y="356"/>
      <point x="193" y="377" type="curve" smooth="yes"/>
      <point x="193" y="398"/>
      <point x="204" y="412"/>
      <point x="230" y="412" type="curve" smooth="yes"/>
      <point x="278" y="412"/>
      <point x="322" y="360"/>
      <point x="322" y="303" type="curve" smooth="yes"/>
      <point x="322" y="249"/>
      <point x="282" y="223"/>
      <point x="206" y="223" type="curve" smooth="yes"/>
      <point x="159" y="223"/>
      <point x="100" y="232"/>
      <point x="35" y="253" type="curve"/>
      <point x="55" y="115" type="line"/>
      <point x="188" y="73"/>
      <point x="314" y="-6"/>
      <point x="443" y="-138" type="curve"/>
    </contour>
    <contour>
      <point x="85" y="533"/>
      <point x="207" y="541"/>
      <point x="341" y="541" type="curve" smooth="yes"/>
      <point x="467" y="541"/>
      <point x="587" y="532"/>
      <point x="657" y="514" type="curve"/>
      <point x="661" y="528"/>
      <point x="664" y="550"/>
      <point x="664" y="572" type="curve" smooth="yes"/>
      <point x="664" y="589"/>
      <point x="662" y="607"/>
      <point x="657" y="618" type="curve"/>
      <point x="594" y="640"/>
      <point x="469" y="649"/>
      <point x="344" y="649" type="curve" smooth="yes"/>
      <point x="207" y="649"/>
      <point x="82" y="641"/>
      <point x="0" y="618" type="curve"/>
      <point x="-5" y="608"/>
      <point x="-8" y="591"/>
      <point x="-8" y="573" type="curve" smooth="yes"/>
      <point x="-8" y="552"/>
      <point x="-5" y="530"/>
      <point x="0" y="514" type="curve"/>
    </contour>
    <contour>
      <point x="649" y="383"/>
      <point x="603" y="458"/>
      <point x="532" y="458" type="curve" smooth="yes"/>
      <point x="465" y="458"/>
      <point x="418" y="399"/>
      <point x="395" y="281" type="curve"/>
      <point x="414" y="219" type="line"/>
      <point x="419" y="296"/>
      <point x="472" y="333"/>
      <point x="510" y="333" type="curve" smooth="yes"/>
      <point x="549" y="333"/>
      <point x="576" y="298"/>
      <point x="576" y="256" type="curve" smooth="yes"/>
      <point x="576" y="223"/>
      <point x="563" y="205"/>
      <point x="542" y="205" type="curve" smooth="yes"/>
      <point x="520" y="205"/>
      <point x="497" y="237"/>
      <point x="484" y="263" type="curve"/>
      <point x="467" y="232"/>
      <point x="455" y="181"/>
      <point x="455" y="135" type="curve"/>
      <point x="467" y="114"/>
      <point x="492" y="97"/>
      <point x="527" y="97" type="curve" smooth="yes"/>
      <point x="594" y="97"/>
      <point x="649" y="160"/>
      <point x="649" y="275" type="curve" smooth="yes"/>
    </contour>
    <contour>
      <point x="124" y="15" type="move" name="haln"/>
    </contour>
    <contour>
      <point x="346" y="690" type="move" name="chandrabindu"/>
    </contour>
    <contour>
      <point x="346" y="690" type="move" name="reph"/>
    </contour>
    <contour>
      <point x="272" y="40" type="move" name="blwm"/>
    </contour>
  </outline>
</glyph>
<glyph name="bn_iikaar.fl.b" format="1">
  <advance width="265"/>
  <outline>
    <contour>
      <point x="199" y="777"/>
      <point x="22" y="964"/>
      <point x="-224" y="964" type="curve" smooth="yes"/>
      <point x="-334" y="964"/>
      <point x="-409" y="913"/>
      <point x="-409" y="829" type="curve" smooth="yes"/>
      <point x="-409" y="794"/>
      <point x="-394" y="765"/>
      <point x="-367" y="744" type="curve"/>
      <point x="-315" y="770" type="line"/>
      <point x="-330" y="778"/>
      <point x="-341" y="790"/>
      <point x="-341" y="806" type="curve" smooth="yes"/>
      <point x="-341" y="845"/>
      <point x="-294" y="864"/>
      <point x="-216" y="864" type="curve" smooth="yes"/>
      <point x="-11" y="864"/>
      <point x="88" y="773"/>
      <point x="88" y="550" type="curve"/>
      <point x="198" y="494" type="line"/>
    </contour>
    <contour>
      <point x="185" y="112"/>
      <point x="201" y="308"/>
      <point x="199" y="495" type="curve"/>
      <point x="117" y="484" type="line"/>
      <point x="88" y="480" type="line"/>
      <point x="88" y="260"/>
      <point x="67" y="100"/>
      <point x="32" y="-42" type="curve"/>
      <point x="63" y="-54"/>
      <point x="121" y="-64"/>
      <point x="164" y="-64" type="curve"/>
    </contour>
    <contour>
      <point x="134" y="433" type="line"/>
      <point x="123" y="522" type="line"/>
      <point x="123" y="585"/>
      <point x="72" y="622"/>
      <point x="29" y="622" type="curve" smooth="yes"/>
      <point x="21" y="622"/>
      <point x="10" y="621"/>
      <point x="0" y="618" type="curve"/>
      <point x="-3" y="605"/>
      <point x="-7" y="588"/>
      <point x="-7" y="570" type="curve" smooth="yes"/>
      <point x="-7" y="549"/>
      <point x="-4" y="528"/>
      <point x="0" y="514" type="curve"/>
      <point x="7" y="516"/>
      <point x="19" y="517"/>
      <point x="26" y="517" type="curve" smooth="yes"/>
      <point x="74" y="517"/>
      <point x="87" y="483"/>
      <point x="87" y="425" type="curve"/>
    </contour>
    <contour>
      <point x="196" y="483"/>
      <point x="223" y="505"/>
      <point x="265" y="514" type="curve"/>
      <point x="276" y="549"/>
      <point x="277" y="601"/>
      <point x="265" y="618" type="curve"/>
      <point x="184" y="602"/>
      <point x="119" y="560"/>
      <point x="94" y="502" type="curve"/>
      <point x="183" y="450" type="line"/>
    </contour>
  </outline>
</glyph>
<glyph name="bn_iikaar.wi2.b" format="1">
  <advance width="265"/>
  <outline>
    <contour>
      <point x="199" y="767"/>
      <point x="-2" y="943"/>
      <point x="-363" y="943" type="curve" smooth="yes"/>
      <point x="-566" y="943"/>
      <point x="-654" y="888"/>
      <point x="-654" y="803" type="curve" smooth="yes"/>
      <point x="-654" y="729"/>
      <point x="-589" y="687"/>
      <point x="-470" y="687" type="curve" smooth="yes"/>
      <point x="-337" y="687"/>
      <point x="-270" y="715"/>
      <point x="-217" y="715" type="curve" smooth="yes"/>
      <point x="-191" y="715"/>
      <point x="-171" y="703"/>
      <point x="-156" y="683" type="curve"/>
      <point x="-141" y="703"/>
      <point x="-128" y="734"/>
      <point x="-122" y="759" type="curve"/>
      <point x="-143" y="775"/>
      <point x="-172" y="788"/>
      <point x="-208" y="788" type="curve" smooth="yes"/>
      <point x="-280" y="788"/>
      <point x="-328" y="762"/>
      <point x="-466" y="762" type="curve" smooth="yes"/>
      <point x="-544" y="762"/>
      <point x="-579" y="769"/>
      <point x="-579" y="792" type="curve" smooth="yes"/>
      <point x="-579" y="818"/>
      <point x="-524" y="838"/>
      <point x="-364" y="838" type="curve" smooth="yes"/>
      <point x="-31" y="838"/>
      <point x="88" y="756"/>
      <point x="88" y="550" type="curve"/>
      <point x="198" y="494" type="line"/>
    </contour>
    <contour>
      <point x="185" y="112"/>
      <point x="201" y="308"/>
      <point x="199" y="495" type="curve"/>
      <point x="117" y="484" type="line"/>
      <point x="88" y="480" type="line"/>
      <point x="88" y="260"/>
      <point x="67" y="100"/>
      <point x="32" y="-42" type="curve"/>
      <point x="63" y="-54"/>
      <point x="121" y="-64"/>
      <point x="164" y="-64" type="curve"/>
    </contour>
    <contour>
      <point x="134" y="433" type="line"/>
      <point x="123" y="522" type="line"/>
      <point x="123" y="585"/>
      <point x="72" y="622"/>
      <point x="29" y="622" type="curve" smooth="yes"/>
      <point x="21" y="622"/>
      <point x="10" y="621"/>
      <point x="0" y="618" type="curve"/>
      <point x="-3" y="605"/>
      <point x="-7" y="588"/>
      <point x="-7" y="570" type="curve" smooth="yes"/>
      <point x="-7" y="549"/>
      <point x="-4" y="528"/>
      <point x="0" y="514" type="curve"/>
      <point x="7" y="516"/>
      <point x="19" y="517"/>
      <point x="26" y="517" type="curve" smooth="yes"/>
      <point x="74" y="517"/>
      <point x="87" y="483"/>
      <point x="87" y="425" type="curve"/>
    </contour>
    <contour>
      <point x="196" y="483"/>
      <point x="223" y="505"/>
      <point x="265" y="514" type="curve"/>
      <point x="276" y="549"/>
      <point x="277" y="601"/>
      <point x="265" y="618" type="curve"/>
      <point x="184" y="602"/>
      <point x="119" y="560"/>
      <point x="94" y="502" type="curve"/>
      <point x="183" y="450" type="line"/>
    </contour>
  </outline>
</glyph>
<glyph name="bn_j_j_ba" format="1">
  <advance width="1036"/>
  <outline>
    <contour>
      <point x="953" y="-250"/>
      <point x="1009" y="-241"/>
      <point x="1031" y="-231" type="curve"/>
      <point x="1005" y="-115"/>
      <point x="987" y="-7"/>
      <point x="987" y="99" type="curve" smooth="yes"/>
      <point x="987" y="180"/>
      <point x="998" y="253"/>
      <point x="1020" y="321" type="curve"/>
      <point x="1005" y="364"/>
      <point x="979" y="397"/>
      <point x="951" y="416" type="curve"/>
      <point x="930" y="404"/>
      <point x="907" y="393"/>
      <point x="871" y="393" type="curve" smooth="yes"/>
      <point x="780" y="393"/>
      <point x="714" y="441"/>
      <point x="676" y="508" type="curve"/>
      <point x="650" y="496"/>
      <point x="621" y="484"/>
      <point x="570" y="484" type="curve" smooth="yes"/>
      <point x="483" y="484"/>
      <point x="420" y="514"/>
      <point x="381" y="568" type="curve"/>
      <point x="316" y="553" type="line"/>
      <point x="351" y="462"/>
      <point x="446" y="395"/>
      <point x="560" y="395" type="curve" smooth="yes"/>
      <point x="608" y="395"/>
      <point x="649" y="416"/>
      <point x="667" y="434" type="curve"/>
      <point x="632" y="458" type="line"/>
      <point x="672" y="367"/>
      <point x="784" y="294"/>
      <point x="912" y="294" type="curve" smooth="yes"/>
      <point x="960" y="294"/>
      <point x="980" y="310"/>
      <point x="992" y="328" type="curve"/>
      <point x="936" y="323" type="line"/>
      <point x="905" y="252"/>
      <point x="887" y="151"/>
      <point x="887" y="60" type="curve" smooth="yes"/>
      <point x="887" y="-49"/>
      <point x="905" y="-155"/>
      <point x="927" y="-250" type="curve"/>
    </contour>
    <contour>
      <point x="403" y="39"/>
      <point x="461" y="123"/>
      <point x="461" y="244" type="curve" smooth="yes"/>
      <point x="461" y="283"/>
      <point x="455" y="323"/>
      <point x="445" y="357" type="curve"/>
      <point x="421" y="381"/>
      <point x="388" y="406"/>
      <point x="361" y="420" type="curve"/>
      <point x="334" y="380"/>
      <point x="297" y="347"/>
      <point x="274" y="347" type="curve" smooth="yes"/>
      <point x="263" y="347"/>
      <point x="250" y="354"/>
      <point x="250" y="378" type="curve" smooth="yes"/>
      <point x="250" y="417"/>
      <point x="287" y="507"/>
      <point x="329" y="560" type="curve"/>
      <point x="213" y="565" type="line"/>
      <point x="195" y="526"/>
      <point x="172" y="456"/>
      <point x="172" y="403" type="curve" smooth="yes"/>
      <point x="172" y="314"/>
      <point x="239" y="258"/>
      <point x="303" y="258" type="curve" smooth="yes"/>
      <point x="346" y="258"/>
      <point x="380" y="286"/>
      <point x="413" y="312" type="curve"/>
      <point x="382" y="365" type="line"/>
      <point x="387" y="337"/>
      <point x="391" y="307"/>
      <point x="391" y="276" type="curve" smooth="yes"/>
      <point x="391" y="201"/>
      <point x="369" y="148"/>
      <point x="304" y="148" type="curve" smooth="yes"/>
      <point x="209" y="148"/>
      <point x="138" y="262"/>
      <point x="90" y="461" type="curve"/>
      <point x="62" y="454"/>
      <point x="34" y="446"/>
      <point x="8" y="436" type="curve"/>
      <point x="48" y="258"/>
      <point x="123" y="39"/>
      <point x="297" y="39" type="curve" smooth="yes"/>
    </contour>
    <contour>
      <point x="760" y="-53"/>
      <point x="820" y="29"/>
      <point x="820" y="153" type="curve" smooth="yes"/>
      <point x="820" y="194"/>
      <point x="815" y="236"/>
      <point x="803" y="273" type="curve"/>
      <point x="777" y="292"/>
      <point x="742" y="313"/>
      <point x="714" y="326" type="curve"/>
      <point x="685" y="288"/>
      <point x="646" y="261"/>
      <point x="621" y="261" type="curve" smooth="yes"/>
      <point x="609" y="261"/>
      <point x="595" y="268"/>
      <point x="595" y="294" type="curve" smooth="yes"/>
      <point x="595" y="331"/>
      <point x="640" y="406"/>
      <point x="688" y="458" type="curve"/>
      <point x="566" y="470" type="line"/>
      <point x="545" y="431"/>
      <point x="515" y="367"/>
      <point x="515" y="316" type="curve" smooth="yes"/>
      <point x="515" y="224"/>
      <point x="583" y="169"/>
      <point x="649" y="169" type="curve" smooth="yes"/>
      <point x="696" y="169"/>
      <point x="735" y="199"/>
      <point x="770" y="228" type="curve"/>
      <point x="739" y="281" type="line"/>
      <point x="745" y="251"/>
      <point x="749" y="219"/>
      <point x="749" y="186" type="curve" smooth="yes"/>
      <point x="749" y="109"/>
      <point x="722" y="54"/>
      <point x="654" y="54" type="curve" smooth="yes"/>
      <point x="559" y="54"/>
      <point x="491" y="161"/>
      <point x="445" y="357" type="curve"/>
      <point x="412" y="183" type="line"/>
      <point x="453" y="56"/>
      <point x="525" y="-53"/>
      <point x="656" y="-53" type="curve" smooth="yes"/>
    </contour>
    <contour>
      <point x="95" y="533"/>
      <point x="292" y="554"/>
      <point x="517" y="554" type="curve" smooth="yes"/>
      <point x="743" y="554"/>
      <point x="939" y="533"/>
      <point x="1036" y="514" type="curve"/>
      <point x="1041" y="527"/>
      <point x="1045" y="549"/>
      <point x="1045" y="573" type="curve" smooth="yes"/>
      <point x="1045" y="590"/>
      <point x="1042" y="610"/>
      <point x="1036" y="618" type="curve"/>
      <point x="944" y="640"/>
      <point x="746" y="662"/>
      <point x="519" y="662" type="curve" smooth="yes"/>
      <point x="292" y="662"/>
      <point x="93" y="640"/>
      <point x="0" y="618" type="curve"/>
      <point x="-5" y="610"/>
      <point x="-8" y="591"/>
      <point x="-8" y="573" type="curve" smooth="yes"/>
      <point x="-8" y="549"/>
      <point x="-4" y="528"/>
      <point x="0" y="514" type="curve"/>
    </contour>
    <contour>
      <point x="942" y="-218" type="line"/>
      <point x="895" y="-164"/>
      <point x="839" y="-137"/>
      <point x="780" y="-129" type="curve"/>
      <point x="766" y="-164" type="line"/>
      <point x="824" y="-123"/>
      <point x="898" y="-87"/>
      <point x="957" y="-67" type="curve"/>
      <point x="918" y="16" type="line"/>
      <point x="829" y="-18"/>
      <point x="743" y="-57"/>
      <point x="677" y="-101" type="curve"/>
      <point x="676" y="-135"/>
      <point x="687" y="-163"/>
      <point x="708" y="-194" type="curve"/>
      <point x="791" y="-199"/>
      <point x="862" y="-207"/>
      <point x="927" y="-250" type="curve"/>
    </contour>
    <contour>
      <point x="959" y="-230" type="move" name="blwm"/>
    </contour>
    <contour>
      <point x="815" y="-237" type="move" name="haln"/>
    </contour>
    <contour>
      <point x="773" y="690" type="move" name="reph"/>
    </contour>
    <contour>
      <point x="773" y="690" type="move" name="chandrabindu"/>
    </contour>
  </outline>
</glyph>
<glyph name="bn_k_ta" format="1">
  <advance width="826"/>
  <outline>
    <contour>
      <point x="538" y="-10"/>
      <point x="605" y="59"/>
      <point x="605" y="141" type="curve" smooth="yes"/>
      <point x="605" y="195"/>
      <point x="570" y="247"/>
      <point x="511" y="276" type="curve"/>
      <point x="478" y="222" type="line"/>
      <point x="501" y="212"/>
      <point x="517" y="190"/>
      <point x="517" y="165" type="curve" smooth="yes"/>
      <point x="517" y="126"/>
      <point x="484" y="99"/>
      <point x="427" y="99" type="curve" smooth="yes"/>
      <point x="288" y="99"/>
      <point x="135" y="229"/>
      <point x="79" y="456" type="curve"/>
      <point x="54" y="447"/>
      <point x="25" y="436"/>
      <point x="6" y="419" type="curve"/>
      <point x="58" y="179"/>
      <point x="208" y="-10"/>
      <point x="419" y="-10" type="curve" smooth="yes"/>
    </contour>
    <contour>
      <point x="467" y="165"/>
      <point x="502" y="194"/>
      <point x="521" y="241" type="curve"/>
      <point x="469" y="288" type="line"/>
      <point x="454" y="260"/>
      <point x="434" y="240"/>
      <point x="412" y="240" type="curve" smooth="yes"/>
      <point x="396" y="240"/>
      <point x="384" y="249"/>
      <point x="384" y="265" type="curve" smooth="yes"/>
      <point x="384" y="280"/>
      <point x="395" y="294"/>
      <point x="414" y="294" type="curve" smooth="yes"/>
      <point x="437" y="294"/>
      <point x="457" y="274"/>
      <point x="469" y="242" type="curve"/>
      <point x="498" y="297" type="line"/>
      <point x="483" y="321"/>
      <point x="453" y="342"/>
      <point x="419" y="342" type="curve" smooth="yes"/>
      <point x="373" y="342"/>
      <point x="332" y="305"/>
      <point x="332" y="253" type="curve" smooth="yes"/>
      <point x="332" y="198"/>
      <point x="376" y="165"/>
      <point x="424" y="165" type="curve" smooth="yes"/>
    </contour>
    <contour>
      <point x="90" y="533"/>
      <point x="257" y="546"/>
      <point x="405" y="546" type="curve" smooth="yes"/>
      <point x="551" y="546"/>
      <point x="737" y="533"/>
      <point x="826" y="514" type="curve"/>
      <point x="830" y="528"/>
      <point x="834" y="549"/>
      <point x="834" y="571" type="curve" smooth="yes"/>
      <point x="834" y="590"/>
      <point x="831" y="607"/>
      <point x="826" y="618" type="curve"/>
      <point x="748" y="640"/>
      <point x="557" y="654"/>
      <point x="409" y="654" type="curve" smooth="yes"/>
      <point x="260" y="654"/>
      <point x="87" y="640"/>
      <point x="0" y="618" type="curve"/>
      <point x="-6" y="607"/>
      <point x="-8" y="590"/>
      <point x="-8" y="572" type="curve" smooth="yes"/>
      <point x="-8" y="551"/>
      <point x="-4" y="527"/>
      <point x="0" y="514" type="curve"/>
    </contour>
    <contour>
      <point x="562" y="258"/>
      <point x="587" y="303"/>
      <point x="587" y="350" type="curve" smooth="yes"/>
      <point x="587" y="427"/>
      <point x="511" y="491"/>
      <point x="409" y="491" type="curve" smooth="yes"/>
      <point x="287" y="491"/>
      <point x="188" y="403"/>
      <point x="190" y="295" type="curve"/>
      <point x="213" y="272"/>
      <point x="262" y="250"/>
      <point x="295" y="250" type="curve"/>
      <point x="292" y="259"/>
      <point x="290" y="270"/>
      <point x="290" y="280" type="curve" smooth="yes"/>
      <point x="290" y="356"/>
      <point x="355" y="414"/>
      <point x="435" y="414" type="curve" smooth="yes"/>
      <point x="474" y="414"/>
      <point x="500" y="397"/>
      <point x="500" y="367" type="curve" smooth="yes"/>
      <point x="500" y="336"/>
      <point x="484" y="313"/>
      <point x="460" y="290" type="curve"/>
      <point x="526" y="225" type="line"/>
    </contour>
    <contour>
      <point x="794" y="379"/>
      <point x="753" y="453"/>
      <point x="688" y="453" type="curve" smooth="yes"/>
      <point x="624" y="453"/>
      <point x="552" y="388"/>
      <point x="526" y="262" type="curve"/>
      <point x="546" y="199" type="line"/>
      <point x="553" y="286"/>
      <point x="630" y="331"/>
      <point x="669" y="331" type="curve" smooth="yes"/>
      <point x="705" y="331"/>
      <point x="729" y="297"/>
      <point x="729" y="255" type="curve" smooth="yes"/>
      <point x="729" y="223"/>
      <point x="719" y="209"/>
      <point x="702" y="209" type="curve" smooth="yes"/>
      <point x="683" y="209"/>
      <point x="664" y="236"/>
      <point x="653" y="263" type="curve"/>
      <point x="638" y="231"/>
      <point x="627" y="182"/>
      <point x="626" y="138" type="curve"/>
      <point x="638" y="118"/>
      <point x="658" y="103"/>
      <point x="688" y="103" type="curve" smooth="yes"/>
      <point x="747" y="103"/>
      <point x="794" y="162"/>
      <point x="794" y="275" type="curve" smooth="yes"/>
    </contour>
    <contour>
      <point x="413" y="0" type="move" name="blwm"/>
    </contour>
    <contour>
      <point x="419" y="690" type="move" name="reph"/>
    </contour>
    <contour>
      <point x="419" y="690" type="move" name="chandrabindu"/>
    </contour>
    <contour>
      <point x="278" y="0" type="move" name="haln"/>
    </contour>
  </outline>
</glyph>
<glyph name="bn_m_bha" format="1">
  <advance width="684"/>
  <outline>
    <contour>
      <point x="651" y="68" type="curve" smooth="yes"/>
      <point x="651" y="125"/>
      <point x="636" y="182"/>
      <point x="614" y="230" type="curve"/>
      <point x="593" y="248"/>
      <point x="567" y="270"/>
      <point x="544" y="283" type="curve"/>
      <point x="489" y="209"/>
      <point x="438" y="156"/>
      <point x="398" y="156" type="curve" smooth="yes"/>
      <point x="381" y="156"/>
      <point x="371" y="164"/>
      <point x="371" y="177" type="curve" smooth="yes"/>
      <point x="371" y="194"/>
      <point x="397" y="212"/>
      <point x="429" y="218" type="curve"/>
      <point x="416" y="245"/>
      <point x="382" y="270"/>
      <point x="352" y="275" type="curve"/>
      <point x="315" y="262"/>
      <point x="274" y="228"/>
      <point x="274" y="176" type="curve" smooth="yes"/>
      <point x="274" y="111"/>
      <point x="334" y="62"/>
      <point x="404" y="62" type="curve" smooth="yes"/>
      <point x="474" y="62"/>
      <point x="528" y="110"/>
      <point x="589" y="196" type="curve"/>
      <point x="548" y="195" type="line"/>
      <point x="558" y="167"/>
      <point x="567" y="132"/>
      <point x="567" y="100" type="curve" smooth="yes"/>
      <point x="567" y="27"/>
      <point x="523" y="-14"/>
      <point x="436" y="-14" type="curve" smooth="yes"/>
      <point x="275" y="-14"/>
      <point x="132" y="143"/>
      <point x="84" y="385" type="curve"/>
      <point x="55" y="376"/>
      <point x="28" y="365"/>
      <point x="2" y="352" type="curve"/>
      <point x="31" y="146"/>
      <point x="174" y="-122"/>
      <point x="432" y="-122" type="curve" smooth="yes"/>
      <point x="571" y="-122"/>
      <point x="651" y="-45"/>
    </contour>
    <contour>
      <point x="372" y="544" type="curve" smooth="yes"/>
      <point x="498" y="544"/>
      <point x="608" y="530"/>
      <point x="684" y="514" type="curve"/>
      <point x="689" y="528"/>
      <point x="692" y="549"/>
      <point x="692" y="570" type="curve" smooth="yes"/>
      <point x="692" y="589"/>
      <point x="690" y="607"/>
      <point x="684" y="618" type="curve"/>
      <point x="614" y="637"/>
      <point x="512" y="652"/>
      <point x="379" y="652" type="curve" smooth="yes"/>
      <point x="212" y="652"/>
      <point x="90" y="641"/>
      <point x="0" y="618" type="curve"/>
      <point x="-6" y="608"/>
      <point x="-8" y="591"/>
      <point x="-8" y="571" type="curve" smooth="yes"/>
      <point x="-8" y="550"/>
      <point x="-4" y="527"/>
      <point x="0" y="514" type="curve"/>
      <point x="93" y="534"/>
      <point x="213" y="544"/>
    </contour>
    <contour>
      <point x="656" y="417" type="curve" smooth="yes"/>
      <point x="656" y="501"/>
      <point x="596" y="562"/>
      <point x="505" y="598" type="curve"/>
      <point x="454" y="544" type="line"/>
      <point x="543" y="540"/>
      <point x="573" y="498"/>
      <point x="573" y="455" type="curve" smooth="yes"/>
      <point x="573" y="413"/>
      <point x="539" y="375"/>
      <point x="476" y="375" type="curve" smooth="yes"/>
      <point x="433" y="375"/>
      <point x="384" y="395"/>
      <point x="367" y="432" type="curve"/>
      <point x="304" y="375" type="line"/>
      <point x="339" y="307"/>
      <point x="415" y="261"/>
      <point x="497" y="261" type="curve" smooth="yes"/>
      <point x="586" y="261"/>
      <point x="656" y="319"/>
    </contour>
    <contour>
      <point x="368" y="366" type="curve"/>
      <point x="310" y="433" type="line"/>
      <point x="307" y="386"/>
      <point x="282" y="365"/>
      <point x="247" y="365" type="curve" smooth="yes"/>
      <point x="217" y="365"/>
      <point x="198" y="380"/>
      <point x="198" y="404" type="curve" smooth="yes"/>
      <point x="198" y="425"/>
      <point x="213" y="441"/>
      <point x="235" y="441" type="curve" smooth="yes"/>
      <point x="266" y="441"/>
      <point x="296" y="413"/>
      <point x="310" y="361" type="curve"/>
      <point x="342" y="429" type="line"/>
      <point x="323" y="476"/>
      <point x="282" y="504"/>
      <point x="236" y="504" type="curve" smooth="yes"/>
      <point x="173" y="504"/>
      <point x="127" y="455"/>
      <point x="127" y="383" type="curve" smooth="yes"/>
      <point x="127" y="307"/>
      <point x="183" y="263"/>
      <point x="244" y="263" type="curve" smooth="yes"/>
      <point x="303" y="263"/>
      <point x="352" y="304"/>
    </contour>
    <contour>
      <point x="409" y="440" type="curve" smooth="yes"/>
      <point x="409" y="497"/>
      <point x="376" y="544"/>
      <point x="326" y="572" type="curve"/>
      <point x="239" y="553" type="line"/>
      <point x="285" y="534"/>
      <point x="328" y="512"/>
      <point x="328" y="473" type="curve" smooth="yes"/>
      <point x="328" y="449"/>
      <point x="312" y="439"/>
      <point x="302" y="434" type="curve"/>
      <point x="358" y="326" type="line"/>
      <point x="387" y="359"/>
      <point x="409" y="395"/>
    </contour>
    <contour>
      <point x="448" y="-102" type="move" name="blwm"/>
    </contour>
    <contour>
      <point x="256" y="-102" type="move" name="haln"/>
    </contour>
    <contour>
      <point x="386" y="690" type="move" name="reph"/>
    </contour>
    <contour>
      <point x="386" y="690" type="move" name="chandrabindu"/>
    </contour>
  </outline>
</glyph>
<glyph name="bn_m_p_ra" format="1">
  <advance width="1154"/>
  <outline>
    <contour>
      <point x="1104" y="-21" type="curve"/>
      <point x="1089" y="39"/>
      <point x="1079" y="158"/>
      <point x="1079" y="284" type="curve" smooth="yes"/>
      <point x="1079" y="350"/>
      <point x="1081" y="394"/>
      <point x="1088" y="455" type="curve" smooth="yes"/>
      <point x="1091" y="479"/>
      <point x="1097" y="495"/>
      <point x="1118" y="503" type="curve" smooth="yes"/>
      <point x="1130" y="507"/>
      <point x="1142" y="511"/>
      <point x="1154" y="514" type="curve"/>
      <point x="1158" y="528"/>
      <point x="1162" y="550"/>
      <point x="1162" y="570" type="curve" smooth="yes"/>
      <point x="1162" y="590"/>
      <point x="1159" y="608"/>
      <point x="1154" y="618" type="curve"/>
      <point x="1113" y="611"/>
      <point x="1078" y="601"/>
      <point x="1046" y="588" type="curve" smooth="yes"/>
      <point x="1016" y="576"/>
      <point x="1001" y="547"/>
      <point x="994" y="514" type="curve" smooth="yes"/>
      <point x="975" y="416"/>
      <point x="967" y="285"/>
      <point x="967" y="145" type="curve" smooth="yes"/>
      <point x="967" y="67"/>
      <point x="972" y="4"/>
      <point x="981" y="-29" type="curve"/>
      <point x="1011" y="-28" type="line"/>
      <point x="958" y="68"/>
      <point x="892" y="104"/>
      <point x="800" y="104" type="curve" smooth="yes"/>
      <point x="699" y="104"/>
      <point x="565" y="69"/>
      <point x="485" y="69" type="curve" smooth="yes"/>
      <point x="438" y="69"/>
      <point x="403" y="90"/>
      <point x="403" y="130" type="curve" smooth="yes"/>
      <point x="403" y="151"/>
      <point x="411" y="176"/>
      <point x="420" y="195" type="curve"/>
      <point x="400" y="205"/>
      <point x="372" y="212"/>
      <point x="341" y="212" type="curve"/>
      <point x="324" y="178"/>
      <point x="310" y="137"/>
      <point x="310" y="95" type="curve" smooth="yes"/>
      <point x="310" y="16"/>
      <point x="374" y="-37"/>
      <point x="478" y="-37" type="curve" smooth="yes"/>
      <point x="593" y="-37"/>
      <point x="705" y="0"/>
      <point x="805" y="0" type="curve" smooth="yes"/>
      <point x="889" y="0"/>
      <point x="930" y="-26"/>
      <point x="980" y="-59" type="curve"/>
      <point x="1024" y="-59"/>
      <point x="1073" y="-45"/>
    </contour>
    <contour>
      <point x="985" y="426" type="curve"/>
      <point x="934" y="524" type="line"/>
      <point x="859" y="424"/>
      <point x="756" y="335"/>
      <point x="672" y="274" type="curve"/>
      <point x="693" y="234"/>
      <point x="722" y="201"/>
      <point x="759" y="175" type="curve"/>
      <point x="848" y="249"/>
      <point x="939" y="345"/>
    </contour>
    <contour>
      <point x="791" y="641" type="curve" smooth="yes"/>
      <point x="702" y="641"/>
      <point x="617" y="582"/>
      <point x="559" y="502" type="curve"/>
      <point x="565" y="467"/>
      <point x="577" y="433"/>
      <point x="595" y="400" type="curve"/>
      <point x="646" y="395"/>
      <point x="704" y="370"/>
      <point x="704" y="326" type="curve" smooth="yes"/>
      <point x="704" y="308"/>
      <point x="697" y="292"/>
      <point x="681" y="280" type="curve"/>
      <point x="744" y="326" type="line"/>
      <point x="758" y="335"/>
      <point x="768" y="356"/>
      <point x="768" y="380" type="curve" smooth="yes"/>
      <point x="768" y="420"/>
      <point x="722" y="459"/>
      <point x="676" y="479" type="curve"/>
      <point x="668" y="432" type="line"/>
      <point x="714" y="497"/>
      <point x="755" y="530"/>
      <point x="810" y="530" type="curve" smooth="yes"/>
      <point x="890" y="530"/>
      <point x="974" y="460"/>
      <point x="974" y="323" type="curve"/>
      <point x="1015" y="264" type="line"/>
      <point x="1024" y="474"/>
      <point x="946" y="641"/>
    </contour>
    <contour>
      <point x="288" y="654" type="curve"/>
      <point x="176" y="654"/>
      <point x="69" y="636"/>
      <point x="0" y="618" type="curve"/>
      <point x="-6" y="607"/>
      <point x="-8" y="590"/>
      <point x="-8" y="572" type="curve" smooth="yes"/>
      <point x="-8" y="551"/>
      <point x="-4" y="527"/>
      <point x="0" y="514" type="curve"/>
      <point x="70" y="529"/>
      <point x="171" y="547"/>
      <point x="284" y="547" type="curve"/>
      <point x="463" y="547"/>
      <point x="519" y="500"/>
      <point x="519" y="455" type="curve" smooth="yes"/>
      <point x="519" y="413"/>
      <point x="484" y="375"/>
      <point x="421" y="375" type="curve" smooth="yes"/>
      <point x="378" y="375"/>
      <point x="329" y="395"/>
      <point x="313" y="432" type="curve"/>
      <point x="249" y="375" type="line"/>
      <point x="284" y="307"/>
      <point x="361" y="261"/>
      <point x="442" y="261" type="curve" smooth="yes"/>
      <point x="531" y="261"/>
      <point x="602" y="319"/>
      <point x="602" y="417" type="curve" smooth="yes"/>
      <point x="602" y="555"/>
      <point x="470" y="654"/>
    </contour>
    <contour>
      <point x="313" y="366" type="curve"/>
      <point x="255" y="433" type="line"/>
      <point x="252" y="386"/>
      <point x="227" y="365"/>
      <point x="192" y="365" type="curve" smooth="yes"/>
      <point x="162" y="365"/>
      <point x="143" y="380"/>
      <point x="143" y="404" type="curve" smooth="yes"/>
      <point x="143" y="425"/>
      <point x="158" y="441"/>
      <point x="181" y="441" type="curve" smooth="yes"/>
      <point x="211" y="441"/>
      <point x="241" y="413"/>
      <point x="255" y="361" type="curve"/>
      <point x="288" y="429" type="line"/>
      <point x="268" y="476"/>
      <point x="227" y="504"/>
      <point x="181" y="504" type="curve" smooth="yes"/>
      <point x="118" y="504"/>
      <point x="72" y="455"/>
      <point x="72" y="383" type="curve" smooth="yes"/>
      <point x="72" y="307"/>
      <point x="128" y="263"/>
      <point x="189" y="263" type="curve" smooth="yes"/>
      <point x="248" y="263"/>
      <point x="298" y="304"/>
    </contour>
    <contour>
      <point x="354" y="440" type="curve" smooth="yes"/>
      <point x="354" y="497"/>
      <point x="322" y="544"/>
      <point x="271" y="572" type="curve"/>
      <point x="185" y="553" type="line"/>
      <point x="230" y="534"/>
      <point x="273" y="512"/>
      <point x="273" y="473" type="curve" smooth="yes"/>
      <point x="273" y="449"/>
      <point x="258" y="439"/>
      <point x="247" y="434" type="curve"/>
      <point x="303" y="326" type="line"/>
      <point x="332" y="359"/>
      <point x="354" y="395"/>
    </contour>
    <contour>
      <point x="1025" y="-36" type="move" name="blwm"/>
    </contour>
    <contour>
      <point x="844" y="-30" type="move" name="haln"/>
    </contour>
    <contour>
      <point x="1036" y="690" type="move" name="reph"/>
    </contour>
    <contour>
      <point x="1036" y="690" type="move" name="chandrabindu"/>
    </contour>
  </outline>
</glyph>
<glyph name="bn_m_ra" format="1">
  <advance width="591"/>
  <outline>
    <contour>
      <point x="493" y="261"/>
      <point x="563" y="319"/>
      <point x="563" y="417" type="curve" smooth="yes"/>
      <point x="563" y="501"/>
      <point x="503" y="562"/>
      <point x="412" y="598" type="curve"/>
      <point x="361" y="544" type="line"/>
      <point x="450" y="540"/>
      <point x="480" y="498"/>
      <point x="480" y="455" type="curve" smooth="yes"/>
      <point x="480" y="413"/>
      <point x="446" y="375"/>
      <point x="383" y="375" type="curve" smooth="yes"/>
      <point x="340" y="375"/>
      <point x="291" y="395"/>
      <point x="274" y="432" type="curve"/>
      <point x="211" y="375" type="line"/>
      <point x="246" y="307"/>
      <point x="322" y="261"/>
      <point x="404" y="261" type="curve" smooth="yes"/>
    </contour>
    <contour>
      <point x="210" y="263"/>
      <point x="259" y="304"/>
      <point x="275" y="366" type="curve"/>
      <point x="217" y="433" type="line"/>
      <point x="214" y="386"/>
      <point x="189" y="365"/>
      <point x="154" y="365" type="curve" smooth="yes"/>
      <point x="124" y="365"/>
      <point x="105" y="380"/>
      <point x="105" y="404" type="curve" smooth="yes"/>
      <point x="105" y="425"/>
      <point x="120" y="441"/>
      <point x="142" y="441" type="curve" smooth="yes"/>
      <point x="173" y="441"/>
      <point x="203" y="413"/>
      <point x="217" y="361" type="curve"/>
      <point x="249" y="429" type="line"/>
      <point x="230" y="476"/>
      <point x="189" y="504"/>
      <point x="143" y="504" type="curve" smooth="yes"/>
      <point x="80" y="504"/>
      <point x="34" y="455"/>
      <point x="34" y="383" type="curve" smooth="yes"/>
      <point x="34" y="307"/>
      <point x="90" y="263"/>
      <point x="151" y="263" type="curve" smooth="yes"/>
    </contour>
    <contour>
      <point x="452" y="-70"/>
      <point x="494" y="-66"/>
      <point x="525" y="-56" type="curve"/>
      <point x="510" y="17"/>
      <point x="504" y="148"/>
      <point x="504" y="243" type="curve" smooth="yes"/>
      <point x="504" y="277"/>
      <point x="504" y="314"/>
      <point x="506" y="338" type="curve"/>
      <point x="406" y="311" type="line"/>
      <point x="402" y="247"/>
      <point x="400" y="174"/>
      <point x="400" y="108" type="curve" smooth="yes"/>
      <point x="400" y="13"/>
      <point x="405" y="-24"/>
      <point x="407" y="-70" type="curve"/>
    </contour>
    <contour>
      <point x="294" y="359"/>
      <point x="316" y="395"/>
      <point x="316" y="440" type="curve" smooth="yes"/>
      <point x="316" y="497"/>
      <point x="283" y="544"/>
      <point x="233" y="572" type="curve"/>
      <point x="146" y="553" type="line"/>
      <point x="192" y="534"/>
      <point x="235" y="512"/>
      <point x="235" y="473" type="curve" smooth="yes"/>
      <point x="235" y="449"/>
      <point x="219" y="439"/>
      <point x="209" y="434" type="curve"/>
      <point x="265" y="326" type="line"/>
    </contour>
    <contour>
      <point x="77" y="530"/>
      <point x="167" y="545"/>
      <point x="287" y="545" type="curve" smooth="yes"/>
      <point x="407" y="545"/>
      <point x="514" y="530"/>
      <point x="591" y="514" type="curve"/>
      <point x="596" y="528"/>
      <point x="599" y="550"/>
      <point x="599" y="571" type="curve" smooth="yes"/>
      <point x="599" y="589"/>
      <point x="597" y="607"/>
      <point x="591" y="618" type="curve"/>
      <point x="523" y="637"/>
      <point x="422" y="653"/>
      <point x="295" y="653" type="curve" smooth="yes"/>
      <point x="166" y="653"/>
      <point x="75" y="637"/>
      <point x="0" y="618" type="curve"/>
      <point x="-6" y="608"/>
      <point x="-8" y="591"/>
      <point x="-8" y="572" type="curve" smooth="yes"/>
      <point x="-8" y="551"/>
      <point x="-4" y="528"/>
      <point x="0" y="514" type="curve"/>
    </contour>
    <contour>
      <point x="428" y="-32" type="line"/>
      <point x="404" y="80"/>
      <point x="335" y="101"/>
      <point x="262" y="101" type="curve" smooth="yes"/>
      <point x="228" y="101"/>
      <point x="188" y="90"/>
      <point x="161" y="90" type="curve" smooth="yes"/>
      <point x="130" y="90"/>
      <point x="107" y="106"/>
      <point x="107" y="138" type="curve" smooth="yes"/>
      <point x="107" y="159"/>
      <point x="114" y="182"/>
      <point x="122" y="201" type="curve"/>
      <point x="102" y="210"/>
      <point x="74" y="217"/>
      <point x="43" y="217" type="curve"/>
      <point x="27" y="184"/>
      <point x="13" y="144"/>
      <point x="13" y="103" type="curve" smooth="yes"/>
      <point x="13" y="30"/>
      <point x="68" y="-18"/>
      <point x="159" y="-18" type="curve" smooth="yes"/>
      <point x="200" y="-18"/>
      <point x="242" y="-7"/>
      <point x="281" y="-7" type="curve" smooth="yes"/>
      <point x="349" y="-7"/>
      <point x="388" y="-32"/>
      <point x="407" y="-70" type="curve"/>
    </contour>
    <contour>
      <point x="445" y="-55" type="move" name="blwm"/>
    </contour>
    <contour>
      <point x="291" y="-49" type="move" name="haln"/>
    </contour>
    <contour>
      <point x="465" y="690" type="move" name="reph"/>
    </contour>
    <contour>
      <point x="465" y="690" type="move" name="chandrabindu"/>
    </contour>
  </outline>
</glyph>
<glyph name="bn_ng_k_ra" format="1">
  <advance width="665"/>
  <outline>
    <contour>
      <point x="203" y="436" type="line"/>
      <point x="207" y="422"/>
      <point x="210" y="406"/>
      <point x="210" y="391" type="curve" smooth="yes"/>
      <point x="210" y="341"/>
      <point x="191" y="316"/>
      <point x="161" y="316" type="curve" smooth="yes"/>
      <point x="138" y="316"/>
      <point x="124" y="329"/>
      <point x="124" y="350" type="curve" smooth="yes"/>
      <point x="124" y="387"/>
      <point x="178" y="404"/>
      <point x="266" y="404" type="curve" smooth="yes"/>
      <point x="365" y="404"/>
      <point x="389" y="383"/>
      <point x="389" y="345" type="curve" smooth="yes"/>
      <point x="389" y="328"/>
      <point x="388" y="278"/>
      <point x="374" y="225" type="curve"/>
      <point x="357" y="67"/>
      <point x="333" y="-93"/>
      <point x="286" y="-206" type="curve"/>
      <point x="314" y="-217"/>
      <point x="364" y="-226"/>
      <point x="403" y="-226" type="curve"/>
      <point x="445" y="-95"/>
      <point x="473" y="188"/>
      <point x="473" y="295" type="curve" smooth="yes"/>
      <point x="473" y="433"/>
      <point x="374" y="505"/>
      <point x="236" y="505" type="curve" smooth="yes"/>
      <point x="126" y="505"/>
      <point x="32" y="457"/>
      <point x="32" y="368" type="curve" smooth="yes"/>
      <point x="32" y="302"/>
      <point x="82" y="253"/>
      <point x="155" y="253" type="curve" smooth="yes"/>
      <point x="233" y="253"/>
      <point x="280" y="309"/>
      <point x="280" y="393" type="curve" smooth="yes"/>
      <point x="280" y="414"/>
      <point x="277" y="434"/>
      <point x="270" y="454" type="curve"/>
    </contour>
    <contour>
      <point x="350" y="-52" type="line"/>
      <point x="327" y="33"/>
      <point x="263" y="99"/>
      <point x="194" y="135" type="curve"/>
      <point x="176" y="75" type="line"/>
      <point x="228" y="122"/>
      <point x="347" y="185"/>
      <point x="401" y="200" type="curve"/>
      <point x="417" y="322" type="line"/>
      <point x="316" y="291"/>
      <point x="164" y="209"/>
      <point x="107" y="162" type="curve"/>
      <point x="109" y="122"/>
      <point x="123" y="91"/>
      <point x="148" y="54" type="curve"/>
      <point x="222" y="34"/>
      <point x="303" y="-12"/>
      <point x="322" y="-121" type="curve"/>
    </contour>
    <contour>
      <point x="642" y="111" type="curve" smooth="yes"/>
      <point x="642" y="194"/>
      <point x="572" y="280"/>
      <point x="469" y="312" type="curve"/>
      <point x="452" y="195" type="line"/>
      <point x="523" y="181"/>
      <point x="581" y="161"/>
      <point x="581" y="124" type="curve" smooth="yes"/>
      <point x="581" y="93"/>
      <point x="536" y="69"/>
      <point x="489" y="63" type="curve"/>
      <point x="499" y="16"/>
      <point x="525" y="-24"/>
      <point x="550" y="-35" type="curve"/>
      <point x="601" y="-12"/>
      <point x="642" y="47"/>
    </contour>
    <contour>
      <point x="630" y="525" type="curve" smooth="yes"/>
      <point x="630" y="538"/>
      <point x="628" y="551"/>
      <point x="624" y="561" type="curve"/>
      <point x="614" y="524" type="line"/>
      <point x="633" y="521"/>
      <point x="650" y="517"/>
      <point x="665" y="514" type="curve"/>
      <point x="669" y="528"/>
      <point x="672" y="550"/>
      <point x="672" y="571" type="curve" smooth="yes"/>
      <point x="672" y="589"/>
      <point x="670" y="607"/>
      <point x="665" y="618" type="curve"/>
      <point x="596" y="637"/>
      <point x="462" y="653"/>
      <point x="332" y="653" type="curve" smooth="yes"/>
      <point x="201" y="653"/>
      <point x="77" y="637"/>
      <point x="0" y="618" type="curve"/>
      <point x="-6" y="608"/>
      <point x="-8" y="592"/>
      <point x="-8" y="574" type="curve" smooth="yes"/>
      <point x="-8" y="553"/>
      <point x="-4" y="530"/>
      <point x="0" y="514" type="curve"/>
      <point x="79" y="530"/>
      <point x="199" y="545"/>
      <point x="326" y="545" type="curve" smooth="yes"/>
      <point x="352" y="545"/>
      <point x="372" y="545"/>
      <point x="394" y="544" type="curve"/>
      <point x="327" y="572" type="line"/>
      <point x="379" y="481"/>
      <point x="468" y="434"/>
      <point x="534" y="434" type="curve" smooth="yes"/>
      <point x="592" y="434"/>
      <point x="630" y="471"/>
    </contour>
    <contour>
      <point x="514" y="678" type="curve" smooth="yes"/>
      <point x="480" y="678"/>
      <point x="435" y="669"/>
      <point x="396" y="649" type="curve"/>
      <point x="548" y="629" type="line"/>
      <point x="618" y="611" type="line"/>
      <point x="601" y="656"/>
      <point x="565" y="678"/>
    </contour>
    <contour>
      <point x="274" y="451" type="line"/>
      <point x="257" y="514"/>
      <point x="212" y="555"/>
      <point x="167" y="589" type="curve"/>
      <point x="106" y="534" type="line"/>
      <point x="155" y="534"/>
      <point x="192" y="500"/>
      <point x="204" y="436" type="curve"/>
    </contour>
    <contour>
      <point x="319" y="-152" type="line"/>
      <point x="291" y="-81"/>
      <point x="254" y="-36"/>
      <point x="181" y="-36" type="curve" smooth="yes"/>
      <point x="154" y="-36"/>
      <point x="122" y="-42"/>
      <point x="100" y="-42" type="curve" smooth="yes"/>
      <point x="73" y="-42"/>
      <point x="53" y="-28"/>
      <point x="53" y="-3" type="curve" smooth="yes"/>
      <point x="53" y="16"/>
      <point x="60" y="39"/>
      <point x="68" y="57" type="curve"/>
      <point x="49" y="66"/>
      <point x="24" y="74"/>
      <point x="-3" y="74" type="curve"/>
      <point x="-19" y="41"/>
      <point x="-32" y="2"/>
      <point x="-32" y="-38" type="curve" smooth="yes"/>
      <point x="-32" y="-105"/>
      <point x="10" y="-150"/>
      <point x="81" y="-150" type="curve" smooth="yes"/>
      <point x="118" y="-150"/>
      <point x="151" y="-138"/>
      <point x="186" y="-138" type="curve" smooth="yes"/>
      <point x="244" y="-138"/>
      <point x="271" y="-170"/>
      <point x="286" y="-206" type="curve"/>
    </contour>
    <contour>
      <point x="531" y="504" type="curve" smooth="yes"/>
      <point x="492" y="504"/>
      <point x="455" y="521"/>
      <point x="420" y="549" type="curve"/>
      <point x="458" y="563"/>
      <point x="493" y="572"/>
      <point x="526" y="572" type="curve" smooth="yes"/>
      <point x="569" y="572"/>
      <point x="584" y="558"/>
      <point x="584" y="539" type="curve" smooth="yes"/>
      <point x="584" y="518"/>
      <point x="567" y="504"/>
    </contour>
    <contour>
      <point x="331" y="-203" type="move" name="blwm"/>
    </contour>
    <contour>
      <point x="225" y="-204" type="move" name="haln"/>
    </contour>
    <contour>
      <point x="430" y="703" type="move" name="chandrabindu"/>
    </contour>
    <contour>
      <point x="430" y="703" type="move" name="reph"/>
    </contour>
  </outline>
</glyph>
<glyph name="bn_ng_k_ssa" format="1">
  <advance width="1467"/>
  <outline>
    <contour>
      <point x="975" y="-3"/>
      <point x="1023" y="49"/>
      <point x="1027" y="128" type="curve"/>
      <point x="954" y="182" type="line"/>
      <point x="955" y="135"/>
      <point x="925" y="108"/>
      <point x="890" y="108" type="curve" smooth="yes"/>
      <point x="863" y="108"/>
      <point x="845" y="123"/>
      <point x="845" y="148" type="curve" smooth="yes"/>
      <point x="845" y="171"/>
      <point x="862" y="187"/>
      <point x="887" y="187" type="curve" smooth="yes"/>
      <point x="916" y="187"/>
      <point x="952" y="165"/>
      <point x="974" y="121" type="curve"/>
      <point x="991" y="201" type="line"/>
      <point x="966" y="236"/>
      <point x="928" y="254"/>
      <point x="889" y="254" type="curve" smooth="yes"/>
      <point x="824" y="254"/>
      <point x="777" y="203"/>
      <point x="777" y="132" type="curve" smooth="yes"/>
      <point x="777" y="56"/>
      <point x="830" y="-3"/>
      <point x="905" y="-3" type="curve" smooth="yes"/>
    </contour>
    <contour>
      <point x="791" y="226"/>
      <point x="839" y="297"/>
      <point x="837" y="377" type="curve" smooth="yes"/>
      <point x="837" y="392"/>
      <point x="834" y="405"/>
      <point x="830" y="418" type="curve"/>
      <point x="758" y="419" type="line"/>
      <point x="765" y="403"/>
      <point x="767" y="386"/>
      <point x="768" y="374" type="curve" smooth="yes"/>
      <point x="770" y="336"/>
      <point x="753" y="291"/>
      <point x="714" y="291" type="curve" smooth="yes"/>
      <point x="691" y="291"/>
      <point x="676" y="308"/>
      <point x="676" y="329" type="curve" smooth="yes"/>
      <point x="676" y="358"/>
      <point x="704" y="379"/>
      <point x="739" y="379" type="curve" smooth="yes"/>
      <point x="759" y="379"/>
      <point x="778" y="372"/>
      <point x="793" y="353" type="curve"/>
      <point x="800" y="461" type="line"/>
      <point x="780" y="475"/>
      <point x="751" y="486"/>
      <point x="718" y="486" type="curve" smooth="yes"/>
      <point x="638" y="486"/>
      <point x="586" y="437"/>
      <point x="586" y="362" type="curve" smooth="yes"/>
      <point x="586" y="283"/>
      <point x="642" y="226"/>
      <point x="712" y="226" type="curve" smooth="yes"/>
    </contour>
    <contour>
      <point x="1166" y="-63" type="line"/>
      <point x="1140" y="29"/>
      <point x="1066" y="134"/>
      <point x="1005" y="165" type="curve"/>
      <point x="943" y="104" type="line"/>
      <point x="1023" y="66"/>
      <point x="1092" y="-5"/>
      <point x="1138" y="-94" type="curve"/>
    </contour>
    <contour>
      <point x="1026" y="110"/>
      <point x="1037" y="145"/>
      <point x="1037" y="191" type="curve" smooth="yes"/>
      <point x="1037" y="322"/>
      <point x="953" y="446"/>
      <point x="796" y="478" type="curve"/>
      <point x="811" y="371" type="line"/>
      <point x="902" y="363"/>
      <point x="953" y="324"/>
      <point x="953" y="245" type="curve" smooth="yes"/>
      <point x="953" y="216"/>
      <point x="944" y="194"/>
      <point x="935" y="181" type="curve"/>
      <point x="1010" y="85" type="line"/>
    </contour>
    <contour>
      <point x="819" y="409"/>
      <point x="829" y="429"/>
      <point x="829" y="455" type="curve" smooth="yes"/>
      <point x="829" y="509"/>
      <point x="791" y="559"/>
      <point x="737" y="593" type="curve"/>
      <point x="682" y="537" type="line"/>
      <point x="731" y="540"/>
      <point x="758" y="512"/>
      <point x="758" y="473" type="curve" smooth="yes"/>
      <point x="758" y="459"/>
      <point x="753" y="445"/>
      <point x="748" y="436" type="curve"/>
      <point x="806" y="396" type="line"/>
    </contour>
    <contour>
      <point x="1179" y="-94"/>
      <point x="1227" y="-82"/>
      <point x="1259" y="-62" type="curve"/>
      <point x="1233" y="27"/>
      <point x="1224" y="163"/>
      <point x="1224" y="291" type="curve" smooth="yes"/>
      <point x="1224" y="401"/>
      <point x="1227" y="468"/>
      <point x="1235" y="551" type="curve"/>
      <point x="1145" y="567" type="line"/>
      <point x="1121" y="454"/>
      <point x="1114" y="304"/>
      <point x="1114" y="186" type="curve" smooth="yes"/>
      <point x="1114" y="31"/>
      <point x="1124" y="-43"/>
      <point x="1138" y="-94" type="curve"/>
    </contour>
    <contour>
      <point x="1187" y="475" type="line"/>
      <point x="1050" y="478"/>
      <point x="1003" y="496"/>
      <point x="979" y="566" type="curve"/>
      <point x="903" y="567" type="line"/>
      <point x="926" y="445"/>
      <point x="1018" y="360"/>
      <point x="1195" y="357" type="curve"/>
    </contour>
    <contour>
      <point x="618" y="534"/>
      <point x="801" y="552"/>
      <point x="1010" y="552" type="curve" smooth="yes"/>
      <point x="1203" y="552"/>
      <point x="1369" y="532"/>
      <point x="1466" y="514" type="curve"/>
      <point x="1471" y="527"/>
      <point x="1475" y="549"/>
      <point x="1475" y="572" type="curve" smooth="yes"/>
      <point x="1475" y="591"/>
      <point x="1472" y="610"/>
      <point x="1466" y="618" type="curve"/>
      <point x="1374" y="639"/>
      <point x="1204" y="660"/>
      <point x="1010" y="660" type="curve" smooth="yes"/>
      <point x="800" y="660"/>
      <point x="616" y="641"/>
      <point x="515" y="618" type="curve"/>
      <point x="509" y="610"/>
      <point x="506" y="591"/>
      <point x="506" y="572" type="curve" smooth="yes"/>
      <point x="506" y="550"/>
      <point x="510" y="528"/>
      <point x="515" y="514" type="curve"/>
    </contour>
    <contour>
      <point x="1407" y="138"/>
      <point x="1448" y="197"/>
      <point x="1448" y="263" type="curve" smooth="yes"/>
      <point x="1448" y="371"/>
      <point x="1350" y="458"/>
      <point x="1204" y="479" type="curve"/>
      <point x="1213" y="352" type="line"/>
      <point x="1307" y="346"/>
      <point x="1372" y="330"/>
      <point x="1372" y="288" type="curve" smooth="yes"/>
      <point x="1372" y="252"/>
      <point x="1324" y="212"/>
      <point x="1272" y="196" type="curve"/>
      <point x="1292" y="148"/>
      <point x="1330" y="116"/>
      <point x="1362" y="109" type="curve"/>
    </contour>
    <contour>
      <point x="505" y="-43"/>
      <point x="578" y="54"/>
      <point x="578" y="197" type="curve" smooth="yes"/>
      <point x="578" y="266"/>
      <point x="561" y="329"/>
      <point x="536" y="378" type="curve"/>
      <point x="509" y="391"/>
      <point x="477" y="404"/>
      <point x="450" y="410" type="curve"/>
      <point x="413" y="356"/>
      <point x="378" y="310"/>
      <point x="353" y="310" type="curve" smooth="yes"/>
      <point x="335" y="310"/>
      <point x="325" y="321"/>
      <point x="325" y="351" type="curve" smooth="yes"/>
      <point x="325" y="454"/>
      <point x="349" y="611"/>
      <point x="428" y="611" type="curve" smooth="yes"/>
      <point x="455" y="611"/>
      <point x="472" y="595"/>
      <point x="472" y="571" type="curve" smooth="yes"/>
      <point x="472" y="545"/>
      <point x="453" y="526"/>
      <point x="406" y="526" type="curve" smooth="yes"/>
      <point x="319" y="526"/>
      <point x="194" y="591"/>
      <point x="139" y="650" type="curve"/>
      <point x="117" y="620"/>
      <point x="103" y="585"/>
      <point x="93" y="548" type="curve"/>
      <point x="153" y="496"/>
      <point x="291" y="442"/>
      <point x="388" y="442" type="curve" smooth="yes"/>
      <point x="488" y="442"/>
      <point x="537" y="498"/>
      <point x="537" y="565" type="curve" smooth="yes"/>
      <point x="537" y="623"/>
      <point x="497" y="675"/>
      <point x="414" y="675" type="curve" smooth="yes"/>
      <point x="276" y="675"/>
      <point x="226" y="537"/>
      <point x="226" y="408" type="curve" smooth="yes"/>
      <point x="226" y="284"/>
      <point x="288" y="211"/>
      <point x="374" y="213" type="curve" smooth="yes"/>
      <point x="443" y="215"/>
      <point x="482" y="267"/>
      <point x="532" y="318" type="curve"/>
      <point x="481" y="347" type="line"/>
      <point x="491" y="316"/>
      <point x="498" y="277"/>
      <point x="498" y="234" type="curve" smooth="yes"/>
      <point x="498" y="147"/>
      <point x="464" y="85"/>
      <point x="377" y="85" type="curve" smooth="yes"/>
      <point x="251" y="85"/>
      <point x="162" y="220"/>
      <point x="95" y="451" type="curve"/>
      <point x="66" y="443"/>
      <point x="37" y="432"/>
      <point x="10" y="418" type="curve"/>
      <point x="63" y="207"/>
      <point x="156" y="-43"/>
      <point x="372" y="-43" type="curve" smooth="yes"/>
    </contour>
    <contour>
      <point x="1178" y="-67" type="move" name="blwm"/>
    </contour>
    <contour>
      <point x="1045" y="-73" type="move" name="haln"/>
    </contour>
    <contour>
      <point x="1196" y="690" type="move" name="reph"/>
    </contour>
    <contour>
      <point x="1196" y="690" type="move" name="chandrabindu"/>
    </contour>
  </outline>
</glyph>
<glyph name="bn_nn_nna" format="1">
  <advance width="530"/>
  <outline>
    <contour>
      <point x="376" y="294" type="line"/>
      <point x="378" y="491"/>
      <point x="307" y="640"/>
      <point x="181" y="640" type="curve" smooth="yes"/>
      <point x="85" y="640"/>
      <point x="25" y="551"/>
      <point x="25" y="443" type="curve" smooth="yes"/>
      <point x="25" y="334"/>
      <point x="88" y="254"/>
      <point x="169" y="254" type="curve" smooth="yes"/>
      <point x="235" y="254"/>
      <point x="282" y="306"/>
      <point x="282" y="369" type="curve" smooth="yes"/>
      <point x="282" y="382"/>
      <point x="280" y="391"/>
      <point x="277" y="399" type="curve"/>
      <point x="253" y="424"/>
      <point x="215" y="444"/>
      <point x="180" y="453" type="curve"/>
      <point x="186" y="439"/>
      <point x="191" y="421"/>
      <point x="191" y="407" type="curve" smooth="yes"/>
      <point x="191" y="377"/>
      <point x="178" y="346"/>
      <point x="150" y="346" type="curve" smooth="yes"/>
      <point x="127" y="346"/>
      <point x="107" y="366"/>
      <point x="107" y="405" type="curve" smooth="yes"/>
      <point x="107" y="458"/>
      <point x="141" y="501"/>
      <point x="194" y="501" type="curve" smooth="yes"/>
      <point x="254" y="501"/>
      <point x="333" y="450"/>
      <point x="333" y="344" type="curve"/>
    </contour>
    <contour>
      <point x="346" y="-180" type="curve"/>
      <point x="391" y="-180"/>
      <point x="439" y="-166"/>
      <point x="471" y="-142" type="curve"/>
      <point x="454" y="-77"/>
      <point x="440" y="145"/>
      <point x="440" y="284" type="curve" smooth="yes"/>
      <point x="440" y="350"/>
      <point x="440" y="388"/>
      <point x="448" y="449" type="curve" smooth="yes"/>
      <point x="452" y="475"/>
      <point x="470" y="494"/>
      <point x="494" y="502" type="curve" smooth="yes"/>
      <point x="503" y="506"/>
      <point x="517" y="510"/>
      <point x="530" y="514" type="curve"/>
      <point x="535" y="528"/>
      <point x="539" y="552"/>
      <point x="539" y="572" type="curve" smooth="yes"/>
      <point x="539" y="592"/>
      <point x="536" y="608"/>
      <point x="530" y="618" type="curve"/>
      <point x="487" y="610"/>
      <point x="449" y="600"/>
      <point x="413" y="585" type="curve" smooth="yes"/>
      <point x="376" y="570"/>
      <point x="357" y="547"/>
      <point x="350" y="509" type="curve" smooth="yes"/>
      <point x="332" y="417"/>
      <point x="328" y="285"/>
      <point x="328" y="145" type="curve" smooth="yes"/>
      <point x="328" y="53"/>
      <point x="339" y="-132"/>
    </contour>
    <contour>
      <point x="379" y="-110" type="line"/>
      <point x="381" y="86"/>
      <point x="310" y="235"/>
      <point x="184" y="235" type="curve" smooth="yes"/>
      <point x="88" y="235"/>
      <point x="28" y="146"/>
      <point x="28" y="38" type="curve" smooth="yes"/>
      <point x="28" y="-70"/>
      <point x="91" y="-150"/>
      <point x="173" y="-150" type="curve" smooth="yes"/>
      <point x="238" y="-150"/>
      <point x="286" y="-98"/>
      <point x="286" y="-35" type="curve" smooth="yes"/>
      <point x="286" y="-23"/>
      <point x="284" y="-13"/>
      <point x="280" y="-5" type="curve"/>
      <point x="257" y="19"/>
      <point x="219" y="39"/>
      <point x="183" y="48" type="curve"/>
      <point x="189" y="34"/>
      <point x="194" y="16"/>
      <point x="194" y="2" type="curve" smooth="yes"/>
      <point x="194" y="-28"/>
      <point x="181" y="-58"/>
      <point x="153" y="-58" type="curve" smooth="yes"/>
      <point x="130" y="-58"/>
      <point x="110" y="-38"/>
      <point x="110" y="0" type="curve" smooth="yes"/>
      <point x="110" y="53"/>
      <point x="144" y="96"/>
      <point x="197" y="96" type="curve" smooth="yes"/>
      <point x="257" y="96"/>
      <point x="336" y="45"/>
      <point x="336" y="-60" type="curve"/>
    </contour>
    <contour>
      <point x="387" y="-150" type="move" name="blwm"/>
    </contour>
    <contour>
      <point x="237" y="-146" type="move" name="haln"/>
    </contour>
    <contour>
      <point x="408" y="690" type="move" name="reph"/>
    </contour>
    <contour>
      <point x="408" y="690" type="move" name="chandrabindu"/>
    </contour>
  </outline>
</glyph>
<glyph name="bn_nya.half" format="1">
  <advance width="781"/>
  <outline>
    <contour>
      <point x="725" y="400"/>
      <point x="754" y="441"/>
      <point x="754" y="490" type="curve" smooth="yes"/>
      <point x="754" y="556"/>
      <point x="699" y="591"/>
      <point x="635" y="591" type="curve" smooth="yes"/>
      <point x="567" y="591"/>
      <point x="509" y="541"/>
      <point x="481" y="490" type="curve"/>
      <point x="491" y="404" type="line"/>
      <point x="531" y="474"/>
      <point x="588" y="509"/>
      <point x="638" y="509" type="curve" smooth="yes"/>
      <point x="669" y="509"/>
      <point x="687" y="498"/>
      <point x="687" y="479" type="curve" smooth="yes"/>
      <point x="687" y="457"/>
      <point x="671" y="432"/>
      <point x="648" y="408" type="curve"/>
      <point x="688" y="370" type="line"/>
    </contour>
    <contour>
      <point x="706" y="221"/>
      <point x="757" y="257"/>
      <point x="757" y="322" type="curve" smooth="yes"/>
      <point x="757" y="363"/>
      <point x="732" y="397"/>
      <point x="693" y="427" type="curve"/>
      <point x="663" y="394" type="line"/>
      <point x="678" y="384"/>
      <point x="691" y="364"/>
      <point x="691" y="348" type="curve" smooth="yes"/>
      <point x="691" y="326"/>
      <point x="670" y="308"/>
      <point x="634" y="308" type="curve" smooth="yes"/>
      <point x="590" y="308"/>
      <point x="530" y="333"/>
      <point x="491" y="382" type="curve"/>
      <point x="481" y="322" type="line"/>
      <point x="507" y="275"/>
      <point x="567" y="221"/>
      <point x="640" y="221" type="curve" smooth="yes"/>
    </contour>
    <contour>
      <point x="659" y="340"/>
      <point x="689" y="364"/>
      <point x="706" y="400" type="curve"/>
      <point x="666" y="428" type="line"/>
      <point x="651" y="407"/>
      <point x="635" y="395"/>
      <point x="618" y="395" type="curve" smooth="yes"/>
      <point x="603" y="395"/>
      <point x="595" y="404"/>
      <point x="595" y="415" type="curve" smooth="yes"/>
      <point x="595" y="428"/>
      <point x="606" y="436"/>
      <point x="621" y="436" type="curve" smooth="yes"/>
      <point x="641" y="436"/>
      <point x="656" y="423"/>
      <point x="665" y="405" type="curve"/>
      <point x="687" y="441" type="line"/>
      <point x="674" y="458"/>
      <point x="649" y="472"/>
      <point x="623" y="472" type="curve" smooth="yes"/>
      <point x="585" y="472"/>
      <point x="551" y="446"/>
      <point x="551" y="405" type="curve" smooth="yes"/>
      <point x="551" y="366"/>
      <point x="583" y="340"/>
      <point x="623" y="340" type="curve" smooth="yes"/>
    </contour>
    <contour>
      <point x="426" y="140"/>
      <point x="461" y="145"/>
      <point x="490" y="153" type="curve"/>
      <point x="505" y="260"/>
      <point x="514" y="379"/>
      <point x="514" y="529" type="curve" smooth="yes"/>
      <point x="514" y="610"/>
      <point x="445" y="661"/>
      <point x="369" y="661" type="curve" smooth="yes"/>
      <point x="262" y="661"/>
      <point x="151" y="562"/>
      <point x="151" y="471" type="curve" smooth="yes"/>
      <point x="151" y="405"/>
      <point x="210" y="368"/>
      <point x="277" y="368" type="curve" smooth="yes"/>
      <point x="302" y="368"/>
      <point x="323" y="374"/>
      <point x="337" y="383" type="curve"/>
      <point x="352" y="401"/>
      <point x="363" y="432"/>
      <point x="363" y="457" type="curve" smooth="yes"/>
      <point x="363" y="465"/>
      <point x="362" y="471"/>
      <point x="360" y="475" type="curve"/>
      <point x="348" y="465"/>
      <point x="329" y="455"/>
      <point x="306" y="455" type="curve" smooth="yes"/>
      <point x="283" y="455"/>
      <point x="269" y="465"/>
      <point x="269" y="487" type="curve" smooth="yes"/>
      <point x="269" y="525"/>
      <point x="331" y="582"/>
      <point x="377" y="582" type="curve" smooth="yes"/>
      <point x="398" y="582"/>
      <point x="412" y="568"/>
      <point x="412" y="542" type="curve" smooth="yes"/>
      <point x="412" y="423"/>
      <point x="401" y="288"/>
      <point x="378" y="198" type="curve"/>
      <point x="406" y="173" type="line"/>
      <point x="378" y="269"/>
      <point x="351" y="313"/>
      <point x="291" y="313" type="curve" smooth="yes"/>
      <point x="247" y="313"/>
      <point x="192" y="283"/>
      <point x="154" y="283" type="curve" smooth="yes"/>
      <point x="129" y="283"/>
      <point x="108" y="292"/>
      <point x="108" y="317" type="curve" smooth="yes"/>
      <point x="108" y="335"/>
      <point x="116" y="363"/>
      <point x="129" y="383" type="curve"/>
      <point x="110" y="391"/>
      <point x="84" y="395"/>
      <point x="51" y="396" type="curve"/>
      <point x="32" y="362"/>
      <point x="18" y="320"/>
      <point x="18" y="283" type="curve" smooth="yes"/>
      <point x="18" y="216"/>
      <point x="64" y="172"/>
      <point x="137" y="172" type="curve" smooth="yes"/>
      <point x="197" y="172"/>
      <point x="259" y="207"/>
      <point x="310" y="207" type="curve" smooth="yes"/>
      <point x="364" y="207"/>
      <point x="376" y="172"/>
      <point x="396" y="140" type="curve"/>
    </contour>
  </outline>
</glyph>
<glyph name="bn_p_t_ra" format="1">
  <advance width="624"/>
  <outline>
    <contour>
      <point x="493" y="-284"/>
      <point x="528" y="-278"/>
      <point x="558" y="-268" type="curve"/>
      <point x="572" y="-147"/>
      <point x="580" y="-13"/>
      <point x="580" y="156" type="curve" smooth="yes"/>
      <point x="580" y="249"/>
      <point x="513" y="307"/>
      <point x="437" y="307" type="curve" smooth="yes"/>
      <point x="335" y="307"/>
      <point x="229" y="195"/>
      <point x="229" y="91" type="curve" smooth="yes"/>
      <point x="229" y="15"/>
      <point x="287" y="-24"/>
      <point x="351" y="-24" type="curve" smooth="yes"/>
      <point x="374" y="-24"/>
      <point x="394" y="-19"/>
      <point x="408" y="-10" type="curve"/>
      <point x="423" y="10"/>
      <point x="434" y="49"/>
      <point x="434" y="79" type="curve" smooth="yes"/>
      <point x="434" y="87"/>
      <point x="433" y="94"/>
      <point x="432" y="97" type="curve"/>
      <point x="421" y="88"/>
      <point x="403" y="77"/>
      <point x="383" y="77" type="curve" smooth="yes"/>
      <point x="362" y="77"/>
      <point x="348" y="88"/>
      <point x="348" y="111" type="curve" smooth="yes"/>
      <point x="348" y="157"/>
      <point x="405" y="228"/>
      <point x="448" y="228" type="curve" smooth="yes"/>
      <point x="467" y="228"/>
      <point x="478" y="214"/>
      <point x="478" y="186" type="curve" smooth="yes"/>
      <point x="478" y="48"/>
      <point x="467" y="-108"/>
      <point x="444" y="-213" type="curve"/>
      <point x="471" y="-246" type="line"/>
      <point x="443" y="-140"/>
      <point x="414" y="-94"/>
      <point x="353" y="-94" type="curve" smooth="yes"/>
      <point x="306" y="-94"/>
      <point x="251" y="-124"/>
      <point x="212" y="-124" type="curve" smooth="yes"/>
      <point x="183" y="-124"/>
      <point x="159" y="-110"/>
      <point x="159" y="-75" type="curve" smooth="yes"/>
      <point x="159" y="-55"/>
      <point x="166" y="-25"/>
      <point x="179" y="0" type="curve"/>
      <point x="158" y="7"/>
      <point x="129" y="12"/>
      <point x="93" y="13" type="curve"/>
      <point x="75" y="-26"/>
      <point x="62" y="-76"/>
      <point x="62" y="-119" type="curve" smooth="yes"/>
      <point x="62" y="-198"/>
      <point x="110" y="-248"/>
      <point x="185" y="-248" type="curve" smooth="yes"/>
      <point x="249" y="-248"/>
      <point x="315" y="-212"/>
      <point x="368" y="-212" type="curve" smooth="yes"/>
      <point x="428" y="-212"/>
      <point x="442" y="-250"/>
      <point x="463" y="-284" type="curve"/>
    </contour>
    <contour>
      <point x="276" y="278"/>
      <point x="370" y="369"/>
      <point x="413" y="439" type="curve"/>
      <point x="363" y="535" type="line"/>
      <point x="289" y="441"/>
      <point x="189" y="362"/>
      <point x="106" y="305" type="curve"/>
      <point x="126" y="267"/>
      <point x="152" y="235"/>
      <point x="188" y="209" type="curve"/>
    </contour>
    <contour>
      <point x="447" y="487"/>
      <point x="373" y="640"/>
      <point x="227" y="640" type="curve" smooth="yes"/>
      <point x="144" y="640"/>
      <point x="64" y="587"/>
      <point x="8" y="515" type="curve"/>
      <point x="14" y="482"/>
      <point x="25" y="449"/>
      <point x="43" y="418" type="curve"/>
      <point x="88" y="414"/>
      <point x="140" y="393"/>
      <point x="140" y="355" type="curve" smooth="yes"/>
      <point x="140" y="339"/>
      <point x="134" y="324"/>
      <point x="118" y="313" type="curve"/>
      <point x="180" y="354" type="line"/>
      <point x="193" y="363"/>
      <point x="202" y="385"/>
      <point x="202" y="408" type="curve" smooth="yes"/>
      <point x="202" y="441"/>
      <point x="162" y="475"/>
      <point x="123" y="493" type="curve"/>
      <point x="114" y="446" type="line"/>
      <point x="157" y="505"/>
      <point x="194" y="534"/>
      <point x="245" y="534" type="curve" smooth="yes"/>
      <point x="320" y="534"/>
      <point x="399" y="471"/>
      <point x="399" y="355" type="curve"/>
      <point x="439" y="297" type="line"/>
    </contour>
    <contour>
      <point x="503" y="249" type="line"/>
      <point x="503" y="269"/>
      <point x="503" y="290"/>
      <point x="503" y="311" type="curve" smooth="yes"/>
      <point x="503" y="371"/>
      <point x="505" y="404"/>
      <point x="510" y="452" type="curve" smooth="yes"/>
      <point x="513" y="470"/>
      <point x="518" y="483"/>
      <point x="538" y="490" type="curve" smooth="yes"/>
      <point x="564" y="500"/>
      <point x="600" y="509"/>
      <point x="624" y="514" type="curve"/>
      <point x="629" y="528"/>
      <point x="633" y="552"/>
      <point x="633" y="571" type="curve" smooth="yes"/>
      <point x="633" y="591"/>
      <point x="629" y="609"/>
      <point x="624" y="618" type="curve"/>
      <point x="579" y="611"/>
      <point x="501" y="586"/>
      <point x="474" y="575" type="curve" smooth="yes"/>
      <point x="446" y="561"/>
      <point x="431" y="538"/>
      <point x="426" y="504" type="curve" smooth="yes"/>
      <point x="424" y="489"/>
      <point x="423" y="473"/>
      <point x="421" y="450" type="curve"/>
      <point x="405" y="438" type="line"/>
      <point x="398" y="383"/>
      <point x="395" y="321"/>
      <point x="393" y="249" type="curve"/>
    </contour>
    <contour>
      <point x="612" y="749" type="move" name="reph"/>
    </contour>
    <contour>
      <point x="612" y="749" type="move" name="chandrabindu"/>
    </contour>
    <contour>
      <point x="496" y="-261" type="move" name="blwm"/>
    </contour>
    <contour>
      <point x="320" y="-260" type="move" name="haln"/>
    </contour>
  </outline>
</glyph>
<glyph name="bn_s_ba" format="1">
  <advance width="591"/>
  <outline>
    <contour>
      <point x="525" y="-56" type="curve"/>
      <point x="506" y="41"/>
      <point x="498" y="201"/>
      <point x="506" y="338" type="curve"/>
      <point x="406" y="311" type="line"/>
      <point x="397" y="151"/>
      <point x="402" y="35"/>
      <point x="407" y="-70" type="curve"/>
      <point x="452" y="-70"/>
      <point x="494" y="-66"/>
    </contour>
    <contour>
      <point x="287" y="545" type="curve" smooth="yes"/>
      <point x="407" y="545"/>
      <point x="514" y="530"/>
      <point x="591" y="514" type="curve"/>
      <point x="596" y="528"/>
      <point x="599" y="550"/>
      <point x="599" y="571" type="curve" smooth="yes"/>
      <point x="599" y="589"/>
      <point x="597" y="607"/>
      <point x="591" y="618" type="curve"/>
      <point x="523" y="637"/>
      <point x="422" y="653"/>
      <point x="295" y="653" type="curve" smooth="yes"/>
      <point x="166" y="653"/>
      <point x="75" y="637"/>
      <point x="0" y="618" type="curve"/>
      <point x="-6" y="608"/>
      <point x="-8" y="591"/>
      <point x="-8" y="572" type="curve" smooth="yes"/>
      <point x="-8" y="551"/>
      <point x="-4" y="528"/>
      <point x="0" y="514" type="curve"/>
      <point x="77" y="530"/>
      <point x="167" y="545"/>
    </contour>
    <contour>
      <point x="435" y="-24" type="line"/>
      <point x="410" y="49"/>
      <point x="331" y="97"/>
      <point x="258" y="137" type="curve"/>
      <point x="243" y="94" type="line"/>
      <point x="304" y="141"/>
      <point x="407" y="177"/>
      <point x="476" y="191" type="curve"/>
      <point x="417" y="287" type="line"/>
      <point x="321" y="261"/>
      <point x="225" y="220"/>
      <point x="167" y="181" type="curve"/>
      <point x="167" y="135"/>
      <point x="181" y="95"/>
      <point x="208" y="51" type="curve"/>
      <point x="287" y="36"/>
      <point x="369" y="4"/>
      <point x="407" y="-70" type="curve"/>
    </contour>
    <contour>
      <point x="91" y="385" type="curve" smooth="yes"/>
      <point x="63" y="385"/>
      <point x="30" y="396"/>
      <point x="12" y="412" type="curve"/>
      <point x="47" y="292" type="line"/>
      <point x="65" y="284"/>
      <point x="86" y="279"/>
      <point x="107" y="279" type="curve" smooth="yes"/>
      <point x="204" y="279"/>
      <point x="257" y="379"/>
      <point x="261" y="549" type="curve"/>
      <point x="192" y="558" type="line"/>
      <point x="189" y="435"/>
      <point x="154" y="385"/>
    </contour>
    <contour>
      <point x="569" y="414" type="curve" smooth="yes"/>
      <point x="569" y="502"/>
      <point x="505" y="567"/>
      <point x="417" y="595" type="curve"/>
      <point x="362" y="546" type="line"/>
      <point x="443" y="541"/>
      <point x="478" y="500"/>
      <point x="478" y="453" type="curve" smooth="yes"/>
      <point x="478" y="414"/>
      <point x="455" y="383"/>
      <point x="408" y="383" type="curve" smooth="yes"/>
      <point x="348" y="383"/>
      <point x="292" y="444"/>
      <point x="290" y="558" type="curve"/>
      <point x="231" y="549" type="line"/>
      <point x="235" y="378"/>
      <point x="311" y="268"/>
      <point x="424" y="268" type="curve" smooth="yes"/>
      <point x="510" y="268"/>
      <point x="569" y="332"/>
    </contour>
    <contour>
      <point x="340" y="690" type="move" name="reph"/>
    </contour>
    <contour>
      <point x="340" y="690" type="move" name="chandrabindu"/>
    </contour>
    <contour>
      <point x="446" y="-50" type="move" name="blwm"/>
    </contour>
    <contour>
      <point x="283" y="-38" type="move" name="haln"/>
    </contour>
  </outline>
</glyph>
<glyph name="bn_s_kha" format="1">
  <advance width="747"/>
  <outline>
    <contour>
      <point x="664" y="-142"/>
      <point x="690" y="65"/>
      <point x="690" y="253" type="curve" smooth="yes"/>
      <point x="690" y="326"/>
      <point x="686" y="419"/>
      <point x="686" y="451" type="curve" smooth="yes"/>
      <point x="686" y="485"/>
      <point x="690" y="493"/>
      <point x="711" y="502" type="curve" smooth="yes"/>
      <point x="719" y="506"/>
      <point x="735" y="511"/>
      <point x="747" y="514" type="curve"/>
      <point x="752" y="528"/>
      <point x="756" y="552"/>
      <point x="756" y="572" type="curve" smooth="yes"/>
      <point x="756" y="591"/>
      <point x="753" y="608"/>
      <point x="747" y="618" type="curve"/>
      <point x="701" y="611"/>
      <point x="649" y="594"/>
      <point x="630" y="585" type="curve" smooth="yes"/>
      <point x="577" y="563"/>
      <point x="570" y="532"/>
      <point x="570" y="495" type="curve" smooth="yes"/>
      <point x="570" y="463"/>
      <point x="577" y="351"/>
      <point x="577" y="252" type="curve" smooth="yes"/>
      <point x="577" y="72"/>
      <point x="556" y="-54"/>
      <point x="512" y="-185" type="curve"/>
      <point x="485" y="-250" type="line"/>
      <point x="514" y="-260"/>
      <point x="566" y="-269"/>
      <point x="607" y="-269" type="curve"/>
    </contour>
    <contour>
      <point x="483" y="259"/>
      <point x="533" y="322"/>
      <point x="533" y="422" type="curve" smooth="yes"/>
      <point x="533" y="502"/>
      <point x="502" y="572"/>
      <point x="467" y="621" type="curve"/>
      <point x="397" y="636"/>
      <point x="316" y="646"/>
      <point x="240" y="646" type="curve" smooth="yes"/>
      <point x="155" y="646"/>
      <point x="51" y="633"/>
      <point x="0" y="618" type="curve"/>
      <point x="-4" y="607"/>
      <point x="-7" y="589"/>
      <point x="-7" y="572" type="curve" smooth="yes"/>
      <point x="-7" y="550"/>
      <point x="-4" y="528"/>
      <point x="0" y="514" type="curve"/>
      <point x="56" y="528"/>
      <point x="155" y="539"/>
      <point x="234" y="539" type="curve" smooth="yes"/>
      <point x="291" y="539"/>
      <point x="363" y="534"/>
      <point x="387" y="529" type="curve" smooth="yes"/>
      <point x="422" y="522"/>
      <point x="455" y="492"/>
      <point x="455" y="447" type="curve" smooth="yes"/>
      <point x="455" y="402"/>
      <point x="430" y="374"/>
      <point x="388" y="374" type="curve" smooth="yes"/>
      <point x="324" y="374"/>
      <point x="269" y="434"/>
      <point x="267" y="558" type="curve"/>
      <point x="208" y="549" type="line"/>
      <point x="211" y="373"/>
      <point x="287" y="259"/>
      <point x="400" y="259" type="curve" smooth="yes"/>
    </contour>
    <contour>
      <point x="186" y="285"/>
      <point x="233" y="373"/>
      <point x="237" y="544" type="curve"/>
      <point x="168" y="558" type="line"/>
      <point x="166" y="438"/>
      <point x="139" y="388"/>
      <point x="82" y="388" type="curve" smooth="yes"/>
      <point x="54" y="388"/>
      <point x="24" y="400"/>
      <point x="7" y="416" type="curve"/>
      <point x="42" y="298" type="line"/>
      <point x="59" y="290"/>
      <point x="78" y="285"/>
      <point x="98" y="285" type="curve" smooth="yes"/>
    </contour>
    <contour>
      <point x="528" y="-197" type="line"/>
      <point x="501" y="-102"/>
      <point x="436" y="-29"/>
      <point x="329" y="9" type="curve"/>
      <point x="328" y="-64" type="line"/>
      <point x="390" y="-37" type="line" smooth="yes"/>
      <point x="481" y="2"/>
      <point x="517" y="72"/>
      <point x="517" y="142" type="curve" smooth="yes"/>
      <point x="517" y="194"/>
      <point x="496" y="248"/>
      <point x="465" y="284" type="curve"/>
      <point x="413" y="307" type="line"/>
      <point x="393" y="262"/>
      <point x="343" y="210"/>
      <point x="298" y="210" type="curve" smooth="yes"/>
      <point x="269" y="210"/>
      <point x="253" y="227"/>
      <point x="253" y="257" type="curve" smooth="yes"/>
      <point x="253" y="271"/>
      <point x="256" y="287"/>
      <point x="263" y="297" type="curve"/>
      <point x="225" y="297"/>
      <point x="186" y="290"/>
      <point x="157" y="272" type="curve"/>
      <point x="152" y="258"/>
      <point x="149" y="241"/>
      <point x="149" y="223" type="curve" smooth="yes"/>
      <point x="149" y="159"/>
      <point x="195" y="110"/>
      <point x="264" y="110" type="curve" smooth="yes"/>
      <point x="339" y="110"/>
      <point x="410" y="163"/>
      <point x="444" y="235" type="curve"/>
      <point x="407" y="234" type="line"/>
      <point x="419" y="220"/>
      <point x="425" y="203"/>
      <point x="425" y="184" type="curve" smooth="yes"/>
      <point x="425" y="142"/>
      <point x="398" y="101"/>
      <point x="318" y="69" type="curve" smooth="yes"/>
      <point x="231" y="35" type="line"/>
      <point x="236" y="-6"/>
      <point x="252" y="-44"/>
      <point x="278" y="-85" type="curve"/>
      <point x="369" y="-101"/>
      <point x="433" y="-152"/>
      <point x="485" y="-250" type="curve"/>
    </contour>
    <contour>
      <point x="614" y="690" type="move" name="reph"/>
    </contour>
    <contour>
      <point x="614" y="690" type="move" name="chandrabindu"/>
    </contour>
    <contour>
      <point x="534" y="-252" type="move" name="blwm"/>
    </contour>
    <contour>
      <point x="415" y="-245" type="move" name="haln"/>
    </contour>
  </outline>
</glyph>
<glyph name="bn_s_pha" format="1">
  <advance width="937"/>
  <outline>
    <contour>
      <point x="716" y="-225" type="curve"/>
      <point x="692" y="-148"/>
      <point x="685" y="-35"/>
      <point x="685" y="80" type="curve" smooth="yes"/>
      <point x="685" y="112"/>
      <point x="685" y="141"/>
      <point x="687" y="169" type="curve"/>
      <point x="662" y="147" type="line"/>
      <point x="749" y="141"/>
      <point x="824" y="127"/>
      <point x="824" y="83" type="curve" smooth="yes"/>
      <point x="824" y="51"/>
      <point x="779" y="15"/>
      <point x="727" y="0" type="curve"/>
      <point x="746" y="-46"/>
      <point x="783" y="-80"/>
      <point x="813" y="-87" type="curve"/>
      <point x="857" y="-59"/>
      <point x="899" y="-6"/>
      <point x="899" y="68" type="curve" smooth="yes"/>
      <point x="899" y="181"/>
      <point x="789" y="276"/>
      <point x="593" y="285" type="curve"/>
      <point x="578" y="164"/>
      <point x="573" y="62"/>
      <point x="573" y="-77" type="curve" smooth="yes"/>
      <point x="573" y="-156"/>
      <point x="576" y="-208"/>
      <point x="588" y="-250" type="curve"/>
      <point x="629" y="-250"/>
      <point x="682" y="-242"/>
    </contour>
    <contour>
      <point x="617" y="-198" type="line"/>
      <point x="571" y="-88"/>
      <point x="485" y="-14"/>
      <point x="388" y="27" type="curve"/>
      <point x="375" y="-33" type="line"/>
      <point x="541" y="150" type="line"/>
      <point x="428" y="217" type="line"/>
      <point x="268" y="59" type="line"/>
      <point x="271" y="15"/>
      <point x="295" y="-29"/>
      <point x="336" y="-63" type="curve"/>
      <point x="437" y="-82"/>
      <point x="521" y="-140"/>
      <point x="588" y="-250" type="curve"/>
    </contour>
    <contour>
      <point x="541" y="150" type="line"/>
      <point x="503" y="186" type="line" smooth="yes"/>
      <point x="445" y="241"/>
      <point x="414" y="294"/>
      <point x="400" y="351" type="curve"/>
      <point x="247" y="439" type="line"/>
      <point x="247" y="324"/>
      <point x="360" y="228"/>
      <point x="434" y="168" type="curve"/>
    </contour>
    <contour>
      <point x="462" y="543" type="curve" smooth="yes"/>
      <point x="641" y="543"/>
      <point x="822" y="536"/>
      <point x="937" y="514" type="curve"/>
      <point x="941" y="529"/>
      <point x="943" y="550"/>
      <point x="943" y="571" type="curve" smooth="yes"/>
      <point x="943" y="589"/>
      <point x="942" y="605"/>
      <point x="937" y="618" type="curve"/>
      <point x="836" y="644"/>
      <point x="649" y="651"/>
      <point x="465" y="651" type="curve" smooth="yes"/>
      <point x="264" y="651"/>
      <point x="114" y="642"/>
      <point x="0" y="618" type="curve"/>
      <point x="-5" y="608"/>
      <point x="-8" y="591"/>
      <point x="-8" y="574" type="curve" smooth="yes"/>
      <point x="-8" y="552"/>
      <point x="-4" y="530"/>
      <point x="0" y="514" type="curve"/>
      <point x="117" y="534"/>
      <point x="264" y="543"/>
    </contour>
    <contour>
      <point x="91" y="385" type="curve" smooth="yes"/>
      <point x="63" y="385"/>
      <point x="30" y="396"/>
      <point x="12" y="412" type="curve"/>
      <point x="47" y="292" type="line"/>
      <point x="65" y="284"/>
      <point x="86" y="279"/>
      <point x="107" y="279" type="curve" smooth="yes"/>
      <point x="204" y="279"/>
      <point x="257" y="379"/>
      <point x="261" y="549" type="curve"/>
      <point x="192" y="558" type="line"/>
      <point x="189" y="435"/>
      <point x="154" y="385"/>
    </contour>
    <contour>
      <point x="569" y="414" type="curve" smooth="yes"/>
      <point x="569" y="502"/>
      <point x="505" y="567"/>
      <point x="417" y="595" type="curve"/>
      <point x="362" y="546" type="line"/>
      <point x="443" y="541"/>
      <point x="478" y="500"/>
      <point x="478" y="453" type="curve" smooth="yes"/>
      <point x="478" y="414"/>
      <point x="455" y="383"/>
      <point x="408" y="383" type="curve" smooth="yes"/>
      <point x="348" y="383"/>
      <point x="292" y="444"/>
      <point x="290" y="558" type="curve"/>
      <point x="231" y="549" type="line"/>
      <point x="235" y="378"/>
      <point x="311" y="268"/>
      <point x="424" y="268" type="curve" smooth="yes"/>
      <point x="510" y="268"/>
      <point x="569" y="332"/>
    </contour>
    <contour>
      <point x="628" y="-227" type="move" name="blwm"/>
    </contour>
    <contour>
      <point x="455" y="-227" type="move" name="haln"/>
    </contour>
    <contour>
      <point x="557" y="690" type="move" name="reph"/>
    </contour>
    <contour>
      <point x="557" y="690" type="move" name="chandrabindu"/>
    </contour>
  </outline>
</glyph>
<glyph name="bn_s_ra_ukaar" format="1">
  <advance width="918"/>
  <outline>
    <contour>
      <point x="610" y="268"/>
      <point x="669" y="332"/>
      <point x="669" y="414" type="curve" smooth="yes"/>
      <point x="669" y="502"/>
      <point x="604" y="567"/>
      <point x="517" y="595" type="curve"/>
      <point x="460" y="546" type="line"/>
      <point x="542" y="541"/>
      <point x="578" y="500"/>
      <point x="578" y="453" type="curve" smooth="yes"/>
      <point x="578" y="414"/>
      <point x="554" y="383"/>
      <point x="508" y="383" type="curve" smooth="yes"/>
      <point x="448" y="383"/>
      <point x="391" y="444"/>
      <point x="389" y="558" type="curve"/>
      <point x="331" y="549" type="line"/>
      <point x="334" y="378"/>
      <point x="410" y="268"/>
      <point x="523" y="268" type="curve" smooth="yes"/>
    </contour>
    <contour>
      <point x="100" y="535"/>
      <point x="287" y="546"/>
      <point x="451" y="546" type="curve" smooth="yes"/>
      <point x="614" y="546"/>
      <point x="820" y="535"/>
      <point x="919" y="514" type="curve"/>
      <point x="923" y="528"/>
      <point x="927" y="549"/>
      <point x="927" y="571" type="curve" smooth="yes"/>
      <point x="927" y="590"/>
      <point x="924" y="607"/>
      <point x="919" y="618" type="curve"/>
      <point x="832" y="643"/>
      <point x="620" y="654"/>
      <point x="456" y="654" type="curve" smooth="yes"/>
      <point x="290" y="654"/>
      <point x="97" y="643"/>
      <point x="0" y="618" type="curve"/>
      <point x="-6" y="607"/>
      <point x="-8" y="590"/>
      <point x="-8" y="572" type="curve" smooth="yes"/>
      <point x="-8" y="551"/>
      <point x="-4" y="527"/>
      <point x="0" y="514" type="curve"/>
    </contour>
    <contour>
      <point x="303" y="279"/>
      <point x="357" y="379"/>
      <point x="360" y="549" type="curve"/>
      <point x="291" y="558" type="line"/>
      <point x="289" y="435"/>
      <point x="253" y="385"/>
      <point x="190" y="385" type="curve" smooth="yes"/>
      <point x="163" y="385"/>
      <point x="130" y="396"/>
      <point x="111" y="412" type="curve"/>
      <point x="147" y="292" type="line"/>
      <point x="165" y="284"/>
      <point x="186" y="279"/>
      <point x="207" y="279" type="curve" smooth="yes"/>
    </contour>
    <contour>
      <point x="594" y="-21" type="curve"/>
      <point x="579" y="39"/>
      <point x="569" y="158"/>
      <point x="569" y="284" type="curve" smooth="yes"/>
      <point x="569" y="304"/>
      <point x="570" y="323"/>
      <point x="570" y="340" type="curve"/>
      <point x="537" y="341"/>
      <point x="501" y="339"/>
      <point x="463" y="335" type="curve"/>
      <point x="459" y="275"/>
      <point x="457" y="211"/>
      <point x="457" y="145" type="curve" smooth="yes"/>
      <point x="457" y="67"/>
      <point x="462" y="4"/>
      <point x="471" y="-29" type="curve"/>
      <point x="501" y="-28" type="line"/>
      <point x="455" y="54"/>
      <point x="416" y="100"/>
      <point x="350" y="100" type="curve" smooth="yes"/>
      <point x="298" y="100"/>
      <point x="230" y="77"/>
      <point x="190" y="77" type="curve" smooth="yes"/>
      <point x="156" y="77"/>
      <point x="132" y="98"/>
      <point x="132" y="136" type="curve" smooth="yes"/>
      <point x="132" y="158"/>
      <point x="140" y="183"/>
      <point x="148" y="202" type="curve"/>
      <point x="129" y="212"/>
      <point x="100" y="218"/>
      <point x="70" y="219" type="curve"/>
      <point x="53" y="185"/>
      <point x="39" y="144"/>
      <point x="39" y="101" type="curve" smooth="yes"/>
      <point x="39" y="22"/>
      <point x="95" y="-31"/>
      <point x="188" y="-31" type="curve" smooth="yes"/>
      <point x="251" y="-31"/>
      <point x="309" y="-9"/>
      <point x="369" y="-9" type="curve" smooth="yes"/>
      <point x="427" y="-9"/>
      <point x="447" y="-35"/>
      <point x="470" y="-59" type="curve"/>
      <point x="514" y="-59"/>
      <point x="563" y="-45"/>
    </contour>
    <contour>
      <point x="835" y="90"/>
      <point x="888" y="166"/>
      <point x="888" y="273" type="curve" smooth="yes"/>
      <point x="888" y="388"/>
      <point x="833" y="452"/>
      <point x="766" y="452" type="curve" smooth="yes"/>
      <point x="731" y="452"/>
      <point x="706" y="434"/>
      <point x="694" y="413" type="curve"/>
      <point x="694" y="367"/>
      <point x="706" y="317"/>
      <point x="723" y="285" type="curve"/>
      <point x="736" y="312"/>
      <point x="759" y="343"/>
      <point x="781" y="343" type="curve" smooth="yes"/>
      <point x="802" y="343"/>
      <point x="815" y="325"/>
      <point x="815" y="293" type="curve" smooth="yes"/>
      <point x="815" y="250"/>
      <point x="783" y="215"/>
      <point x="736" y="215" type="curve" smooth="yes"/>
      <point x="677" y="215"/>
      <point x="594" y="259"/>
      <point x="586" y="349" type="curve"/>
      <point x="564" y="288" type="line"/>
      <point x="591" y="156"/>
      <point x="660" y="90"/>
      <point x="751" y="90" type="curve" smooth="yes"/>
    </contour>
    <contour>
      <point x="504" y="-34" type="move" name="blwm"/>
    </contour>
    <contour>
      <point x="368" y="-29" type="move" name="haln"/>
    </contour>
    <contour>
      <point x="511" y="690" type="move" name="reph"/>
    </contour>
    <contour>
      <point x="511" y="690" type="move" name="chandrabindu"/>
    </contour>
  </outline>
</glyph>
